<svg xmlns="http://www.w3.org/2000/svg"  viewBox="0 0 284 216"><path fill="#252B36" d="M138.1 215c72.58 0 131.4-16.22 131.4-36.23 0-20-58.82-36.23-131.4-36.23-72.56 0-131.4 16.22-131.4 36.23 0 20 58.84 36.23 131.4 36.23Z"/><path fill="#00F673" d="M239.8 54.85s19.6 22.55 19.7 50.48c.1 27.93-19.31 50.67-19.31 50.67s-19.6-22.55-19.7-50.48c-.1-27.93 19.31-50.67 19.31-50.67Z"/><path fill="#00F673" d="M282.85 118.74s.12 18.36-9.78 30.03c-9.9 11.67-26.08 12.23-26.08 12.23s-.12-18.36 9.78-30.03c9.9-11.66 26.08-12.23 26.08-12.23Zm-85.1-1.69s-.81 18.33 8.64 30.47C215.84 159.65 232 161 232 161s.8-18.34-8.65-30.47c-9.45-12.14-25.59-13.48-25.59-13.48Z"/><path fill="#00F673" d="M239.8 54.85s19.6 22.55 19.7 50.48c.1 27.93-19.31 50.67-19.31 50.67s-19.6-22.55-19.7-50.48c-.1-27.93 19.31-50.67 19.31-50.67Z"/><path fill="#00F673" d="M282.85 118.74s.12 18.36-9.78 30.03c-9.9 11.67-26.08 12.23-26.08 12.23s-.12-18.36 9.78-30.03c9.9-11.66 26.08-12.23 26.08-12.23Zm-85.1-1.69s-.81 18.33 8.64 30.47C215.84 159.65 232 161 232 161s.8-18.34-8.65-30.47c-9.45-12.14-25.59-13.48-25.59-13.48Z"/><path fill="#343A46" d="M227.78 130.2c.17-.26.5-.3.71-.1l10.3 9.16c.33.3.82.02.82-.46l-.08-21.13a.62.62 0 0 0-.17-.43l-15.46-15.51a.63.63 0 0 1-.05-.82c.2-.24.51-.26.72-.05l14.1 14.15c.33.33.85.06.85-.43l-.09-23.25a.61.61 0 0 0-.18-.43l-10.22-10.04a.63.63 0 0 1-.06-.82c.19-.24.51-.27.72-.06l8.89 8.72c.33.33.84.06.84-.44l-.13-32.83c0-.32.23-.58.51-.58s.51.26.51.57l.19 48.67c0 .57.64.8.93.33l11.47-19.04c.16-.26.48-.33.71-.15.23.18.3.54.13.8l-13.15 21.82-.08-.07.08 19.95c0 .5.52.76.85.42l13.99-14.26c.2-.22.53-.2.72.04.18.24.17.6-.04.82l-15.51 15.81.1 24.86c0 .32-.23.58-.52.58-.28 0-.5-.25-.5-.57l-.06-13.68a.6.6 0 0 0-.2-.45L227.87 131a.63.63 0 0 1-.08-.8Zm-29.45-11.95c.21-.2.53-.19.72.05l15.53 19.7c.33.41.95.1.88-.47l-1.28-11.48c-.03-.31.17-.6.44-.64.28-.04.54.18.57.5l1.67 14.96h-.01l6.06 7.69c.3.37.84.18.89-.32l1.1-10.98c.03-.32.28-.54.56-.5.28.03.48.31.45.63l-1.3 13.03a.6.6 0 0 0 .12.45l8.11 10.28c.19.24.17.6-.04.82-.2.21-.53.2-.72-.05l-4.38-5.55a.48.48 0 0 0-.4-.2l-8.1.56c-.27.02-.51-.22-.53-.54-.02-.32.2-.6.48-.61l6.47-.45c.43-.03.63-.6.35-.96l-6.48-8.22a.48.48 0 0 0-.38-.2l-11.57.02c-.28 0-.5-.25-.5-.57 0-.32.22-.58.5-.58l9.75-.02c.44 0 .67-.59.38-.96l-7.16-9.07a.48.48 0 0 0-.38-.2l-7.44.1c-.28.01-.5-.24-.51-.56 0-.32.22-.58.5-.59l5.66-.07c.43-.01.66-.6.37-.97l-10.42-13.2a.64.64 0 0 1 .04-.83Zm52.69 26.33c.28-.05.54.18.57.5l.88 7.28c.05.48.57.68.87.33l6.74-7.95c.1-.12.15-.28.14-.44l-.88-13.08c-.02-.32.2-.6.47-.62.28-.03.53.21.55.53l.74 11.02c.03.5.57.72.87.36l7.44-8.77a.6.6 0 0 0 .14-.45l-.64-8.4c-.02-.32.18-.6.46-.63.28-.03.53.21.56.53l.48 6.39c.04.5.57.7.88.35l10.83-12.77c.2-.23.52-.24.73-.02.2.22.2.59.01.82l-16.15 19.03c-.35.41-.02 1.08.47.97l10-2.3c.27-.07.54.14.6.45.05.31-.13.62-.4.68l-13.03 3v-.02l-6.3 7.44c-.31.36-.1.96.34.97l9.73.43c.28.01.5.28.5.6-.02.32-.25.57-.54.55l-11.54-.5a.48.48 0 0 0-.4.18l-8.43 9.94a.47.47 0 0 1-.72.02.63.63 0 0 1-.01-.82l4.56-5.37c.1-.13.15-.3.13-.48l-1.09-9.1c-.03-.32.16-.6.44-.65Z"/><path fill="#fff" stroke="#404653" stroke-linecap="round" stroke-linejoin="round" stroke-miterlimit="10" d="M151.46 27.55H129.3v5.68h22.15v-5.68Z"/><path fill="#404653" stroke="#404653" stroke-linecap="round" stroke-linejoin="round" stroke-miterlimit="10" d="M137.16 27.55h-3.51v5.68h3.5v-5.68Z"/><path fill="#fff" stroke="#404653" stroke-linecap="round" stroke-linejoin="round" stroke-miterlimit="10" d="M154.47 32.97H126.3v5.68h28.16v-5.68Z"/><path fill="#404653" stroke="#404653" stroke-linecap="round" stroke-linejoin="round" stroke-miterlimit="10" d="M135.4 32.97h-3.94v5.68h3.95v-5.68Z"/><path fill="#00F673" stroke="#404653" stroke-linecap="round" stroke-linejoin="round" stroke-miterlimit="10" d="M140.39 11.28a11.05 11.05 0 0 0-11.08 11.03v5.5h22.15v-5.5c0-6.1-4.96-11.03-11.07-11.03Z"/><path stroke="#404653" stroke-linecap="round" stroke-linejoin="round" stroke-miterlimit="10" d="m133.82 16.03-.35.41a9.67 9.67 0 0 0-2.1 4.44c-.09.57 0 4.16 0 4.16m6.17-11.71s-.81.37-1.81 1.07M140.16 1v6.17m8.86 3.95 3.56-3.15m.45 13.43h5.56m-26.97-10.28-3.56-3.15m-.45 13.43h-5.55"/><path fill="#404653" stroke="#404653" stroke-linecap="round" stroke-linejoin="round" stroke-miterlimit="10" d="M217.49 143.66H63.07V43.54a5.23 5.23 0 0 1 5.24-5.22h143.93c2.9 0 5.25 2.34 5.25 5.22v100.12Z"/><path fill="#fff" stroke="#404653" stroke-linecap="round" stroke-linejoin="round" stroke-miterlimit="10" d="M240.65 190.23H39.9l23.17-46.57h154.41l23.17 46.57Z"/><path fill="#00F673" stroke="#404653" stroke-linecap="round" stroke-linejoin="round" stroke-miterlimit="10" d="M208.13 46.66H72.42v88.66h135.71V46.66Z"/><path fill="#fff" stroke="#404653" stroke-linecap="round" stroke-linejoin="round" stroke-miterlimit="10" d="M205.3 48.87H75.43v4.6H205.3v-4.6Z"/><path fill="#404653" stroke="#404653" stroke-linecap="round" stroke-linejoin="round" stroke-miterlimit="10" d="M205.3 48.87h-10.93v4.6h10.93v-4.6Z"/><path fill="#404653" stroke="#fff" stroke-linecap="round" stroke-linejoin="round" stroke-miterlimit="10" d="m133.83 158.4.27-5.67h-8.16l-.54 5.68h8.43Zm16.87 0-.28-5.67h-8.16v5.68h8.44Zm43.92 6.07h8.72l-2.05-6.06h-8.43l1.75 6.06Zm-69.22-6.07.54-5.67h-8.16l-.8 5.68h8.42Zm-16.86 0 1.08-5.67h-8.16l-1.35 5.68h8.43Zm75.89 0-1.38-5.67h-8.15l1.1 5.68h8.43Z"/><path fill="#404653" stroke="#fff" stroke-linecap="round" stroke-linejoin="round" stroke-miterlimit="10" d="m192.86 158.4-1.64-5.67h-8.16l1.37 5.68h8.43Zm-92.76 0 1.37-5.67H93.3l-1.64 5.68h8.44Zm59.03 0-.55-5.67h-8.16l.28 5.68h8.43Z"/><path fill="#404653" stroke="#fff" stroke-linecap="round" stroke-linejoin="round" stroke-miterlimit="10" d="m201.29 158.4-1.92-5.67h-8.16l1.65 5.68h8.43Zm-25.29 0-1.1-5.67h-8.16l.82 5.68H176Z"/><path fill="#404653" stroke="#fff" stroke-linecap="round" stroke-linejoin="round" stroke-miterlimit="10" d="m167.56 158.4-.82-5.67h-8.16l.55 5.68h8.43Zm-25.3 0v-5.67h-8.16l-.27 5.68h8.43Zm-59.02 0h-8.43l-2.33 6.07h8.73l2.03-6.06Z"/><path fill="#404653" stroke="#fff" stroke-linecap="round" stroke-linejoin="round" stroke-miterlimit="10" d="M85.14 152.73H77l-2.18 5.68h8.43l1.9-5.68Zm6.53 5.67 1.64-5.67h-8.16l-1.9 5.68h8.42Zm-21.68 12.57-2.69 6.99h9.38l2.34-6.99H70Zm11.21-6.5h-8.72l-2.5 6.5h9.04l2.19-6.5Z"/><path fill="#404653" stroke="#fff" stroke-linecap="round" stroke-linejoin="round" stroke-miterlimit="10" d="m79.02 170.97-2.34 6.99h9.37l2.01-6.99h-9.04Zm37.95-12.57.81-5.67h-8.16l-1.08 5.68h8.43Z"/><path fill="#404653" stroke="#fff" stroke-linecap="round" stroke-linejoin="round" stroke-miterlimit="10" d="m116.1 164.47.87-6.06h-8.43l-1.17 6.06h8.73Z"/><path fill="#404653" stroke="#fff" stroke-linecap="round" stroke-linejoin="round" stroke-miterlimit="10" d="m107.38 164.47 1.16-6.06h-8.44l-1.45 6.06h8.73Zm17.44 0 .58-6.06h-8.43l-.87 6.06h8.72Zm-33.15-6.07h-8.43l-2.03 6.07h8.72l1.74-6.06Zm104.83 12.57h9.03l-2.2-6.5h-8.72l1.88 6.5Z"/><path fill="#404653" stroke="#fff" stroke-linecap="round" stroke-linejoin="round" stroke-miterlimit="10" d="m98.65 164.47 1.45-6.06h-8.43l-1.74 6.06h8.72Zm-17.45 0-2.18 6.5h9.04l1.87-6.5H81.2Zm95.97 0-1.18-6.06h-8.43l.88 6.06h8.73Z"/><path fill="#404653" stroke="#fff" stroke-linecap="round" stroke-linejoin="round" stroke-miterlimit="10" d="m168.44 164.47-.88-6.06h-8.43l.59 6.06h8.72Zm26.17 0-1.75-6.06h-8.43l1.46 6.06h8.72Zm-52.34 0v-6.06h-8.44l-.28 6.06h8.72Z"/><path fill="#404653" stroke="#fff" stroke-linecap="round" stroke-linejoin="round" stroke-miterlimit="10" d="m159.72 164.47-.6-6.06h-8.42l.3 6.06h8.72Zm-8.72 0-.3-6.06h-8.44l.01 6.06h8.72Zm-17.45 0 .28-6.06h-8.43l-.58 6.06h8.73Zm26.17 0 .63 6.5h9.04l-.95-6.5h-8.72Z"/><path fill="#404653" stroke="#fff" stroke-linecap="round" stroke-linejoin="round" stroke-miterlimit="10" d="m168.44 164.47.94 6.5h9.04l-1.25-6.5h-8.73Zm-78.51 0-1.87 6.5h9.03l1.56-6.5h-8.72Z"/><path fill="#404653" stroke="#fff" stroke-linecap="round" stroke-linejoin="round" stroke-miterlimit="10" d="m177.17 164.47 1.25 6.5h9.04l-1.57-6.5h-8.72Zm-34.9 0v6.5h9.04l-.31-6.5h-8.73Z"/><path fill="#404653" stroke="#fff" stroke-linecap="round" stroke-linejoin="round" stroke-miterlimit="10" d="m185.89 164.47 1.57 6.5h9.03l-1.88-6.5h-8.72Zm-34.89 0 .31 6.5h9.04l-.63-6.5H151Zm-43.62 0-1.25 6.5h9.04l.93-6.5h-8.72Z"/><path fill="#404653" stroke="#fff" stroke-linecap="round" stroke-linejoin="round" stroke-miterlimit="10" d="m98.65 164.47-1.55 6.5h9.03l1.25-6.5h-8.73Zm34.9 0-.3 6.5h9.03v-6.5h-8.73Zm-8.73 0-.61 6.5h9.03l.3-6.5h-8.72Zm-8.72 0-.93 6.5h9.03l.62-6.5h-8.72Zm69.79 0-1.46-6.06h-8.44l1.18 6.06h8.72ZM85.15 152.73l1.95-5.8h-7.88l-2.23 5.8h8.16Zm-8.16 0h-7.54l-2.42 5.68h7.78l2.18-5.68Z"/><path fill="#404653" stroke="#fff" stroke-linecap="round" stroke-linejoin="round" stroke-miterlimit="10" d="M79.22 146.92h-7.28l-2.48 5.81h7.53l2.23-5.8Zm-4.41 11.48h-7.78l-2.6 6.07h8.05l2.33-6.06Zm-2.33 6.07h-8.05l-2.79 6.5H70l2.5-6.5Zm-2.49 6.5h-8.35l-2.99 6.99h8.66l2.68-6.99Zm139.73-12.57 2.34 6.07h7.72l-2.6-6.06h-7.46Zm4.85 12.57h7.99l-2.78-6.5h-7.72l2.5 6.5Zm2.69 6.99h8.3l-3-6.99h-8l2.7 6.99Zm-66.84-25.23-.29-5.8h-7.88v5.8h8.17Z"/><path fill="#404653" stroke="#fff" stroke-linecap="round" stroke-linejoin="round" stroke-miterlimit="10" d="M209.72 158.4h7.46l-2.43-5.67h-7.22l2.19 5.68Zm-4.19 12.57h9.04l-2.51-6.5h-8.72l2.2 6.5ZM93.3 152.73l1.68-5.8H87.1l-1.95 5.8h8.16Z"/><path fill="#404653" stroke="#fff" stroke-linecap="round" stroke-linejoin="round" stroke-miterlimit="10" d="m199.38 152.73 1.91 5.68h8.43l-2.19-5.68h-8.16Zm15.37 0-2.49-5.8h-6.97l2.24 5.8h7.22Z"/><path fill="#404653" stroke="#fff" stroke-linecap="round" stroke-linejoin="round" stroke-miterlimit="10" d="m207.53 152.73-2.24-5.8h-7.88l1.96 5.8h8.16Zm-29.11 18.24 1.35 6.99h9.37l-1.68-6.99h-9.04Zm29.47 6.99h9.37l-2.7-6.99h-9.03l2.36 6.99Z"/><path fill="#404653" stroke="#fff" stroke-linecap="round" stroke-linejoin="round" stroke-miterlimit="10" d="m199.38 152.73-1.97-5.8h-7.88l1.69 5.8h8.16Zm-2.88 18.24 2.02 6.99h9.37l-2.36-6.99h-9.03Z"/><path fill="#404653" stroke="#fff" stroke-linecap="round" stroke-linejoin="round" stroke-miterlimit="10" d="m187.46 170.97 1.69 6.99h9.37l-2.02-6.99h-9.04Zm15.88-6.5h8.72l-2.34-6.06h-8.43l2.05 6.06Zm-77.4-11.74.55-5.8h-7.88l-.83 5.8h8.16Zm65.27 0-1.68-5.8h-7.88l1.4 5.8h8.16Z"/><path fill="#404653" stroke="#fff" stroke-linecap="round" stroke-linejoin="round" stroke-miterlimit="10" d="m117.78 152.73.84-5.8h-7.88l-1.11 5.8h8.15Zm24.48 0v-5.8h-7.89l-.27 5.8h8.16Zm-32.64 0 1.12-5.8h-7.88l-1.4 5.8h8.16Z"/><path fill="#404653" stroke="#fff" stroke-linecap="round" stroke-linejoin="round" stroke-miterlimit="10" d="m101.47 152.73 1.39-5.8h-7.88l-1.67 5.8h8.16Zm32.63 0 .28-5.8h-7.88l-.56 5.8h8.16Zm48.96 0-1.4-5.8h-7.88l1.12 5.8h8.16Zm-8.16 0-1.13-5.8h-7.88l.85 5.8h8.16Zm-16.32 0-.57-5.8h-7.88l.29 5.8h8.16Zm19.84 18.24H88.06l-2 6.99h93.7l-1.35-6.99Z"/><path fill="#404653" stroke="#fff" stroke-linecap="round" stroke-linejoin="round" stroke-miterlimit="10" d="m166.74 152.73-.85-5.8h-7.88l.57 5.8h8.16Z"/><path fill="#404653" stroke="#404653" stroke-linecap="round" stroke-linejoin="round" stroke-miterlimit="10" d="M240.74 190.23H39.9v2.84h200.84v-2.84Z"/><path fill="#343A46" stroke="#343A46" stroke-linecap="round" stroke-linejoin="round" stroke-miterlimit="10" d="m143.48 62.45 30.98 53.44a3.63 3.63 0 0 1-3.16 5.44h-61.96a3.63 3.63 0 0 1-3.16-5.44l30.98-53.44a3.65 3.65 0 0 1 6.32 0Z"/><path stroke="#fff" stroke-linecap="round" stroke-linejoin="round" stroke-miterlimit="10" d="m142.96 67.14 25.93 45.89a3.11 3.11 0 0 1-2.64 4.67H114.4a3.11 3.11 0 0 1-2.64-4.67l25.93-45.89a3.02 3.02 0 0 1 5.28 0Z"/><path fill="#fff" d="M135.45 80.57c-.24-1.95.5-3.34 2.25-4.17a5.84 5.84 0 0 1 5.24 0c1.74.82 2.5 2.22 2.25 4.17l-2.38 18.93c-.09.78-.38 1.4-.87 1.84-.5.44-1.03.66-1.6.66-.58 0-1.12-.22-1.61-.66a2.76 2.76 0 0 1-.87-1.84l-2.41-18.93Zm1.88 32.99a4.21 4.21 0 0 1-1.27-3.1 4.3 4.3 0 0 1 4.34-4.37c1.16 0 2.17.4 3.02 1.22a4.16 4.16 0 0 1 1.29 3.15c0 1.19-.42 2.21-1.25 3.07a4.1 4.1 0 0 1-3.06 1.3c-1.2 0-2.22-.43-3.07-1.27Z"/><path fill="#404653" stroke="#404653" stroke-linecap="round" stroke-linejoin="round" stroke-miterlimit="10" d="m41.87 125.01.44 3.52s6.87 23.23 6.97 25.5c.1 2.28-24.3 32.17-24.3 32.17l-4.68-2.08 16.89-32.36S19.55 135.5 18.78 130.1c-.77-5.41 2.23-12.9 2.23-12.9s20.86 6.21 20.86 7.82Z"/><path fill="#fff" d="M56.24 91.7 53.36 119l21 9.08-1.27 3.08-22.68-5.84a6.28 6.28 0 0 1-4.7-5.5l-.99-10.91L56.24 91.7Z"/><mask id="a" width="31" height="41" x="44" y="91" maskUnits="userSpaceOnUse" style="mask-type:luminance"><path fill="#fff" d="M56.24 91.7 53.36 119l21 9.08-1.27 3.08-22.68-5.84a6.28 6.28 0 0 1-4.7-5.5l-.99-10.91L56.24 91.7Z"/></mask><g fill="#00F673" mask="url(#a)"><path d="m47.22 105.18 1.05-1.58 2.01 3.13-2.5 10.91 2.92.83s-2.78 1.52-2.22 2.08c.55.55 2.63.13 2.63.13l22.68 8.76-.7 1.72-22.68-5.84a6.28 6.28 0 0 1-4.7-5.5l-.84-9.27a94.35 94.35 0 0 1 2.35-5.37Z"/><path d="m47.22 105.18 1.05-1.58 2.01 3.13-2.5 10.91 2.92.83s-2.78 1.52-2.22 2.08c.55.55 2.63.13 2.63.13l22.68 8.76-.7 1.72-22.68-5.84a6.28 6.28 0 0 1-4.7-5.5l-.84-9.27a94.35 94.35 0 0 1 2.35-5.37Z" opacity=".3"/></g><path stroke="#404653" stroke-linecap="round" stroke-linejoin="round" stroke-miterlimit="10" d="M56.24 91.7 53.36 119l21 9.08-1.27 3.08-22.68-5.84a6.28 6.28 0 0 1-4.7-5.5l-.99-10.91L56.24 91.7Z"/><path stroke="#404653" stroke-linecap="round" stroke-linejoin="round" stroke-miterlimit="10" d="M49.95 120.22c1.65-1.17 3.41-1.22 3.41-1.22s-2.47-1-4.7-.07"/><path fill="#fff" d="m44.51 84.3 11.73 7.4-14.06 34.92s-2.01 1.3-10.41-1.08-11.23-7.75-11.23-7.75l6.26-35.62L38 81.5l6.51 2.8Z"/><mask id="b" width="37" height="46" x="20" y="81" maskUnits="userSpaceOnUse" style="mask-type:luminance"><path fill="#fff" d="m44.51 84.3 11.73 7.4-14.06 34.92s-2.01 1.3-10.41-1.08-11.23-7.76-11.23-7.76l6.26-35.6L38 81.5l6.51 2.8Z"/></mask><g mask="url(#b)"><path fill="#00F673" d="m20.54 117.79 6.26-35.62L38 81.5l6.43 2.77-2.89 7.68-3.66-1.5-8.83 5.64 5.97 1.66-4.86 2.35-4.3 13.54s13.88-1.8 12.07-1.39c-1.8.42-14.15 5.12-14.15 5.95 0 .82 6.1 5.24 9.3 6.76a21.5 21.5 0 0 0 6.66 1.8l-4.13-.29c-1.1-.21-2.37-.51-3.84-.93-8.4-2.38-11.23-7.75-11.23-7.75Z"/></g><path stroke="#404653" stroke-linecap="round" stroke-linejoin="round" stroke-miterlimit="10" d="m44.51 84.3 11.73 7.4-14.06 34.92s-2.01 1.3-10.41-1.08-11.23-7.75-11.23-7.75l6.26-35.62L38 81.5l6.51 2.8Zm-8.91 38.27-.5 2.27m6.77-31.35-5.78 26.77m-.39-24.09-7.3-1.64"/><path fill="#fff" stroke="#404653" stroke-linecap="round" stroke-linejoin="round" stroke-miterlimit="10" d="m46.03 83.56 1.78 8.69-4-4.47 2.22-4.22Z"/><path fill="#fff" d="M47.7 81.95 41.77 92.7l-.14-6.68L39 82.03l.11-4.4s-2.25-2.49-2.48-4.3c-.23-1.82.17-6.4 3.17-7.59 3-1.2 7.12-1.23 7.12-1.23s-2.22-1.72-.23-1.66c1.99.07 3.02 2.6 3.02 2.6s.65-2.3 1.35-.36c.7 1.94-.46 3.2-1.52 3.56-1.05.35-1.64 4.18-1.84 6.62-.2 2.44 0 6.68 0 6.68Z"/><mask id="c" width="16" height="31" x="36" y="62" maskUnits="userSpaceOnUse" style="mask-type:luminance"><path fill="#fff" d="M47.7 81.95 41.77 92.7l-.14-6.68L39 82.04l.11-4.42s-2.25-2.48-2.48-4.3c-.23-1.8.17-6.38 3.17-7.58 3-1.2 7.12-1.23 7.12-1.23s-2.22-1.72-.23-1.66c1.99.07 3.02 2.6 3.02 2.6s.65-2.3 1.35-.36c.7 1.94-.46 3.21-1.52 3.56-1.05.35-1.64 4.18-1.84 6.62-.2 2.44 0 6.68 0 6.68Z"/></mask><g fill="#00F673" mask="url(#c)"><path d="M39.11 77.62s-2.25-2.48-2.48-4.3c-.23-1.8.17-6.38 3.17-7.58 3-1.2 7.12-1.23 7.12-1.23s-2.22-1.72-.23-1.66c1.99.07 3.02 2.6 3.02 2.6s.65-2.3 1.35-.36c.7 1.94-.46 3.21-1.52 3.56-1.05.35-1.64 4.18-1.84 6.62-.2 2.44 0 6.68 0 6.68l-.64 1.17-3.16.82-2.17 6.68-.1-4.6L39 82.04l.1-4.42Z"/><path d="M39.11 77.62s-2.25-2.48-2.48-4.3c-.23-1.8.17-6.38 3.17-7.58 3-1.2 7.12-1.23 7.12-1.23s-2.22-1.72-.23-1.66c1.99.07 3.02 2.6 3.02 2.6s.65-2.3 1.35-.36c.7 1.94-.46 3.21-1.52 3.56-1.05.35-1.64 4.18-1.84 6.62-.2 2.44 0 6.68 0 6.68l-.64 1.17-3.16.82-2.17 6.68-.1-4.6L39 82.04l.1-4.42Z" opacity=".3"/></g><path stroke="#404653" stroke-linecap="round" stroke-linejoin="round" stroke-miterlimit="10" d="M47.7 81.95 41.77 92.7l-.14-6.68L39 82.03l.11-4.4s-2.25-2.49-2.48-4.3c-.23-1.82.17-6.4 3.17-7.59 3-1.2 7.12-1.23 7.12-1.23s-2.22-1.72-.23-1.66c1.99.07 3.02 2.6 3.02 2.6s.65-2.3 1.35-.36c.7 1.94-.46 3.2-1.52 3.56-1.05.35-1.64 4.18-1.84 6.62-.2 2.44 0 6.68 0 6.68Z"/><path fill="#404653" stroke="#404653" stroke-linecap="round" stroke-linejoin="round" stroke-miterlimit="10" d="M39.8 65.74c3-1.2 7.12-1.23 7.12-1.23s-2.22-1.72-.23-1.66c1.99.07 3.02 2.6 3.02 2.6s.66-2.3 1.35-.36c.7 1.94-.46 3.2-1.51 3.56-1 .33-1.58 3.73-1.8 6.16l-6.01 3.46-2.64-.25.01-.4s-2.24-2.48-2.48-4.3c-.23-1.8.17-6.38 3.17-7.58Z"/><path stroke="#fff" stroke-linecap="round" stroke-linejoin="round" stroke-miterlimit="10" stroke-width=".5" d="M46.77 68.37s-1.06.35-4.6-.12a4.72 4.72 0 0 0-5.53 4.1m9.55-.23s-4.48.24-6.13 0c-1.65-.23-3.18 1.06-2.36 2.7"/><path fill="#fff" d="M49.34 67.44s1.62 2.21 1.68 3.42c.05 1.22-.52 2.15-.52 2.15l2.3 3.4-1.66.53-.32 6.54-.6.18-7.12-2.11-1.36-3.28s-1.58-1.15-1.93-2.04a7.8 7.8 0 0 1-.34-1.72c-.08-.75.51-1.4 1.27-1.38.49 0 .98.14 1.25.57a18.04 18.04 0 0 1 1.17 2.22l.91-.04.36-2.14s2.42-.41 2.4-1.02c-.03-.6-.93-3.6-.93-3.6l3.44-1.68Z"/><mask id="d" width="14" height="17" x="39" y="67" maskUnits="userSpaceOnUse" style="mask-type:luminance"><path fill="#fff" d="M49.34 67.45s1.62 2.2 1.68 3.42c.05 1.2-.52 2.15-.52 2.15l2.3 3.39-1.66.53-.32 6.55-.6.18-7.12-2.12-1.36-3.28s-1.58-1.15-1.93-2.04a7.8 7.8 0 0 1-.34-1.71c-.08-.75.51-1.4 1.27-1.39.49.01.98.14 1.25.57a18.05 18.05 0 0 1 1.17 2.23l.91-.04.36-2.15s2.42-.4 2.4-1.02c-.03-.6-.93-3.6-.93-3.6l3.44-1.67Z"/></mask><g fill="#00F673" mask="url(#d)"><path d="M40.74 73.13c.49.01.98.14 1.25.57a18.05 18.05 0 0 1 1.17 2.23l.91-.04.36-2.15s2.42-.41 2.4-1.02c-.03-.6-.93-3.6-.93-3.6l1.2-.58c.9 1.22 1.82 2.76 1.52 3.66-.56 1.66-2.36 4.14-1.8 5.53.37.93.87 3.61 1.15 5.27l-4.87-1.45-1.36-3.28s-1.58-1.15-1.93-2.04a7.8 7.8 0 0 1-.34-1.71c-.08-.75.51-1.4 1.27-1.39Z"/><path d="M40.74 73.13c.49.01.98.14 1.25.57a18.05 18.05 0 0 1 1.17 2.23l.91-.04.36-2.15s2.42-.41 2.4-1.02c-.03-.6-.93-3.6-.93-3.6l1.2-.58c.9 1.22 1.82 2.76 1.52 3.66-.56 1.66-2.36 4.14-1.8 5.53.37.93.87 3.61 1.15 5.27l-4.87-1.45-1.36-3.28s-1.58-1.15-1.93-2.04a7.8 7.8 0 0 1-.34-1.71c-.08-.75.51-1.4 1.27-1.39Z" opacity=".3"/></g><path stroke="#404653" stroke-linecap="round" stroke-linejoin="round" stroke-miterlimit="10" d="M49.34 67.44s1.62 2.21 1.68 3.42c.05 1.22-.52 2.15-.52 2.15l2.3 3.4-1.66.53-.32 6.54-.6.18-7.12-2.11-1.36-3.28s-1.58-1.15-1.93-2.04a7.8 7.8 0 0 1-.34-1.72c-.08-.75.51-1.4 1.27-1.38.49 0 .98.14 1.25.57a18.04 18.04 0 0 1 1.17 2.22l.91-.04.36-2.14s2.42-.41 2.4-1.02c-.03-.6-.93-3.6-.93-3.6l3.44-1.68Z"/><path fill="#404653" d="M48.81 73.57c0 .53.16.96.36.96.19 0 .35-.43.35-.96s-.16-.96-.35-.96c-.2 0-.36.43-.36.96Z"/><path stroke="#404653" stroke-linecap="round" stroke-linejoin="round" stroke-miterlimit="10" d="M49.9 70.97s-.59-1.17-1.77.78"/><path fill="#404653" d="M48.92 79.03c0 .35.2.63.44.63s.44-.28.44-.63-.2-.64-.44-.64c-.25 0-.44.29-.44.64Z"/><path fill="#00F673" d="m42.17 85.96-4.29 4.5-.9-8.56 2.01-1.3 3.18 5.36Z"/><mask id="e" width="7" height="11" x="36" y="80" maskUnits="userSpaceOnUse" style="mask-type:luminance"><path fill="#fff" d="m42.17 85.97-4.29 4.48-.9-8.55 2.01-1.3 3.18 5.37Z"/></mask><g mask="url(#e)"><path fill="#00F673" d="m42.17 85.97-4.29 4.48-.9-8.55 2.01-1.3 3.18 5.37Z" opacity=".3"/></g><path stroke="#404653" stroke-linecap="round" stroke-linejoin="round" stroke-miterlimit="10" d="m42.17 85.96-4.29 4.5-.9-8.56 2.01-1.3 3.18 5.36Z"/><path fill="#404653" d="M34.12 128s14.98 17.8 19.08 23.06c4.12 5.26 5.12 7.85 4.8 8.56-.32.72-6.62 34.81-6.62 34.81l-5.16-.12s.6-12.6.06-19.56c-.55-7.04 1.65-15.44 1.65-15.44s-19-11.73-26.3-23.05c-3.52-5.47-3.85-7.51-2.25-13.64"/><path stroke="#404653" stroke-linecap="round" stroke-linejoin="round" stroke-miterlimit="10" d="M34.12 128s14.98 17.8 19.08 23.06c4.12 5.26 5.12 7.85 4.8 8.56-.32.72-6.62 34.81-6.62 34.81l-5.16-.12s.6-12.6.06-19.56c-.55-7.04 1.65-15.44 1.65-15.44s-19-11.73-26.3-23.05c-3.52-5.47-3.85-7.51-2.25-13.64"/><path stroke="#fff" stroke-linecap="round" stroke-linejoin="round" stroke-miterlimit="10" stroke-width=".5" d="m48.42 187.4-.22 3.77m-20.72-54.32a61 61 0 0 0 6.55 7.3c5.9 5.4 18.9 15.98 17.47 15.98-1.41 0-2.6 1.18-2.12 2.35.3.77-.29 12.7-.74 20.93m-26.42-60.67s-2.84 2.83-1.18 3.3c1.65.47 5.43 1.4 4.01 1.88-1.41.47-2.6 1.88-2.6 1.88s1 1.56 2.58 3.77m19.63 7.51S31.43 127.21 26 125.1"/><path fill="#fff" stroke="#404653" stroke-linecap="round" stroke-linejoin="round" stroke-miterlimit="10" d="m51.37 194.42 10.55 5.7s.03.7-1.37.76c-1.4.06-14.94.67-15.65.47-.7-.2 1.32-7.05 1.32-7.05l5.15.12Z"/><path fill="#fff" d="M26.8 82.18 2.5 100.77a3.82 3.82 0 0 0-1.25 4.4l7.88 20.57 4.18-.65-2.54-17.63a3.83 3.83 0 0 1 1.94-3.9l11.38-6.3s3.14-13.29 2.71-15.08Z"/><mask id="f" width="26" height="44" x="1" y="82" maskUnits="userSpaceOnUse" style="mask-type:luminance"><path fill="#fff" d="M26.8 82.18 2.5 100.77a3.82 3.82 0 0 0-1.25 4.4l7.88 20.57 4.18-.65-2.54-17.63a3.83 3.83 0 0 1 1.94-3.9l11.38-6.3s3.14-13.29 2.71-15.08Z"/></mask><g mask="url(#f)"><path fill="#00F673" d="m2.5 100.77 24.3-18.59c.43 1.8-2.71 15.07-2.71 15.07l-5.9 3.28c-1.6-1.23-4-2.93-5.78-3.6-2.92-1.1-10.69 4.83-10.55 6.49.12 1.42 7.27 17.46 9.31 22l-2.04.32-7.88-20.57a3.82 3.82 0 0 1 1.25-4.4Z"/></g><path stroke="#404653" stroke-linecap="round" stroke-linejoin="round" stroke-miterlimit="10" d="M26.8 82.18 2.5 100.77a3.82 3.82 0 0 0-1.25 4.4l7.88 20.57 4.18-.65-2.54-17.63a3.83 3.83 0 0 1 1.94-3.9l11.38-6.3s3.14-13.29 2.71-15.08Z"/><path stroke="#404653" stroke-linecap="round" stroke-linejoin="round" stroke-miterlimit="10" d="M5.54 102.28a36.45 36.45 0 0 1 5.18 2.7s-1.53-3.17-3.77-4"/><path fill="#fff" stroke="#404653" stroke-linecap="round" stroke-linejoin="round" stroke-miterlimit="10" d="m13.3 125.09 2.2 1.78 1.76 3.44-.67.73-1.7-2.03-.56 1.13.32 7.12-1.2.26-.72-2.39-1.13-.45-1.02-2.46s-.96-1.17-1.18-1.56c-.22-.4-.28-4.92-.28-4.92l4.19-.65Zm61.05 2.99 3.4-.27 2.19 1.71-1.22 4.28-3.88-1.28-1.75-1.36 1.26-3.08Z"/><path fill="#fff" stroke="#404653" stroke-linecap="round" stroke-linejoin="round" stroke-miterlimit="10" d="m78.53 130.56 3.28 1.55.65-1.36-3.28-1.55-.65 1.36Zm-.74 1.34 3.28 1.55.65-1.36-3.28-1.55-.65 1.36Z"/><path fill="#fff" stroke="#404653" stroke-linecap="round" stroke-linejoin="round" stroke-miterlimit="10" d="m76.52 132.86 3.28 1.55.65-1.36-3.28-1.55-.65 1.36Z"/><path fill="#fff" stroke="#404653" stroke-linecap="round" stroke-linejoin="round" stroke-miterlimit="10" d="m76.4 134 2.47 1.17.51-1.07-2.46-1.16-.51 1.06Z"/><path fill="#fff" d="m77.74 127.81 2.8 1.68-1.35 3.68-.74-.77.13-1.71s-1.79.68-3.04-.17"/><path stroke="#404653" stroke-linecap="round" stroke-linejoin="round" stroke-miterlimit="10" d="m77.74 127.81 2.8 1.68-1.35 3.68-.74-.77.13-1.71s-1.79.68-3.04-.17"/><path fill="#fff" stroke="#404653" stroke-linecap="round" stroke-linejoin="round" stroke-miterlimit="10" d="m24.98 186.2 2.38 2.52 4.35 2.62s.44.78-.97.85c-1.4.06-6.07-.54-6.87-.5-.8.03-1.88-1.32-3.08-1.27-.68.03-1.9-.54-2.83-1.06a1.26 1.26 0 0 1-.37-1.9l2.71-3.34 4.68 2.08Z"/><path fill="#404653" stroke="#404653" stroke-linecap="round" stroke-linejoin="round" stroke-miterlimit="10" d="m31.62 191.29.09.05s.44.78-.97.84c-1.4.07-6.07-.53-6.87-.5-.8.04-1.88-1.31-3.08-1.26-.68.03-1.9-.55-2.83-1.06a1.26 1.26 0 0 1-.37-1.9l.07-.08c1.45.94 3.6 1.55 5.52 2.53 2.16 1.1 6.43 1.33 8.44 1.38Zm13.28 8.35c4.04.7 11.58.19 15.77-.19l1.25.68s.03.7-1.37.75c-1.4.07-14.94.67-15.65.47-.22-.06-.17-.77 0-1.7Z"/></svg>