<svg xmlns="http://www.w3.org/2000/svg"  viewBox="0 0 242 214"><path fill="#252B36" d="M.12 118.5s2 40.93 36.66 67.21c34.66 26.28 82.1 26.8 120.51 28.23 38.42 1.43 67.53-21.19 71.43-54.16 3.9-32.97-25.59-41.72-42.11-78.62-16.53-36.9-15.32-49.23-49.36-71.2C103.2-12 50.78 3.7 23.83 43.93-3.13 84.15.13 118.5.13 118.5Z"/><path fill="#00F673" d="M210.23 176.27s-1.87-7.93-.47-14.94c1.4-7 4.68-2.33 8.42-7 3.75-4.67 1.88-13.53 6.09-17.27 4.2-3.73 10.3-3.27 11.7-10.27 1.4-7 2.34-12.6 5.14-11.67 2.81.94-2.34 9.34-2.34 14.47 0 5.14 2.81 8.4.94 13.54-1.87 5.13-9.83 3.27-9.83 9.34 0 6.06 3.28 12.13.47 16.34-2.8 4.2-10.3 5.13-11.23 7.46-.94 2.34-3.28 6.54-5.62 6.54-2.34 0-3.27-6.54-3.27-6.54Zm-1.53.09c.48-1.4-.46-13.54-4.67-15.88-4.21-2.33-8.9-1.4-11.23-5.6-2.34-4.2-2.34-6.07-4.68-6.53-2.34-.47-13.58-2.34-12.17 0 1.4 2.33 9.83-1.4 9.83 3.27 0 4.66-.94 12.13 1.87 14 2.8 1.87 10.3 1.4 9.83 5.6-.47 4.2-1.88 5.6.46 7 2.34 1.4 8.9 7.47 9.83 2.8l.94-4.66Z"/><path stroke="#404653" stroke-miterlimit="10" stroke-width="1.26" d="M213.91 186.65s-2.18-6.8 3.82-19.3 10.35-22.02 13.08-26.91m-21.8 47.3s-.82-3.27-3.54-12.24c-2.73-8.97-6-11.41-10.63-14.4-4.63-3-4.9-7.89-5.72-9.25"/><path fill="#00F673" d="M220.46 182.84s.54-4.89 4.9-6.25c4.36-1.36 8.45-.81 9.27-3.8.81-3 .81-5.98 2.72-7.62 1.91-1.63 4.36-2.44 4.63-1.63.28.82-2.72 1.36-2.72 4.08 0 2.72 4.09 9.51-1.9 12.23-6 2.72-10.9.28-13.09 2.18a80.03 80.03 0 0 0-3.54 3.26l-.27-2.45Z"/><path stroke="#404653" stroke-miterlimit="10" stroke-width="1.26" d="M219.91 187.74s1.9-7.07 6.54-8.7c4.63-1.63 9.81 1.9 12-1.36 2.17-3.26.54-6.53.26-8.7"/><path fill="#404653" d="M222.98 186.65h-16.9a1.36 1.36 0 1 0 0 2.72h.14l1.31 3.44c.21.54.74.9 1.32.9h11.36c.58 0 1.1-.36 1.31-.9l1.32-3.44h.14a1.36 1.36 0 1 0 0-2.72Z"/><path fill="#00F673" d="M153.08 110.64c-.47-.43-.7-.96-.7-1.6 0-.67.24-1.28.73-1.84a2.16 2.16 0 0 1 1.65-.84c.2 0 .4.04.6.1.2.08.39.19.57.33a9.84 9.84 0 0 0 6.14 2.23c1.67 0 2.94-.44 3.84-1.3.9-.88 1.34-2.17 1.34-3.87a5 5 0 0 0-1.44-3.81 5.03 5.03 0 0 0-3.6-1.37c-1.67 0-3.28.58-4.83 1.74a1.8 1.8 0 0 1-1.19.36c-.78 0-1.5-.26-2.17-.79-.67-.52-1-1.23-1-2.12V85.78c0-1.2.29-2.02.87-2.46.58-.44 1.56-.66 2.92-.66h12.83c.7 0 1.25.21 1.67.64.42.42.63 1 .63 1.74s-.22 1.31-.66 1.73c-.44.42-1.06.63-1.85.63h-10.98l-.1 8.1.63-.38a12.3 12.3 0 0 1 5.22-1.15c2.79 0 5.06.87 6.81 2.61 1.76 1.75 2.64 4.14 2.64 7.17 0 2.05-.5 3.86-1.52 5.42a9.68 9.68 0 0 1-4.09 3.55c-1.72.8-3.65 1.21-5.8 1.21-3.5 0-6.55-1.1-9.16-3.3Zm31.52 2.56a9.35 9.35 0 0 1-3.4-2.3 12.2 12.2 0 0 1-2.2-3.52c-.59-1.37-1-2.82-1.24-4.34a31.56 31.56 0 0 1-.36-4.95c0-1.74.12-3.36.36-4.87.24-1.5.65-2.94 1.23-4.31.57-1.38 1.3-2.55 2.18-3.51a9.41 9.41 0 0 1 3.39-2.3 12.1 12.1 0 0 1 4.69-.87c1.72 0 3.26.28 4.61.84a9.42 9.42 0 0 1 3.37 2.28 12.1 12.1 0 0 1 2.22 3.48c.59 1.37 1 2.81 1.26 4.33.24 1.52.37 3.16.37 4.93 0 1.76-.12 3.4-.37 4.92a18.55 18.55 0 0 1-1.23 4.35 12.24 12.24 0 0 1-2.2 3.52 9.5 9.5 0 0 1-3.38 2.32 12 12 0 0 1-4.65.86c-1.74 0-3.29-.29-4.66-.85Zm7.3-4.94a4.97 4.97 0 0 0 1.58-2.45 17 17 0 0 0 .72-3.42 47.8 47.8 0 0 0 .1-7.73 20.2 20.2 0 0 0-.44-2.96 8.52 8.52 0 0 0-.88-2.42 4.15 4.15 0 0 0-3.73-2.12c-.73 0-1.37.13-1.92.39-.55.25-1.02.63-1.39 1.14a7.5 7.5 0 0 0-.92 1.7 10.7 10.7 0 0 0-.58 2.24c-.13.86-.22 1.72-.27 2.57a49.76 49.76 0 0 0 0 5.8c.05.85.14 1.72.27 2.59.14.87.33 1.63.58 2.26.25.64.55 1.21.92 1.71s.84.89 1.39 1.15c.55.26 1.2.4 1.92.4 1.05 0 1.93-.29 2.64-.84Zm19.67 4.94a9.34 9.34 0 0 1-3.39-2.3 12.2 12.2 0 0 1-2.2-3.52c-.59-1.37-1-2.82-1.24-4.34a31.56 31.56 0 0 1-.36-4.95c0-1.74.12-3.36.36-4.87.24-1.5.65-2.94 1.23-4.31a12 12 0 0 1 2.18-3.51 9.41 9.41 0 0 1 3.39-2.3 12.1 12.1 0 0 1 4.69-.87c1.72 0 3.26.28 4.61.84a9.43 9.43 0 0 1 3.37 2.28c.89.95 1.63 2.12 2.22 3.48.59 1.37 1 2.81 1.25 4.33s.38 3.16.38 4.93c0 1.76-.12 3.4-.37 4.92a18.55 18.55 0 0 1-1.23 4.35 12.24 12.24 0 0 1-2.2 3.52 9.5 9.5 0 0 1-3.39 2.32c-1.36.57-2.9.86-4.64.86-1.73 0-3.29-.29-4.66-.85Zm7.3-4.94a4.97 4.97 0 0 0 1.59-2.45 17 17 0 0 0 .72-3.42 47.8 47.8 0 0 0 .1-7.73 20.2 20.2 0 0 0-.44-2.96 8.52 8.52 0 0 0-.88-2.42 4.15 4.15 0 0 0-3.73-2.12c-.73 0-1.37.13-1.92.39-.55.25-1.02.63-1.39 1.14a7.5 7.5 0 0 0-.92 1.7 10.7 10.7 0 0 0-.58 2.24c-.13.86-.23 1.72-.27 2.57a49.76 49.76 0 0 0 0 5.8c.04.85.14 1.72.27 2.59.14.87.33 1.63.58 2.26.25.64.56 1.21.92 1.71.37.5.84.89 1.39 1.15.55.26 1.2.4 1.92.4 1.05 0 1.93-.29 2.64-.84Z"/><path stroke="#404653" stroke-linecap="round" stroke-linejoin="round" stroke-miterlimit="10" stroke-width="2.51" d="M62.91 157.44s5.24-1.04 9.73 2.4c4.5 3.46 7.92 12.22 9.68 24.5 1.77 12.26 2.77 17.58 13.14 19.3 10.37 1.73 35.26 1.04 50.13.7 14.86-.35 14.17-14.14 1.73-15.52-12.45-1.38-21.06 1.93-34.04-.93-12.98-2.87 11.56-6.66 30.23-3.9 18.67 2.76 26.97 3.45 37 2.41"/><path stroke="#404653" stroke-linecap="round" stroke-linejoin="round" stroke-miterlimit="10" stroke-width="2.51" d="M62.91 139.08s10.08.08 12.85 10.42c2.76 10.35 3.8 24.83 4.14 36.21.35 11.38.7 21.04 13.83 23.8 13.14 2.76 48.75 1.72 58.43-.35s20.4-11.38 12.44-13.45c-7.95-2.07-19.01 0-14.86 2.76 4.14 2.76 15.2 2.07 28.34.35"/><path stroke="#404653" stroke-linecap="round" stroke-linejoin="round" stroke-miterlimit="10" stroke-width="2.51" d="M64.98 175.08s6.16-.54 8.56 6.4c2.41 6.95-.53 8.55.8 12.02 1.35 3.47 9.79.23 9.75 3.1-.04 2.63-3.37 3.36-22.59 2.24-25.12-1.48-41.75 2.4-40.4 4.8 1.33 2.4 21.4.54 16.58 4.27-4.81 3.74-16.59-.53-25.69-.8-9.1-.26-10.7 1.87-10.7 1.87"/><path fill="#404653" stroke="#404653" stroke-linecap="round" stroke-linejoin="round" stroke-miterlimit="10" stroke-width="1.26" d="M65.73 77.03H5.23c-1.08 0-1.96.87-1.96 1.95V193.3c0 1.08.88 1.96 1.96 1.96h60.5c1.08 0 1.95-.88 1.95-1.96V78.98c0-1.08-.87-1.95-1.95-1.95Z"/><path fill="#343A46" d="M66.11 94.74H4.81v45.29h61.3v-45.3Zm0 52.64H4.81v45.3h61.3v-45.3Z"/><path fill="#00F673" stroke="#404653" stroke-linecap="round" stroke-linejoin="round" stroke-miterlimit="10" stroke-width="1.26" d="M58.5 152.9H23.7v35.4h34.8v-35.4Zm0-53.1H23.7v8.73h34.8V99.8Zm0 16.78H23.7v8.73h34.8v-8.73Z"/><path fill="#404653" stroke="#404653" stroke-linecap="round" stroke-linejoin="round" stroke-miterlimit="10" stroke-width="1.26" d="m57.34 95.75-.67 1.84H25.84l-.67-1.84h-6.53v8.08h6.53l.67-1.84h30.83l.67 1.84h7.4v-8.08h-7.4Zm0 8.81-.67 1.84H25.84l-.67-1.84h-6.53v8.08h6.53l.67-1.83h30.83l.67 1.83h7.4v-8.08h-7.4Zm0 8.82-.67 1.83H25.84l-.67-1.83h-6.53v8.07h6.53l.67-1.83h30.83l.67 1.83h7.4v-8.07h-7.4Zm0 8.81-.67 1.83H25.84l-.67-1.83h-6.53v8.08h6.53l.67-1.84h30.83l.67 1.84h7.4v-8.08h-7.4Zm0 8.81-.67 1.84H25.84l-.67-1.84h-6.53v8.08h6.53l.67-1.84h30.83l.67 1.84h7.4V131h-7.4Zm0 17.63-.67 1.83H25.84l-.67-1.84h-6.53v8.08h6.53l.67-1.83h30.83l.67 1.83h7.4v-8.07h-7.4Zm0 8.81-.67 1.83H25.84l-.67-1.83h-6.53v8.07h6.53l.67-1.83h30.83l.67 1.83h7.4v-8.07h-7.4Zm0 8.81-.67 1.84H25.84l-.67-1.84h-6.53v8.08h6.53l.67-1.84h30.83l.67 1.84h7.4v-8.08h-7.4Zm0 8.81-.67 1.84H25.84l-.67-1.84h-6.53v8.08h6.53l.67-1.84h30.83l.67 1.84h7.4v-8.08h-7.4Zm0 8.81-.67 1.84H25.84l-.67-1.84h-6.53v8.08h6.53l.67-1.83h30.83l.67 1.83h7.4v-8.08h-7.4Z"/><path fill="#fff" d="M64.72 141.44H6.04v5.51h58.68v-5.51Z"/><g stroke="#404653" stroke-linecap="round" stroke-linejoin="round" stroke-miterlimit="10" stroke-width="1.26"><path fill="#404653" d="M11 144.13a1.54 1.54 0 1 0-3.1 0 1.54 1.54 0 0 0 3.1 0Z"/><path fill="#00F673" d="M14.6 145.68a1.54 1.54 0 1 0 0-3.1 1.54 1.54 0 0 0 0 3.1Z"/><path fill="#404653" d="M21.3 144.13a1.54 1.54 0 1 0-3.1 0 1.54 1.54 0 0 0 3.1 0Z"/></g><path fill="#fff" d="M64.72 88.56H6.04v5.52h58.68v-5.52Z"/><g stroke="#404653" stroke-linecap="round" stroke-linejoin="round" stroke-miterlimit="10" stroke-width="1.26"><path fill="#fff" d="M11 91.26a1.54 1.54 0 1 0-3.1 0 1.54 1.54 0 0 0 3.1 0Z"/><path fill="#00F673" d="M16.14 91.26a1.54 1.54 0 1 0-3.09 0 1.54 1.54 0 0 0 3.1 0Z"/><path fill="#fff" d="M21.3 91.26a1.54 1.54 0 1 0-3.1 0 1.54 1.54 0 0 0 3.1 0Z"/></g><path fill="#fff" d="M64.72 81.46H6.04v5.52h58.68v-5.52Z"/><g stroke="#404653" stroke-linecap="round" stroke-linejoin="round" stroke-miterlimit="10" stroke-width="1.26"><path fill="#00F673" d="M11 84.16a1.54 1.54 0 1 0-3.1 0 1.54 1.54 0 0 0 3.1 0Z"/><path fill="#404653" d="M16.14 84.16a1.54 1.54 0 1 0-3.09 0 1.54 1.54 0 0 0 3.1 0Zm5.16 0a1.54 1.54 0 1 0-3.1 0 1.54 1.54 0 0 0 3.1 0Z"/></g><path fill="#404653" stroke="#404653" stroke-linecap="round" stroke-linejoin="round" stroke-miterlimit="10" stroke-width="1.26" d="M15.87 95.89H6.2v4.14h9.68v-4.14Zm0 8.96H6.2V109h9.68v-4.14Z"/><path fill="#00F673" stroke="#404653" stroke-linecap="round" stroke-linejoin="round" stroke-miterlimit="10" stroke-width="1.26" d="M15.87 113.82H6.2v4.14h9.68v-4.14Zm0 8.97H6.2v4.13h9.68v-4.13Zm0 8.96H6.2v4.14h9.68v-4.14Zm0 16.78H6.2v4.14h9.68v-4.13Z"/><path fill="#404653" stroke="#404653" stroke-linecap="round" stroke-linejoin="round" stroke-miterlimit="10" stroke-width="1.26" d="M15.87 157.5H6.2v4.14h9.68v-4.14Z"/><path fill="#00F673" stroke="#404653" stroke-linecap="round" stroke-linejoin="round" stroke-miterlimit="10" stroke-width="1.26" d="M15.87 166.47H6.2v4.13h9.68v-4.13Z"/><path fill="#404653" stroke="#404653" stroke-linecap="round" stroke-linejoin="round" stroke-miterlimit="10" stroke-width="1.26" d="M15.87 175.43H6.2v4.14h9.68v-4.14Z"/><path fill="#00F673" stroke="#404653" stroke-linecap="round" stroke-linejoin="round" stroke-miterlimit="10" stroke-width="1.26" d="M15.87 184.4H6.2v4.14h9.68v-4.14Z"/><path fill="#fff" stroke="#404653" stroke-linecap="round" stroke-linejoin="round" stroke-miterlimit="10" stroke-width="1.26" d="M96.93 51.95s-9.27 2.35-11.85 5.87c-2.57 3.51-13 27.45-13 27.45s-3.4 3.78.26 7.43 10.98 5 13.7 1.76c2.7-3.25 6.63-18.52 7.18-20.28.54-1.76 4.6-16.63 5.01-17.44.4-.81.8-4.31-1.3-4.8Z"/><path fill="#404653" stroke="#404653" stroke-linecap="round" stroke-linejoin="round" stroke-miterlimit="10" stroke-width="1.26" d="M96.94 51.95s-9.28 2.35-11.85 5.87c-1.56 2.13-6 11.73-9.26 18.98 1.59-.32 8.19-1.3 15.92 2.6.75-2.6 1.3-4.64 1.47-5.22.54-1.76 4.6-16.63 5.02-17.44.4-.81.79-4.31-1.3-4.8Z"/><path fill="#fff" stroke="#404653" stroke-linecap="round" stroke-linejoin="round" stroke-miterlimit="10" stroke-width="1.26" d="M124.12 20.77s2.58 1.35 3.66 3.92c1.09 2.57 1.09 6.5 1.09 6.5s17.35-.55 23.99-.68c6.64-.14 11.11 1.48 11.25 4.73.13 3.24-1.36 9.6-5.02 12.03-3.66 2.43-15.04-1.49-20.87-3.1-5.83-1.63-7.86-1.09-12.06-1.63-4.2-.54-5.43-2.16-6.1-4.73-.68-2.57.67-7.44.67-11.36 0-3.92-.54-6.49 3.4-5.68Z"/><path fill="#fff" d="M149.47 37.4s-2.44 6.22-6.91 9.6c-3.21 2.43-7.54 3.81-9.73 4.4-7.81-2.19-18.85-3.23-25.3-1.8 0 0-9.02 2.15-10.6 2.35-1.56.2-5.28 12.7-6.07 21.3-.78 8.61 1.77 29.92 1.77 31.49 0 1.56.98 27.56 2.54 34.8a455.96 455.96 0 0 1 3.53 18.38c.2 1.36 1.57 11.53 1.57 14.85 0 3.33-1.57 11.34-1.57 11.34s-7.05 4.7-9.8 7.43c-2.74 2.74 2.02 5.62 5.5 6.26 5.9 1.09 12.93-4.7 12.93-4.7l7.84-3.12c2.08-.83 2.7-3.07 2.75-5.07l.37-14.48a184.16 184.16 0 0 1 3.03 15.53c.32 2.14.65 4.38 1.95 6.12a8.28 8.28 0 0 0 2.72 2.4c.78.37 1.6.3 2.39.74 1.45.84 2.04 2.64 3.45 3.54a18.46 18.46 0 0 0 10 2.56s7.83.39 8.22-3.91c.4-4.3-10.19-11.34-10.19-11.34s-1.57-28.55-2.74-37.93c-1.18-9.39-4.31-24.63-4.31-31.28 0-6.65 3.13-37.93 3.13-37.93l.81-2.17.52-.28c4.47-2.57 16.94-12.58 21-18.93 3.9-6.08 5.3-17.5 5.42-20.83"/><path stroke="#404653" stroke-linecap="round" stroke-linejoin="round" stroke-miterlimit="10" stroke-width="1.26" d="M149.47 37.4s-2.44 6.22-6.91 9.6c-3.21 2.43-7.54 3.81-9.73 4.4-7.81-2.19-18.85-3.23-25.3-1.8 0 0-9.02 2.15-10.6 2.35-1.56.2-5.28 12.7-6.07 21.3-.78 8.61 1.77 29.92 1.77 31.49 0 1.56.98 27.56 2.54 34.8a455.96 455.96 0 0 1 3.53 18.38c.2 1.36 1.57 11.53 1.57 14.85 0 3.33-1.57 11.34-1.57 11.34s-7.05 4.7-9.8 7.43c-2.74 2.74 2.02 5.62 5.5 6.26 5.9 1.09 12.93-4.7 12.93-4.7l7.84-3.12c2.08-.83 2.7-3.07 2.75-5.07l.37-14.48a184.16 184.16 0 0 1 3.03 15.53c.32 2.14.65 4.38 1.95 6.12a8.28 8.28 0 0 0 2.72 2.4c.78.37 1.6.3 2.39.74 1.45.84 2.04 2.64 3.45 3.54a18.46 18.46 0 0 0 10 2.56s7.83.39 8.22-3.91c.4-4.3-10.19-11.34-10.19-11.34s-1.57-28.55-2.74-37.93c-1.18-9.39-4.31-24.63-4.31-31.28 0-6.65 3.13-37.93 3.13-37.93l.81-2.17.52-.28c4.47-2.57 16.94-12.58 21-18.93 3.9-6.08 5.3-17.5 5.42-20.83"/><path fill="#404653" stroke="#404653" stroke-linecap="round" stroke-linejoin="round" stroke-miterlimit="10" stroke-width="1.26" d="M150.05 197.4c.4-4.3-10.2-11.33-10.2-11.33s-.11-2.2-.31-5.57a79.5 79.5 0 0 1-18.75 2.18l.53 3.28c.32 2.14.65 4.38 1.94 6.12a8.28 8.28 0 0 0 2.72 2.4c.78.37 1.61.3 2.4.74 1.44.84 2.04 2.64 3.44 3.54a18.46 18.46 0 0 0 10 2.56s7.84.39 8.23-3.91Zm-34.89-7.42c2.09-.83 2.7-3.07 2.76-5.07l.05-2.27a86.58 86.58 0 0 1-18.54-2.65c-.37 2.28-.73 4.12-.73 4.12s-7.06 4.7-9.8 7.43c-2.74 2.74 2.02 5.62 5.49 6.26 5.91 1.09 12.93-4.7 12.93-4.7l7.84-3.12Z"/><path fill="#fff" stroke="#404653" stroke-linecap="round" stroke-linejoin="round" stroke-miterlimit="10" stroke-width="1.26" d="M150.05 197.4v-.18a13.48 13.48 0 0 1-5.84 2.36c-6.2 1.1-11.83-2.06-13.35-3.44-1.51-1.37-2.48-2.47-4.82-3.98-2.34-1.5-4.46-5.22-4.46-5.22l-.09.13c.3 1.79.7 3.57 1.77 5a8.27 8.27 0 0 0 2.72 2.42c.78.36 1.61.28 2.4.73 1.44.84 2.04 2.64 3.45 3.54a18.45 18.45 0 0 0 9.99 2.56s7.84.39 8.23-3.91Zm-34.88-7.42c1.81-.73 2.52-2.52 2.7-4.3-1.8 1.08-5.98 3.5-8.62 4.56-3.44 1.37-5.78 5.5-12.53 5.5-4.8 0-7.44-1.89-8.56-2.97-.6 2.32 3.28 4.49 6.23 5.03 5.91 1.09 12.94-4.7 12.94-4.7l7.84-3.12Z"/><path fill="#404653" stroke="#404653" stroke-linecap="round" stroke-linejoin="round" stroke-miterlimit="10" stroke-width="1.26" d="M140.63 48.27a33.6 33.6 0 0 1-7.8 3.13c-7.82-2.19-18.86-3.23-25.31-1.8 0 0-9.02 2.15-10.58 2.35-1.57.2-5.3 12.7-6.08 21.3-.48 5.32.3 15.46.97 22.83 16.34 5.97 33.76 3.92 42.28 2.3.86-9.75 1.83-19.45 1.83-19.45l.81-2.17a16 16 0 0 0 .52-.28c3.04-1.75 9.76-6.93 15.04-12.06-10.59-3.06-11.87-11.4-11.69-16.15Z"/><path fill="#343A46" stroke="#404653" stroke-linecap="round" stroke-linejoin="round" stroke-miterlimit="10" stroke-width="1.26" d="M125.44 57.6c0-3.33-1.73-6.31-4.46-8.34-5-.48-9.92-.44-13.46.34 0 0-2.49.6-5.08 1.19a10.04 10.04 0 0 0-2.76 6.81c0 6.1 5.77 11.05 12.88 11.05 7.11 0 12.88-4.95 12.88-11.05Z"/><path fill="#00F673" stroke="#404653" stroke-linecap="round" stroke-linejoin="round" stroke-miterlimit="10" stroke-width="1.26" d="M121.58 186.94c1.68.62 4.8 1.47 9.17 1.28 6.76-.3 9.11-2.15 9.11-2.15s-1.57-28.55-2.74-37.93c-1.18-9.39-4.32-24.63-4.32-31.28 0-3.92 1.1-16.4 1.99-25.98l-.42.05a7.89 7.89 0 0 1-8.8-8.06l.18-6.24s-6.17.59-15.29-.44a107.82 107.82 0 0 1-18.52-4.1l-1 .3-.08.87c-.78 8.6 1.76 29.91 1.76 31.48 0 1.56.98 27.56 2.55 34.8 1.57 7.23 3.33 17 3.53 18.38.2 1.36 1.57 11.53 1.57 14.85 0 3.27-1.51 11.05-1.57 11.33 1.18.37 3.65 1.1 8.09 2.36 6.76 1.9 11.12-.4 11.12-.4 0-2.34.39-15.63.39-15.63s2.48 11.25 3.28 16.5Z"/><path fill="#00F673" stroke="#404653" stroke-linecap="round" stroke-linejoin="round" stroke-miterlimit="10" stroke-width="1.26" d="m99.19 80.32 17.6 2.89v10.82l-9.88 9.87-7.96-9.63.24-13.95Z"/><path fill="#00F673" d="M111.9 141.19c-1.27-7.15-2.22-14.19-2.22-19.25l-7.06-4.7"/><path stroke="#404653" stroke-linecap="round" stroke-linejoin="round" stroke-miterlimit="10" stroke-width="1.26" d="M111.9 141.19c-1.27-7.15-2.22-14.19-2.22-19.25l-7.06-4.7"/><path fill="#00F673" d="M118.3 170.43s-2.97-11.46-5.42-24l5.42 24Z"/><path stroke="#404653" stroke-linecap="round" stroke-linejoin="round" stroke-miterlimit="10" stroke-width="1.26" d="M118.3 170.43s-2.97-11.46-5.42-24"/><path fill="#00F673" d="M123.54 109.79c.15.59.39 1.2.73 1.8 2.17 3.86 5.3 4.34 5.3 4.34l.5-10.1"/><path stroke="#404653" stroke-linecap="round" stroke-linejoin="round" stroke-miterlimit="10" stroke-width="1.26" d="M123.54 109.79c.15.59.39 1.2.73 1.8 2.17 3.86 5.3 4.34 5.3 4.34l.5-10.1"/><path fill="#00F673" d="M124.27 103.9s-.52.92-.8 2.31l.8-2.31Z"/><path stroke="#404653" stroke-linecap="round" stroke-linejoin="round" stroke-miterlimit="10" stroke-width="1.26" d="M124.27 103.9s-.52.92-.8 2.31"/><path fill="#00F673" d="M132.91 134.65c.26 1.33.51 2.64.77 3.9l-.77-3.9Z"/><path stroke="#404653" stroke-linecap="round" stroke-linejoin="round" stroke-miterlimit="10" stroke-width="1.26" d="M132.91 134.65c.26 1.33.51 2.64.77 3.9"/><path fill="#00F673" d="M129.58 115.93s1.24 7.41 2.67 15.19l-2.67-15.2Z"/><path stroke="#404653" stroke-linecap="round" stroke-linejoin="round" stroke-miterlimit="10" stroke-width="1.26" d="M129.58 115.93s1.24 7.41 2.67 15.19"/><path fill="#fff" stroke="#404653" stroke-linecap="round" stroke-linejoin="round" stroke-miterlimit="10" stroke-width="1.26" d="m106.37 45.44-.1 5.77s-1.99 1.58-2.39 5.76c-.4 4.17 3.59 8.05 8.07 8.05s8.37-3.48 9.07-6.66c.7-3.18-.2-7.75-.2-7.75l-.3-6.96s-4.38 2.79-8.57 2c-4.18-.8-5.38-2.3-5.38-2.3l-.2 2.1Zm-3.12-15.04s-.27 3.3.45 4.1c.71.8 1.7 1.43 1.88.71.17-.71.27-4.46.44-5.26.18-.8-2.68-1.78-2.77.45Z"/><path fill="#fff" stroke="#404653" stroke-linecap="round" stroke-linejoin="round" stroke-miterlimit="10" stroke-width="1.26" d="M105 30.35s-.83 6.6-.83 9.77c0 3.16-1.24 4.4 2.76 6.46 4 2.07 7.45 2.34 10.2 1.38 2.76-.96 4.28-3.3 4.42-5.23.14-1.92.14-4.95.14-4.95s3.86-3.44 3.03-6.05c-.83-2.62-2.62.68-2.62.68s1.24-3.44 1.1-7.01c-.14-3.58-2.9-4-4-4s-7.86-2.06-11.03 0C105 23.48 105 30.36 105 30.36Z"/><path fill="#404653" stroke="#404653" stroke-linecap="round" stroke-linejoin="round" stroke-miterlimit="10" stroke-width="1.26" d="M122.1 32.41s1.24-3.43 1.1-7.01c-.14-3.58-2.9-4-4-4h-.07c-.58.98-1.3 2.48-1.3 2.48l.55.28s-.56 3.03.55 3.44c1.1.41.55 1.37.55 3.03 0 1.65.96 2.88 1.52 2.88.43 0 1.12-1.1 1.4-1.57-.19.27-.3.47-.3.47Z"/><path stroke="#404653" stroke-linecap="round" stroke-linejoin="round" stroke-miterlimit="10" stroke-width="1.26" d="M111.2 32.8s-1.15 1.08-.62 1.88c.54.8 2.5 1.25 3.04.27a1.66 1.66 0 0 0-.36-2.05"/><path fill="#404653" d="M109.96 31.74c0 .54-.22.98-.5.98-.27 0-.49-.44-.49-.98s.22-.98.5-.98c.27 0 .49.43.49.98Zm5.94.26c0 .55-.22.99-.5.99-.26 0-.48-.44-.48-.99 0-.54.22-.98.49-.98s.5.44.5.98Z"/><path stroke="#404653" stroke-linecap="round" stroke-linejoin="round" stroke-miterlimit="10" stroke-width="1.26" d="M114.43 29.33s1.87-1.25 3.66.71"/><g stroke="#404653" stroke-linecap="round" stroke-linejoin="round" stroke-miterlimit="10"><path fill="#fff" stroke-width=".92" d="M111.58 38.1s-.78-.41-1.53-.06-.89.95-.89.95-1.15.92.06 1.32c1.2.4 3.84.38 4.51.35.68-.04.9-.73.89-1.14-.02-.41-.28-.54-.28-.54s-.93-1.6-2.76-.87Z"/><path stroke-width="1.07" d="M108.9 39.34s2.46-.52 5.55.33"/></g><g stroke="#404653" stroke-linecap="round" stroke-linejoin="round" stroke-miterlimit="10" stroke-width="1.26"><path fill="#00F673" d="m102.65 22.78 14.76 2.07s6.2-1.65 6.76-2.9c.55-1.23-1.52-7.42-2.62-8.93-1.1-1.52-11.72 1.1-15.03 1.65-3.31.55-5.8 1.37-5.66 3.02.14 1.65 1.8 5.1 1.8 5.1Z"/><path fill="#fff" d="M102.65 22.78s-8.4 6.88-8.55 7.57c-.14.69 12.28.96 16.14.14 3.86-.83 7.17-5.64 7.17-5.64l-14.76-2.07Z"/></g><path fill="#fff" stroke="#404653" stroke-linecap="round" stroke-linejoin="round" stroke-miterlimit="10" stroke-width="1.26" d="m93.46 113.97 23.14-13.52a4.57 4.57 0 0 0 7.1-4.91l-4.82 2.82-1.12-1.9 4.83-2.82a4.56 4.56 0 0 0-7.77 3.78l-23.14 13.52a4.57 4.57 0 0 0-7.1 4.91l4.7-2.75 1.1 1.9-4.7 2.75a4.56 4.56 0 0 0 7.78-3.78Z"/><path fill="#fff" stroke="#404653" stroke-linecap="round" stroke-linejoin="round" stroke-miterlimit="10" stroke-width="1.26" d="M113.14 103.92s2.85 2.03 2.85 3.92c0 1.9-3.39 3.92-5.7 4.06-2.3.13-2.7-2.44-2.3-3.79.41-1.35 5.15-4.19 5.15-4.19Z"/><path fill="#fff" d="M83.33 87.02s15.72 8.8 17.89 8.52c2.17-.27 5.15-2.16 6.77-1.62 1.63.54 6.1 7.43 6.5 8.65.42 1.22-3.24 5.54-4.06 6.22-.81.68-3.39 3.38-3.93 3.65s-4.06 3.38-5.83 3.38c-1.76 0-4.74-1.35-5.01-2.03-.27-.67.4-1.62.4-1.62l-8.26-3.79s-15.72-8.51-18.43-12.84c-2.71-4.33 4.06-12.03 4.06-12.03"/><path stroke="#404653" stroke-linecap="round" stroke-linejoin="round" stroke-miterlimit="10" stroke-width="1.26" d="M83.33 87.02s15.72 8.8 17.89 8.52c2.17-.27 5.15-2.16 6.77-1.62 1.63.54 6.1 7.43 6.5 8.65.42 1.22-3.24 5.54-4.06 6.22-.81.68-3.39 3.38-3.93 3.65s-4.06 3.38-5.83 3.38c-1.76 0-4.74-1.35-5.01-2.03-.27-.67.4-1.62.4-1.62l-8.26-3.79s-15.72-8.51-18.43-12.84c-2.71-4.33 4.06-12.03 4.06-12.03"/><path stroke="#404653" stroke-linecap="round" stroke-linejoin="round" stroke-miterlimit="10" stroke-width="1.26" d="M101.49 108.25s1.63.13 1.9 1.9c.27 1.75-.41 4.86-.41 4.86m1.62-9.33s1.9.14 1.9 1.9v4.86m.14-11.63s3.52 2.57 3.8 4.06c.27 1.49 0 3.92 0 3.92"/><g fill="#fff" stroke="#404653" stroke-linecap="round" stroke-linejoin="round" stroke-miterlimit="10" stroke-width="1.26"><path d="M122.35 91.55c.79 0 2.89-5.24 2.89-7.2 0-1.97.92-16.37 3.02-23.05 1.5-4.79 2.8-8.5 3.42-10.2a62.9 62.9 0 0 0-5.08-1.08c-1.04 3.17-4.25 13.1-5.56 19.4a71.78 71.78 0 0 0-1.05 17.41c.13.79 1.57 4.72 2.36 4.72Z"/><path d="m124.61 80.96-4.52-.6a.67.67 0 0 1-.58-.76L120 76a.68.68 0 0 1 .76-.57l4.52.6c.37.04.63.38.58.75l-.48 3.6a.68.68 0 0 1-.76.58Z"/><path d="m123.64 79.9-2.33-.31a.67.67 0 0 1-.59-.76l.24-1.76a.67.67 0 0 1 .76-.58l2.33.31c.37.05.63.39.58.76l-.23 1.76a.68.68 0 0 1-.76.57Z"/></g><g fill="#fff" stroke="#404653" stroke-linecap="round" stroke-linejoin="round" stroke-miterlimit="10" stroke-width="1.26"><path d="M92.95 89.58c.79 0 2.89-5.24 2.89-7.2s.92-16.37 3.02-23.04a301.9 301.9 0 0 1 2.73-8.36c-2.05.46-4 .88-4.65.97-.49.06-1.17 1.28-1.91 3.2-.87 2.68-1.94 6.18-2.77 9.59a68.89 68.89 0 0 0-1.4 8.52 70.9 70.9 0 0 0 0 8.86c.12.78 1.3 7.46 2.1 7.46Z"/><path d="m95.41 76.85-4.53-.49a.67.67 0 0 1-.6-.74l.39-3.6a.68.68 0 0 1 .74-.6l4.53.48c.37.04.64.37.6.74l-.39 3.6a.68.68 0 0 1-.74.6Z"/><path d="m94.41 75.8-2.34-.24a.67.67 0 0 1-.6-.74l.2-1.77a.67.67 0 0 1 .73-.6l2.35.25c.37.04.64.38.6.75l-.2 1.76a.68.68 0 0 1-.74.6Z"/></g></svg>