<svg xmlns="http://www.w3.org/2000/svg"  viewBox="0 0 316 216"><path fill="#252B36" d="M43.6 158.62s16.64 39.1 58.83 51.86c42.18 12.76 87.15-4.25 123.93-17.05s56.12-45.56 47.92-79.08c-8.2-33.52-39.18-31.14-68.07-60.94-28.9-29.8-32.2-42.24-72.24-51.04-40.05-8.8-83.89 25.85-94.84 74.94-10.96 49.1 4.48 81.31 4.48 81.31Z"/><path fill="#fff" stroke="#404653" stroke-linecap="round" stroke-linejoin="round" stroke-miterlimit="10" stroke-width="1.05" d="M199.88 74.48s-1.13 4.78-1.13 5.6c0 .83-.16 1.49-.16 1.49s-2.4 2.96-2.08 3.79c.32.82 1.6 1.48 1.6 1.48s1.28 4.78 2.56 5.11c1.29.33 4.02.5 4.02.5l.47 3.96 6.42-1-1.6-5.93.64-5.11s1.12-2.14 0-5.6c-1.12-3.47-3.53-3.63-5.13-3.63s-5.62-.66-5.62-.66Z"/><path fill="#404653" stroke="#404653" stroke-linecap="round" stroke-linejoin="round" stroke-miterlimit="10" stroke-width="1.05" d="M202.76 72s-5.61-.16-5.45 1.32c.16 1.49 5.93 3.47 5.93 3.47s-1.92 1.32-.96 2.63c.96 1.32 3.2 2.48 3.2 2.48s-.63 2.8.33 2.97c.96.16 1.6-1.32 1.76-1.82.16-.5 1.93-.33 2.4 1 .49 1.3.49 2.13.49 2.13s1.92-5.93 2.25-8.57c.31-2.64-6.9-5.6-9.95-5.6Z"/><path fill="#fff" d="M206.32 84.92s1.94-4.38 3.1-2.23c1.16 2.16.69 4.41-.47 4.65-1.17.24-2.1.48-2.1.48"/><path stroke="#404653" stroke-linecap="round" stroke-linejoin="round" stroke-miterlimit="10" stroke-width="1.05" d="M206.32 84.92s1.94-4.38 3.1-2.23c1.16 2.16.69 4.41-.47 4.65-1.17.24-2.1.48-2.1.48"/><path fill="#404653" stroke="#404653" stroke-linecap="round" stroke-linejoin="round" stroke-miterlimit="10" stroke-width="1.05" d="M198.43 130.7c-.32.38-5.45 11.7-6.1 15.5-.64 3.8-4.8 26.38-4.97 27.37-.16 1-8.98 2.97-9.62 3.14-.64.16.64 1.97 2.57 2.47 1.92.5 7.38 2.8 8.66 1.48 1.28-1.32 3.04-8.74 3.53-9.56.48-.83 9.5-22.7 9.5-22.7s4.63-10.49 5.6-11.48c.95-.99-1.15-5.4-1.95-6.71-.8-1.32-4.97-2.15-7.22.5Z"/><path fill="#404653" stroke="#404653" stroke-linecap="round" stroke-linejoin="round" stroke-miterlimit="10" stroke-width="1.05" d="M197.47 130.87s2.25 11.04 3.37 15a31.82 31.82 0 0 0 4.65 9.24c1.28 1.81 7.54 17.8 7.54 17.8l.96 2.48s-.32.99-2.09 2.3c-1.76 1.32-6.73 3.47-5.45 3.96 1.28.5 6.42.5 8.82.33a8.25 8.25 0 0 0 5.45-2.63c.97-1.16-1.6-4.46-1.6-5.12 0-.66-5.61-20.77-5.93-21.76-.32-.99-1.93-8.08-1.93-8.08v-8.08s.8-1.49.8-4.78c0-3.3-2.4-3.96-2.4-3.96l-13.15 1.32.96 1.98Z"/><path fill="#00F673" stroke="#404653" stroke-linecap="round" stroke-linejoin="round" stroke-miterlimit="10" stroke-width="1.05" d="M196.34 129.88s.32 2.8 1.29 2.97c.96.16 10.9 2.96 15.23-.34 0 0 .8-2.47.32-3.13-.48-.66-1.6-.33-7.37-.33-5.78 0-9.47 0-9.47.83Z"/><path fill="#00F673" stroke="#404653" stroke-linecap="round" stroke-linejoin="round" stroke-miterlimit="10" stroke-width="1.05" d="M211.1 92.94s-5.94.83-8.5 3.47c-2.57 2.64-4.81 7.42-5.94 11.87-1.12 4.45-1.92 20.77-.31 21.6 1.6.82 15.07 1.65 17.32.66 2.24-1-.16-8.74-.16-11.7 0-2.98 2.56-13.03 2.08-18.64-.48-5.6-4.5-7.26-4.5-7.26Z"/><path fill="#404653" stroke="#404653" stroke-linecap="round" stroke-linejoin="round" stroke-miterlimit="10" stroke-width="1.05" d="M189.65 110.08c-.07-6.78-2.76-12.58-6.34-15.1l-.02-1.38-9.86.1c-5.56.07-9.99 7.53-9.9 16.66.1 9.14 4.68 16.5 10.24 16.45l9.86-.11v-1.39c3.52-2.6 6.1-8.44 6.02-15.23Z"/><path fill="#fff" stroke="#404653" stroke-linecap="round" stroke-linejoin="round" stroke-miterlimit="10" stroke-width="1.05" d="M194.11 110.03c-.07-7.13-2.74-13.22-6.5-15.86l-.02-1.46-4.22.05c-5.84.06-10.5 7.9-10.4 17.5.1 9.6 4.91 17.34 10.75 17.27l4.23-.04-.01-1.46c3.7-2.72 6.25-8.87 6.17-16Z"/><path fill="#343A46" stroke="#404653" stroke-linecap="round" stroke-linejoin="round" stroke-miterlimit="10" stroke-width="1.05" d="M198.34 109.99c.1 9.6-4.55 17.44-10.4 17.5-5.83.06-10.64-7.67-10.74-17.27-.1-9.6 4.55-17.44 10.4-17.5 5.83-.07 10.64 7.66 10.74 17.27Z"/><path fill="#252B36" stroke="#404653" stroke-linecap="round" stroke-linejoin="round" stroke-miterlimit="10" stroke-width="1.05" d="M195.93 109.69c.04 4.55-2.16 8.26-4.93 8.3-2.77.02-5.05-3.64-5.1-8.2-.04-4.54 2.16-8.26 4.93-8.29 2.77-.03 5.05 3.64 5.1 8.19Z"/><path fill="#404653" stroke="#404653" stroke-linecap="round" stroke-linejoin="round" stroke-miterlimit="10" stroke-width="1.05" d="M274.5 143.85c.87-5.57.7-12.75.7-12.75-2.17 1.03-14.81 1.4-15.97 1.44-1.16-.04-13.8-.4-15.97-1.44 0 0-.17 7.18.7 12.75.87 5.56 8.55 27.82 8.73 28.9.17 1.08.87 3.05.87 3.05s-4.36 3.23-6.28 4.49c-1.93 1.25-.53 1.8 1.4 1.8 1.91 0 5.93-.55 7.15-.55 1.08 0 2.96-.97 3.4-1.2.44.23 2.32 1.2 3.4 1.2 1.22 0 5.23.54 7.16.54 1.91 0 3.31-.54 1.4-1.8a203.26 203.26 0 0 1-6.3-4.48s.7-1.97.88-3.05c.17-1.08 7.86-23.34 8.73-28.9Z"/><path fill="#00F673" stroke="#404653" stroke-linecap="round" stroke-linejoin="round" stroke-miterlimit="10" stroke-width="1.05" d="M256.59 96.22s-6.75 2.27-10.24 4.55c-3.5 2.27-6.99 14.6-6.99 15.08 0 .48-.81 2.51-.81 2.51s-3.5-.84-4.2 2.15c-.69 3 3.5 6.82 5.71 6.94 2.21.12 2.91-.6 2.91-.6s-1.4 2.88-.81 4.07c.58 1.2 5.47 5.63 15.13 5.5 9.66-.11 16.64-1.79 17.7-3.22 1.04-1.44 1.16-4.43 1.16-4.43s3.6-.96 4.89-3.35c1.27-2.4 1.04-4.9.34-7.42-.7-2.51-4.3-9.81-6.75-13.88-2.44-4.07-7.56-6.34-10-7.06-2.45-.72-6.41-.84-8.04-.84Z"/><path fill="#fff" stroke="#404653" stroke-linecap="round" stroke-linejoin="round" stroke-miterlimit="10" stroke-width="1.05" d="M258.64 106.3c.97-.33 3.99-3.1 5.17-5.87.57-1.33.84-2.49.97-3.32l-.16-.05c-2.44-.72-6.4-.84-8.03-.84 0 0-1.41.48-3.27 1.21 0 1.03.14 2.66.8 4.33 1.07 2.77 3.55 4.87 4.52 4.54Z"/><path stroke="#404653" stroke-linecap="round" stroke-linejoin="round" stroke-miterlimit="10" stroke-width="1.05" d="M269.74 111.9s2.8 15.31 5.94 16.87m-32.71-1.91s3.5-13.53 3.73-14.84"/><path stroke="#404653" stroke-linecap="round" stroke-linejoin="round" stroke-miterlimit="10" stroke-width="1.05" d="M274.25 118.82s-1.93.44-1.93 1.88m-30.92-1.66s2.15 1.44 1.94 3.65"/><path fill="#00F673" stroke="#404653" stroke-linecap="round" stroke-linejoin="round" stroke-miterlimit="10" stroke-width="1.05" d="M255.83 181.54c1.08 0 2.96-.97 3.4-1.2.44.23 2.32 1.2 3.4 1.2 1.22 0 5.24.54 7.16.54s3.31-.54 1.4-1.8c-1.68-1.09-5.18-3.66-6.08-4.32-2.06 1.93-6.13 1.45-6.13 1.45s-1.23-.17-2.45-.53c-1.22-.36-2.97-1.08-2.97-1.08s-4.36 3.23-6.28 4.49c-1.92 1.25-.53 1.8 1.4 1.8 1.92 0 5.93-.55 7.15-.55Z"/><path stroke="#fff" stroke-linecap="round" stroke-linejoin="round" stroke-miterlimit="10" stroke-width="1.05" d="M258.98 175.87v-31.3"/><path stroke="#404653" stroke-linecap="round" stroke-linejoin="round" stroke-miterlimit="10" stroke-width="1.05" d="m259.23 180.34-.25-2.92v-1.55"/><path stroke="#fff" stroke-linecap="round" stroke-linejoin="round" stroke-miterlimit="10" stroke-width="1.05" d="M256.53 143.49h5.07"/><path fill="#404653" stroke="#404653" stroke-linecap="round" stroke-linejoin="round" stroke-miterlimit="10" stroke-width="1.05" d="M249.92 78.26s-3.63 2.24-3.09 4.2c.55 1.96 2.18 2.33 1.82 3.45-.37 1.12-1.64 1.78-.18 2.43 1.45.65 2.54.84 2.54.84s1.36 4.76 3.63 5.6c2.27.84 6.26.28 9.08-.1a4.76 4.76 0 0 0 4.08-3.54c.28-1.03-1.18.19-1.9-.93-.73-1.12.36-4.02 1.18-6.54.81-2.52-1.64-7.28-4.81-8.86-3.18-1.59-9.26-.75-12.35 3.45Z"/><path fill="#fff" stroke="#404653" stroke-linecap="round" stroke-linejoin="round" stroke-miterlimit="10" stroke-width="1.05" d="M256 94.54s-.8 2.76-.92 4.8c-.12 2.03 1.5 4.3 3.25 4.18 1.75-.12 3.27-3.71 3.5-5.5.23-1.8-.58-6.59-.58-6.59s-2.68.12-3.73 1.08c-1.05.96-1.51 2.03-1.51 2.03Z"/><path fill="#fff" stroke="#404653" stroke-linecap="round" stroke-linejoin="round" stroke-miterlimit="10" stroke-width="1.05" d="M253.64 80.87s.1 2.8 2.81 5.5a16.79 16.79 0 0 0 5.72 3.74s-.09 1.12-.45 1.78c-.36.65-.9.65-1.27.65h-.9s-1.33 3.21-2.96 3.68c-1.63.47-5.58.15-6.13-3.96-.54-4.1-.63-7.47-.18-8.3.46-.85 3.36-3.09 3.36-3.09ZM282.18 117s.74-1.52.74-2.76c0-1.25-2.26-3.03-2.7-3.48-.43-.45-.82-.4-.9.22-.1.63.34 1.43.78 1.87.43.45.66.78.7 1.08.03.3-.75 1.82-.36 2.8.4.98 1.52 1.3 1.74.27Z"/><path stroke="#404653" stroke-linecap="round" stroke-linejoin="round" stroke-miterlimit="10" stroke-width="3.14" d="M191.88 110s9.77 3.23 15.7 10.77c5.94 7.54 9.79 6.46 17.12 3.95 7.33-2.51 10.13-11.49 20.25-3.95 10.13 7.54 12.23 10.41 20.6 6.1 8.39-4.3 12.93-14.72 20.6-11.13 7.7 3.6 4.2 21.9 4.9 30.88.7 8.97-.35 31.23 1.4 34.1 1.74 2.88 19.55.72 19.55.72"/><path fill="#00F673" d="M210.26 98.02s-1.96-3.28-4.84-2.42c-3.04.9-4.62 5.38-5.35 8.17-.73 2.8-1.19 5.8-2.5 8.4 0 0-5.77-.1-8.99-1.06a74.76 74.76 0 0 1-7.25-2.72s-1.13-1.64-1.94-1.96c-.8-.32-2.9-.96-3.05-.46-.16.5 2.43 2.12 2.43 2.12s-4.8.71-5.28 1.21c-.48.5 3.39 2.1 3.39 2.1s1.44.49 4.96-.38c0 0 12.92 8.44 15.5 9.4 2.57.96 4.02 1.27 5.75-2.2 1.73-3.49 7.57-12.13 8.5-15.6"/><path stroke="#404653" stroke-linecap="round" stroke-linejoin="round" stroke-miterlimit="10" stroke-width="1.05" d="M210.26 98.02s-1.96-3.28-4.84-2.42c-3.04.9-4.62 5.38-5.35 8.17-.73 2.8-1.19 5.8-2.5 8.4 0 0-5.77-.1-8.99-1.06a74.76 74.76 0 0 1-7.25-2.72s-1.13-1.64-1.94-1.96c-.8-.32-2.9-.96-3.05-.46-.16.5 2.43 2.12 2.43 2.12s-4.8.71-5.28 1.21c-.48.5 3.39 2.1 3.39 2.1s1.44.49 4.96-.38c0 0 12.92 8.44 15.5 9.4 2.57.96 4.02 1.27 5.75-2.2 1.73-3.49 7.57-12.13 8.5-15.6"/><path fill="#fff" stroke="#404653" stroke-linecap="round" stroke-linejoin="round" stroke-miterlimit="10" stroke-width="1.05" d="M184.7 109.76c-1.88-.72-3.36-1.37-3.36-1.37s-1.14-1.64-1.95-1.96c-.8-.32-2.9-.96-3.05-.46-.16.5 2.43 2.11 2.43 2.11s-4.8.72-5.28 1.22c-.48.5 3.39 2.1 3.39 2.1s1.44.48 4.96-.38l1.81 1.17 1.05-2.43Zm49.79 8.5s-.74-1.52-.74-2.77 2.26-3.03 2.69-3.48c.43-.44.82-.4.91.22.09.63-.35 1.43-.78 1.88-.43.45-.67.77-.7 1.08-.04.3.74 1.82.35 2.8-.39.98-1.51 1.3-1.73.27Z"/><path fill="#fff" stroke="#404653" stroke-linecap="round" stroke-linejoin="round" stroke-miterlimit="10" stroke-width="1.05" d="M236.04 114.5s-1.86 3.53-.78 4.77c1.08 1.24 2.13-2.85 2.33-4 .2-1.13-.86-2.26-1.55-.77Z"/><path fill="#fff" stroke="#404653" stroke-linecap="round" stroke-linejoin="round" stroke-miterlimit="10" stroke-width="1.05" d="M237.57 115.73s-1.85 3.53-.78 4.77c1.08 1.25 2.13-2.85 2.33-4 .2-1.13-.86-2.26-1.55-.77Z"/><path fill="#fff" stroke="#404653" stroke-linecap="round" stroke-linejoin="round" stroke-miterlimit="10" stroke-width="1.05" d="M239.26 116.06s-1.86 3.53-.78 4.77c1.08 1.25 2.13-2.85 2.33-3.99.2-1.14-.86-2.26-1.55-.78Z"/><path fill="#fff" stroke="#404653" stroke-linecap="round" stroke-linejoin="round" stroke-miterlimit="10" stroke-width="1.05" d="M241.42 116.08s-1.73 2.78-.78 3.78 1.96-2.22 2.16-3.16c.2-.94-.74-1.85-1.38-.62Zm39.52-1.45s1.86 3.53.78 4.78c-1.08 1.24-2.13-2.86-2.33-4-.2-1.13.86-2.26 1.55-.78Z"/><path fill="#fff" stroke="#404653" stroke-linecap="round" stroke-linejoin="round" stroke-miterlimit="10" stroke-width="1.05" d="M279.4 115.86s1.86 3.53.78 4.78c-1.07 1.24-2.13-2.86-2.32-4-.2-1.13.85-2.26 1.54-.78Z"/><path fill="#fff" stroke="#404653" stroke-linecap="round" stroke-linejoin="round" stroke-miterlimit="10" stroke-width="1.05" d="M277.72 116.2s1.86 3.53.78 4.77c-1.08 1.25-2.13-2.85-2.33-4-.2-1.13.86-2.26 1.55-.77Z"/><path fill="#fff" stroke="#404653" stroke-linecap="round" stroke-linejoin="round" stroke-miterlimit="10" stroke-width="1.05" d="M275.56 116.22s1.73 2.77.78 3.78c-.95 1-1.96-2.22-2.16-3.16-.2-.94.73-1.85 1.38-.62ZM46.14 155.28v3.9s-1.95 2-2.75 5.19c-.8 3.19-3.33 16.87-2.64 17.23.69.35 6.93 1.83 8.94 1.52 2.3-.35 4.25-.24 3.1-1.53-1.15-1.3-7.22-4.95-7.22-4.95s6.66-9.91 8.15-13.57c1.5-3.66 1.72-9.32 1.72-9.32l-8.95-.35-.35 1.88Z"/><path fill="#404653" stroke="#404653" stroke-linecap="round" stroke-linejoin="round" stroke-miterlimit="10" stroke-width="1.05" d="M49.69 183.12c2.3-.35 4.25-.23 3.1-1.53s-7.22-4.95-7.22-4.95l-.23 1.42-4.37-.55c-.31 2.29-.46 3.97-.22 4.09.69.35 6.93 1.83 8.94 1.52Z"/><path fill="#fff" stroke="#404653" stroke-linecap="round" stroke-linejoin="round" stroke-miterlimit="10" stroke-width="1.05" d="m68.07 157.3 1.03 1.89s-1.38 2.24-.34 5.54c1.03 3.3 3.44 15.46 3.44 16.17 0 .7 1.5 1.18 2.64 1.18 1.15 0 4.44.23 4.9.23.46 0 3.8.59 4.94-.12 1.15-.7-1.46-2.12-3.18-2.94a145.9 145.9 0 0 1-5.51-2.95s.92-9.68.92-13.93.91-5.66-.35-8.26c-1.26-2.6-9.18 1.18-9.18 1.18l.69 2Z"/><path fill="#404653" stroke="#404653" stroke-linecap="round" stroke-linejoin="round" stroke-miterlimit="10" stroke-width="1.05" d="M81.5 179.25c-1.72-.83-5.51-2.95-5.51-2.95l-.46 1.77-3.68.68c.22 1.17.35 1.98.35 2.15 0 .7 1.5 1.18 2.64 1.18 1.15 0 4.45.23 4.9.23.47 0 3.8.6 4.94-.12 1.15-.7-1.46-2.12-3.18-2.94Z"/><path fill="#fff" stroke="#404653" stroke-linecap="round" stroke-linejoin="round" stroke-miterlimit="10" stroke-width="1.05" d="M61.89 78.76s-1.49-2.65-3.07-4.48c-1.59-1.84-6.54-1.73-8.72.7-2.17 2.45-1.48 6.73-.69 7.95.8 1.22 2.48 6.92 2.48 6.92l.4 4.07 9.2 3.36-1.88-6.62s3.56-.7 3.86-1.83c.3-1.12-.6-4.99-.6-4.99s1.2-.81 1.1-1.52c-.1-.72-2.08-3.56-2.08-3.56Z"/><path fill="#404653" stroke="#404653" stroke-linecap="round" stroke-linejoin="round" stroke-miterlimit="10" stroke-width="1.05" d="M51.3 83.13s1.57 1.35 2.43-.2c.86-1.55 1.5-3.1 1.5-4.43 0-1.33-3.23-2.44-1.07-3.32 2.16-.9 3.7 1.08 4.66-.9.94-1.99.08-2.2-5.1-2.2-5.16 0-7.75 2.65-6.67 5.98a44.75 44.75 0 0 0 3.23 7.09l1.01-2.02Z"/><path stroke="#404653" stroke-linecap="round" stroke-linejoin="round" stroke-miterlimit="10" stroke-width="1.05" d="M62.18 81.1a2.5 2.5 0 0 1-2.47 2.54 2.51 2.51 0 0 1-2.48-2.54c0-1.4 1.1-2.55 2.48-2.55a2.51 2.51 0 0 1 2.47 2.55Zm-.36-2.26c.28-.12.59-.19.9-.19a2.36 2.36 0 0 1 2.33 2.4c0 .9-.48 1.68-1.2 2.09m-6.62-2.04-5.94 2.03"/><path fill="#fff" d="M52.98 84.46s-1.2-2.55-2.38-2.04c-1.19.5-.6 4.48.6 4.89 1.18.4 2.27-.61 2.27-.61s1 2.13 2.18 2.74"/><path stroke="#404653" stroke-linecap="round" stroke-linejoin="round" stroke-miterlimit="10" stroke-width="1.05" d="M52.98 84.46s-1.2-2.55-2.38-2.04c-1.19.5-.6 4.48.6 4.89 1.18.4 2.27-.61 2.27-.61s1 2.13 2.18 2.74"/><path fill="#00F673" stroke="#404653" stroke-linecap="round" stroke-linejoin="round" stroke-miterlimit="10" stroke-width="1.05" d="m45.21 130.12-.74 9.75-2.21 14.43s5.17 4.18 9.97 4.18c4.8 0 6.16-.63 6.16-.63l2.7-14.81 2.71 15.56s5.3-.88 8.87-1.77c3.57-.88 6.9-3.29 6.9-3.29l-7.15-19.11-1.55-9.86s-8 .76-12.8 1.01c-4.8.26-11.2-1-11.2-1l-1.66 5.54Z"/><path fill="#00F673" stroke="#404653" stroke-linecap="round" stroke-linejoin="round" stroke-miterlimit="10" stroke-width="1.05" d="M50.29 91.2s11.34 4.08 14.83 8.02c1.94 2.2 4.1 17.2 4.88 20.87.78 3.67 2.15 11 2.15 11s-6.92 3.2-12.27 3.32c-5.35.12-15.61-2.4-15.61-2.4s1.22-16.27 1.22-23.84c0-7.56.11-12.5 1.34-14.9 0 0 2-2.3 3.46-2.06Z"/><path stroke="#404653" stroke-linecap="round" stroke-linejoin="round" stroke-miterlimit="10" stroke-width="1.05" d="M47.55 138.22s2.83-.75 3.7-4.3m-8.37 18.36s6.15 5.44 15.75 3.41m4.93-.25s10.1-1.14 14.53-4.18"/><path fill="#404653" stroke="#404653" stroke-linecap="round" stroke-linejoin="round" stroke-miterlimit="10" stroke-width="1.05" d="M108.71 86.31s-.97.75-4.36 3.3c-3.4 2.54-.72 6.4-.72 6.4s-2.43.39-5.67 3.89c-3.24 3.5 1.44 9.51 5.83 10.45 4.38.95 9.5-4.63 11.03-9.8 1.54-5.16-.49-12.96-1.51-14.57-1.02-1.61-4.6.33-4.6.33Z"/><path fill="#404653" stroke="#404653" stroke-linecap="round" stroke-linejoin="round" stroke-miterlimit="10" stroke-width="1.05" d="M121.57 85.59s1.7-2.69.16-6.57c-1.53-3.88-6.08-5.66-10.53-2.85-4.44 2.82-3.98 7.32-3.55 9.12.43 1.8 2.62 4.56 3.08 4.6.45.03 4.45 1.53 7.18.22 2.73-1.3 3.66-4.52 3.66-4.52Zm-19.62 90.46s3.17 5.07 8.66 5.93c5.48.87.55-4.2-.38-4.97-.93-.77-7.53-2.4-8.28-.96Zm29.3 1.35s6.05 1.52 5.59 2.86c-.47 1.34-5.4 1.25-8.28.48-2.89-.77-5.59-1.91-5.21-3.16.37-1.24 7.9-.19 7.9-.19Z"/><path fill="#00F673" stroke="#404653" stroke-linecap="round" stroke-linejoin="round" stroke-miterlimit="10" stroke-width="1.05" d="M114.06 95.68s-8.1 1.22-9.58 4.16c-1.48 2.93.6 18.96.6 18.96s-3.45 7.83-3.5 12.88c-.03 5.05 2.15 13.92 1.98 16.14-.17 2.22-2.4 27.4-2.4 28.11 0 .7 4.68 2.22 11.4 3.04 6.72.82 19.6-1.63 19.6-1.63s-.26-14.88.42-23.75c.68-8.88-.3-16.84-1.98-20.15-1.7-3.31-9.7-15.24-9.7-15.24s3.87-7.2 4.11-10.36c.24-3.15-1-4.78-3.93-8.42-2.92-3.65-7.02-3.74-7.02-3.74Z"/><path fill="#00F673" stroke="#404653" stroke-linecap="round" stroke-linejoin="round" stroke-miterlimit="10" stroke-width="1.05" d="M120.9 118.2s3.87-7.2 4.11-10.36c.24-3.15-1-4.78-3.93-8.43a9.53 9.53 0 0 0-.43-.5l-.1.1c-3 5.04-12.92 13.65-15.88 16.16.23 2.15.42 3.63.42 3.63s-3.46 7.83-3.5 12.88c-.02 1.92.29 4.4.66 6.85 7.01-4.15 16.4-11.81 21.46-16.1-1.58-2.41-2.8-4.23-2.8-4.23Z"/><path fill="#fff" stroke="#404653" stroke-linecap="round" stroke-linejoin="round" stroke-miterlimit="10" stroke-width="1.05" d="M112.56 89.8s.48 4.26.37 5.67c-.1 1.4.33 4.6 2.66 5.62 2.32 1 3.8-.4 3.8-1.81-.02-1.41-.66-3.46-.66-3.46l.07-3.87s-4.03-2.56-6.24-2.15Z"/><path fill="#fff" stroke="#404653" stroke-linecap="round" stroke-linejoin="round" stroke-miterlimit="10" stroke-width="1.05" d="M110.47 87.28s-1.71-1.55-1.77.68c-.05 2.23 1.95 2.98 2.4 3.13.44.15 1.04-.27 1.04-.27s3.1 2.72 5.6 2.92c2.5.2 3.51-1 4.1-5.66.58-4.65-4.09-9.38-4.09-9.38s-4 7.55-7.28 8.58Zm-38.16 43.68s-.04-1.39.37-2.32c.42-.94 2.7-1.47 3.17-1.65.48-.18.75-.01.61.48-.14.5-.73.95-1.2 1.13-.48.18-.77.34-.9.56-.12.21-.04 1.62-.66 2.22-.62.6-1.57.43-1.39-.42Z"/><path stroke="#404653" stroke-linecap="round" stroke-linejoin="round" stroke-miterlimit="10" stroke-width="3.14" d="M123.44 110.36s-8.03-1.08-11.53 4.66c-3.49 5.75-10.12 25.85-22.35 29.08-12.22 3.23-15.71-22.62-23.04-21.9-7 .69-11.88 0-16.07 7.9-2.24 4.23-13.44 50.41-18.74 50.89-16.86 1.5-27.71.52-27.71.52"/><path fill="#00F673" d="M50.8 91.53s-1.84-.76-4.3.76c-2.47 1.52-9.12 18.1-8.62 19.88.49 1.77 7.5 5.06 11.45 6.2 3.94 1.14 11.08 2.53 11.08 2.53s2.22 3.54 2.95 3.67c.74.13 3.2-.38 3.2-.38s1.36 1.14 1.85-.13c.5-1.26-.49-2.9-1.6-4.17-1.1-1.27-5.78-1.9-5.78-1.9L48.34 109l5.3-10.13"/><path stroke="#404653" stroke-linecap="round" stroke-linejoin="round" stroke-miterlimit="10" stroke-width="1.05" d="M50.8 91.53s-1.84-.76-4.3.76c-2.47 1.52-9.12 18.1-8.62 19.88.49 1.77 7.5 5.06 11.45 6.2 3.94 1.14 11.08 2.53 11.08 2.53s2.22 3.54 2.95 3.67c.74.13 3.2-.38 3.2-.38s1.36 1.14 1.85-.13c.5-1.26-.49-2.9-1.6-4.17-1.1-1.27-5.78-1.9-5.78-1.9L48.34 109l5.3-10.13"/><path fill="#fff" stroke="#404653" stroke-linecap="round" stroke-linejoin="round" stroke-miterlimit="10" stroke-width="1.05" d="M63.36 124.57c.74.13 3.2-.38 3.2-.38s1.36 1.14 1.85-.13c.5-1.26-.49-2.9-1.6-4.17-1.1-1.27-5.78-1.9-5.78-1.9L48.34 109l1.9-3.62c-4.75-3.04-7.9-2.81-9.6-2.2-1.7 4.19-2.99 8.17-2.76 8.98.49 1.78 7.5 5.07 11.45 6.2 3.94 1.15 11.08 2.54 11.08 2.54s2.22 3.54 2.95 3.67Z"/><path fill="#343A46" stroke="#404653" stroke-linecap="round" stroke-linejoin="round" stroke-miterlimit="10" stroke-width="1.05" d="M142.68 110.63c-.54-5.98-3.33-10.9-6.67-12.85l-.1-1.22-8.7.83c-4.91.47-8.3 7.38-7.56 15.44.72 8.06 5.28 14.22 10.19 13.75l8.7-.83-.11-1.22c2.93-2.56 4.79-7.91 4.25-13.9Z"/><path fill="#fff" stroke="#404653" stroke-linecap="round" stroke-linejoin="round" stroke-miterlimit="10" stroke-width="1.05" d="M146.62 110.26c-.57-6.29-3.36-11.47-6.87-13.52l-.11-1.28-3.73.35c-5.15.5-8.7 7.76-7.94 16.23.77 8.47 5.56 14.93 10.7 14.44l3.74-.35-.12-1.29c3.08-2.68 4.9-8.3 4.33-14.58Z"/><path fill="#fff" stroke="#404653" stroke-linecap="round" stroke-linejoin="round" stroke-miterlimit="10" stroke-width="1.05" d="M150.34 109.9c.77 8.47-2.79 15.74-7.94 16.23-5.15.49-9.94-5.98-10.7-14.45-.77-8.47 2.79-15.73 7.94-16.22 5.15-.5 9.94 5.97 10.7 14.44Z"/><path fill="#00F673" stroke="#404653" stroke-linecap="round" stroke-linejoin="round" stroke-miterlimit="10" stroke-width="1.05" d="m154.36 104.95-14.46 1.38a1.56 1.56 0 0 1-1.69-1.44 1.58 1.58 0 0 1 1.4-1.73l14.46-1.38a1.6 1.6 0 0 1 .3 3.17Zm1.07 11.79-14.47 1.38c-.85.08-1.6-.57-1.68-1.44a1.58 1.58 0 0 1 1.4-1.74l14.46-1.38c.85-.08 1.6.57 1.69 1.44.08.88-.55 1.66-1.4 1.74Z"/><path fill="#00F673" d="M109.05 96.8s-3.48.66-5.12 2.76c-1.65 2.1-5.03 17.92-4.25 19.75.77 1.82 13.28 4.13 17.14 4.44 3.87.3 9.3-.43 9.3-.43s3.31-.08 4.24-.24c.93-.16 2.6-1.09 2.63-1.44.02-.35-.14-1.18-1.4-1.28-1.24-.1-3.91-1.03-4.26-1.05-.34-.03 2.44-.51 2.44-.51s.17-.7-1.2-.69c-1.37.01-2.62-.09-3.14.7-.52.77-.95 1.91-.95 1.91s-7.7.56-11.88-1.55c-4.18-2.1-5.5-2.79-5.5-2.79l3-12.33"/><path stroke="#404653" stroke-linecap="round" stroke-linejoin="round" stroke-miterlimit="10" stroke-width="1.05" d="M109.05 96.8s-3.48.66-5.12 2.76c-1.65 2.1-5.03 17.92-4.25 19.75.77 1.82 13.28 4.13 17.14 4.44 3.87.3 9.3-.43 9.3-.43s3.31-.08 4.24-.24c.93-.16 2.6-1.09 2.63-1.44.02-.35-.14-1.18-1.4-1.28-1.24-.1-3.91-1.03-4.26-1.05-.34-.03 2.44-.51 2.44-.51s.17-.7-1.2-.69c-1.37.01-2.62-.09-3.14.7-.52.77-.95 1.91-.95 1.91s-7.7.56-11.88-1.55c-4.18-2.1-5.5-2.79-5.5-2.79l3-12.33"/><path fill="#fff" stroke="#404653" stroke-linecap="round" stroke-linejoin="round" stroke-miterlimit="10" stroke-width="1.05" d="M130.36 123.08c.93-.16 2.6-1.09 2.63-1.44.02-.35-.14-1.18-1.4-1.29-1.24-.1-3.92-1.02-4.26-1.04-.34-.03 2.44-.51 2.44-.51s.17-.7-1.2-.69c-1.37 0-2.62-.1-3.14.69-.52.78-.95 1.92-.95 1.92s-7.7.55-11.88-1.55c-4.18-2.1-5.5-2.8-5.5-2.8l1.83-7.51a25.52 25.52 0 0 0-7.45-1.9c-1.25 5.17-2.27 11.25-1.8 12.34.77 1.83 13.28 4.13 17.14 4.44 3.87.32 9.3-.42 9.3-.42s3.31-.08 4.24-.24Zm-56.33 6.56s-2.57 1.98-2.18 3.29c.4 1.31 2.55-1.38 3.07-2.16.53-.78.12-2-.89-1.13Z"/><path fill="#fff" stroke="#404653" stroke-linecap="round" stroke-linejoin="round" stroke-miterlimit="10" stroke-width="1.05" d="M74.54 131.41s-2.57 1.99-2.18 3.3c.4 1.3 2.54-1.39 3.07-2.17.53-.78.12-2-.9-1.13Z"/><path fill="#fff" stroke="#404653" stroke-linecap="round" stroke-linejoin="round" stroke-miterlimit="10" stroke-width="1.05" d="M75.76 132.56s-2.57 1.99-2.18 3.3c.4 1.3 2.55-1.39 3.08-2.17.52-.78.11-2-.9-1.13Z"/><path fill="#fff" stroke="#404653" stroke-linecap="round" stroke-linejoin="round" stroke-miterlimit="10" stroke-width="1.05" d="M76.77 133.5s-2.23 1.46-1.85 2.55c.37 1.08 2.2-.97 2.67-1.6.46-.64.07-1.65-.82-.95Z"/><path fill="#00F673" d="M125.17 32.81c5.06 0 8.78 1.02 11.17 3.06 2.43 2.03 3.64 4.75 3.64 8.16 0 2.21-.55 4.23-1.64 6.05a11.68 11.68 0 0 1-5.02 4.35c-2.22 1.07-4.97 1.6-8.25 1.6a29.2 29.2 0 0 1-7.48-.98 19.52 19.52 0 0 1-6.2-2.9l3.28-6.4a16.1 16.1 0 0 0 4.72 2.42c1.77.55 3.6.83 5.48.83 2.08 0 3.72-.41 4.91-1.24a3.98 3.98 0 0 0 1.8-3.47c0-1.55-.63-2.72-1.9-3.51-1.23-.8-3.38-1.2-6.45-1.2h-9.17l1.84-20.36h21.88v6.72h-14.96l-.56 6.87h2.91Zm33.55 23.22c-2.98 0-5.62-.74-7.94-2.22a15.08 15.08 0 0 1-5.49-6.41c-1.3-2.83-1.94-6.2-1.94-10.09 0-3.9.65-7.24 1.94-10.03a15.02 15.02 0 0 1 5.49-6.46 14.44 14.44 0 0 1 7.94-2.22c2.97 0 5.61.74 7.94 2.22a14.7 14.7 0 0 1 5.43 6.46c1.33 2.8 2 6.14 2 10.03 0 3.9-.67 7.26-2 10.09a14.68 14.68 0 0 1-5.43 6.4 14.44 14.44 0 0 1-7.94 2.23Zm0-7.08a5.8 5.8 0 0 0 5.12-2.85c1.26-1.9 1.9-4.82 1.9-8.79 0-3.96-.64-6.9-1.9-8.79a5.79 5.79 0 0 0-5.13-2.84c-2.15 0-3.85.95-5.12 2.84-1.23 1.9-1.84 4.83-1.84 8.8 0 3.96.61 6.89 1.84 8.78a5.87 5.87 0 0 0 5.13 2.85Zm45.88-.36v6.82h-27.1v-5.43l13.84-13.18a15.07 15.07 0 0 0 2.97-3.62c.51-1.04.77-2.05.77-3.05 0-1.45-.5-2.55-1.49-3.31-.95-.8-2.37-1.2-4.25-1.2-1.57 0-2.99.32-4.25.94a7.96 7.96 0 0 0-3.18 2.69l-6.04-3.93c1.4-2.1 3.33-3.74 5.79-4.91a18.95 18.95 0 0 1 8.45-1.81c2.66 0 4.99.44 6.97 1.34 2.01.86 3.57 2.1 4.66 3.72a9.47 9.47 0 0 1 1.69 5.64c0 1.96-.41 3.8-1.23 5.53-.82 1.72-2.4 3.69-4.76 5.9l-8.25 7.86h15.42Z"/></svg>