<svg xmlns="http://www.w3.org/2000/svg"  viewBox="0 0 242 214"><path fill="#252B36" d="M4.8 122.43s1.38 37.06 36.93 61.76c30.04 20.88 69.69 26.86 105.37 29.17 7.1.46 13.07.64 19.84.64 39.94 0 69.97-18.3 74.59-48 4.62-29.69-25.85-38.4-42.39-72.22-16.53-33.8-15.06-44.92-50.04-65.7-34.98-20.8-89.7-8.03-118.4 27.59C2.03 91.29 4.8 122.43 4.8 122.43Z"/><path stroke="#404653" stroke-miterlimit="10" stroke-width="1.08" d="M233.52 131.17H0"/><path fill="#00F673" d="M20.16 102.56 33.5 71.22h8v31.34h3.47v6.62H41.5v8.41h-7.2v-8.41H20.16v-6.62Zm14.14 0V85.14l-7.4 17.42h7.4Zm13.4-20.21c0-7.42 3.93-11.66 11.13-11.66 7.2 0 11.14 4.24 11.14 11.66v24.11c0 7.42-3.94 11.66-11.14 11.66-7.2 0-11.13-4.24-11.13-11.66v-24.1Zm7.33 24.58c0 3.3 1.47 4.57 3.8 4.57 2.34 0 3.8-1.26 3.8-4.57V81.89c0-3.31-1.46-4.57-3.8-4.57-2.33 0-3.8 1.26-3.8 4.57v25.04Zm17.94-4.37L86.3 71.22h8v31.34h3.47v6.62H94.3v8.41h-7.2v-8.41H72.97v-6.62Zm14.13 0V85.14l-7.4 17.42h7.4Z"/><g fill="#00F673"><path d="M219.96 13.3s0-2.89-4.08-6.94c-4.07-4.05-6.7-6.36-6.7-6.36s-2.03 6.65 1.75 10.7a71.46 71.46 0 0 0 9.03 7.81v-5.2Zm-5.91 18.07s0-2.9-4.08-6.94c-4.07-4.05-6.7-6.37-6.7-6.37s-2.03 6.66 1.75 10.7a71.3 71.3 0 0 0 9.03 7.82v-5.21Z"/><path d="M219.7 18.23s.31-2.87 4.8-6.47c4.48-3.6 7.33-5.63 7.33-5.63s1.32 6.83-2.87 10.46a71.7 71.7 0 0 1-9.8 6.82l.55-5.18Zm-7.14 21.34s.6-2.83 5.45-5.94c4.84-3.11 7.89-4.83 7.89-4.83s.59 6.93-3.97 10.1c-4.55 3.17-10.47 5.76-10.47 5.76l1.1-5.1Zm1.34 23.26s0-2.9 4.08-6.94c4.08-4.05 6.7-6.37 6.7-6.37s2.03 6.65-1.75 10.7c-3.79 4.05-9.03 7.81-9.03 7.81v-5.2Z"/><path d="M213.84 68.5s.4-2.86-3.05-7.44c-3.45-4.59-5.72-7.25-5.72-7.25s-2.96 6.3.2 10.84a71.3 71.3 0 0 0 7.82 9l.75-5.14Zm-4.02 16.83s0-2.89 4.07-6.94c4.08-4.05 6.7-6.36 6.7-6.36s2.04 6.65-1.75 10.7a70.72 70.72 0 0 1-9.02 7.8v-5.2Zm2.72 15.26s-.74-2.8 2.17-7.74c2.91-4.95 4.86-7.85 4.86-7.85s3.66 5.93 1.03 10.8a70 70 0 0 1-6.74 9.82l-1.32-5.03Z"/></g><path stroke="#404653" stroke-linecap="round" stroke-linejoin="round" stroke-miterlimit="10" stroke-width="1.08" d="M220.33 12.56c-.24 3.1-.6 6.3-1.12 8.99-1.6 8.27-5.64 13.6-7.25 21.07-1.6 7.47 3.02 17.1 1.78 26.7-1.24 9.59-5 14.93-3.92 21.33 1.07 6.4 6.7 23.74 6.7 23.74m3.15-94.23 4.4-3.35m-4.2-.51-1.84-3.25"/><path stroke="#404653" stroke-linecap="round" stroke-linejoin="round" stroke-miterlimit="10" stroke-width="1.08" d="M212.21 42.28s3.68-2.74 7.46-5.48m-5.62-.22s-3.06-5.97-6.54-9.93m6.54 40.29s2.86-5.58 7.86-10.45M213.34 71s-1.84-4.36-3.99-7.5c-2.14-3.15-2.45-3.56-2.45-3.56m2.92 30.71s1.47-3.71 3.3-6.66c1.85-2.94 4.3-5.58 4.3-5.58m-3.56 27.22s-.43-3.47 1.1-6.41c1.54-2.95 3.28-6.8 3.99-8.32"/><g fill="#00F673"><path d="M193.27 51.95s-.31-1.82 1.8-4.8c2.11-2.97 3.5-4.7 3.5-4.7s2 3.95.08 6.9c-1.94 2.94-4.81 5.86-4.81 5.86l-.57-3.26Zm5.68 10.69s-.31-1.82 1.8-4.8c2.12-2.97 3.5-4.7 3.5-4.7s2.01 3.94.08 6.9c-1.93 2.94-4.8 5.86-4.8 5.86l-.58-3.26Z"/><path d="M193.97 55.01s-.5-1.77-3.71-3.54c-3.2-1.78-5.22-2.74-5.22-2.74s-.08 4.43 2.95 6.25a46.32 46.32 0 0 0 6.9 3.22l-.92-3.19Zm6.81 12.61s-.69-1.71-4.06-3.14c-3.38-1.43-5.48-2.18-5.48-2.18s.39 4.41 3.6 5.91c3.2 1.5 7.19 2.48 7.19 2.48l-1.25-3.07Zm1.7 14.73s-.31-1.81-3.31-3.91-4.9-3.27-4.9-3.27-.55 4.39 2.27 6.52a45.65 45.65 0 0 0 6.51 3.92l-.57-3.26Z"/><path d="M203.15 85.9s-.58-1.75 1.09-5c1.66-3.24 2.8-5.16 2.8-5.16s2.54 3.63 1.05 6.82a45.27 45.27 0 0 1-3.91 6.5l-1.03-3.16Zm5.11 14.63s.21-1.82 3.09-4.1c2.87-2.26 4.7-3.53 4.7-3.53s.8 4.35-1.89 6.64-6.28 4.29-6.28 4.29l.38-3.3Zm-.76-4.51s-.31-1.81-3.31-3.91-4.9-3.27-4.9-3.27-.55 4.39 2.27 6.52a45.8 45.8 0 0 0 6.51 3.93l-.57-3.27Zm-.03 9.86s.15-1.83-2.21-4.62c-2.37-2.78-3.9-4.4-3.9-4.4s-1.66 4.12.52 6.89a45.48 45.48 0 0 0 5.3 5.43l.28-3.3Z"/></g><path stroke="#404653" stroke-linecap="round" stroke-linejoin="round" stroke-miterlimit="10" stroke-width="1.08" d="M192.96 51.52a52.54 52.54 0 0 0 1.68 5.51c1.91 5.02 5.02 7.93 6.85 12.44 1.82 4.51-.02 11.05 1.8 16.93 1.83 5.88 4.77 8.82 4.8 12.95.02 4.14-1.62 15.62-1.62 15.62M194.2 56.21l-3.11-1.62m2.57-.78.8-2.23"/><path stroke="#404653" stroke-linecap="round" stroke-linejoin="round" stroke-miterlimit="10" stroke-width="1.08" d="M201.3 69.28s-2.6-1.32-5.28-2.63m3.5-.75s1.27-4.07 3.02-6.93m.3 25.98s-2.4-3.2-6.07-5.71m6.96 8.17s.68-2.93 1.68-5.14c1-2.2 1.15-2.49 1.15-2.49m1.38 22.71s2.07-2.52 3.36-3.46c1.29-.95 2.18-1.89 2.18-1.89m-5.39 2.21s-1.34-2.16-2.8-3.81c-1.48-1.65-3.31-3.04-3.31-3.04m5.2 16.68s-.1-2.22-1.39-3.9c-1.28-1.68-2.8-3.9-3.4-4.79"/><g fill="#404653"><path d="M220.45 134.71H202.5c-.94 0-1.7-.75-1.7-1.68l-2.66-20.06h26.66l-2.67 20.06c0 .93-.76 1.68-1.7 1.68Z"/><path d="M224.57 116.42h-26.43a2.08 2.08 0 0 1-2.08-2.07c0-1.14.93-2.07 2.08-2.07h26.43c1.16 0 2.1.93 2.1 2.07 0 1.15-.94 2.07-2.1 2.07Z"/></g><path fill="#404653" d="M199.11 158.22a2.76 2.76 0 0 1-2.5-3.97c.28-.63 1.6-3.95-1.87-6.16-4.17-2.64-13.86-3.07-17.25-3.02h-.05a2.78 2.78 0 0 1-2.78-2.72 2.77 2.77 0 0 1 2.73-2.81c1.42-.03 14.02-.13 20.35 3.9 6.24 3.96 5.26 10.38 3.88 13.22a2.79 2.79 0 0 1-2.5 1.56Z"/><g fill="#fff" stroke="#404653" stroke-linecap="round" stroke-linejoin="round" stroke-miterlimit="10" stroke-width="1.08"><path d="m211.95 172.82-.6 2.07-9.3-15.19-.25-3.28 10.15 16.4Z"/><path d="m211.34 174.89 2.9-1.42.53-1.98-2.81 1.33-.62 2.07Zm-10.76-20.17 10.76-.36 3.42 17.13-2.8 1.33-11.38-18.1Zm-1.47.73 10.76 17.98-3.54 1.7-15.9-12.87 8.68-6.8Z"/><path d="m206.33 175.13-.49 1.82-16.02-12.63.62-2.07 15.89 12.88Z"/><path d="m206.33 175.13 3.54-1.7-.48 1.82-3.55 1.7.49-1.82Z"/></g><path fill="#00F673" stroke="#404653" stroke-linecap="round" stroke-linejoin="round" stroke-miterlimit="10" stroke-width="1.08" d="M195.77 158.1c0 3 2.44 5.42 5.46 5.42a5.44 5.44 0 0 0 5.45-5.42c0-3-2.44-5.42-5.45-5.42a5.44 5.44 0 0 0-5.46 5.42Z"/><g fill="#fff" stroke="#404653" stroke-linecap="round" stroke-linejoin="round" stroke-miterlimit="10" stroke-width="1.08"><path d="m86.3 172.82.62 2.07 9.29-15.19.24-3.28-10.15 16.4Zm.62 2.07-2.9-1.42-.53-1.98 2.81 1.33.62 2.07Z"/><path d="m97.68 154.72-10.76-.36-3.43 17.13 2.81 1.33 11.38-18.1Zm1.46.73-10.76 17.98 3.55 1.7 15.9-12.87-8.69-6.8Z"/><path d="m91.93 175.13.49 1.82 16.02-12.63-.61-2.07-15.9 12.88Z"/><path d="m91.93 175.13-3.55-1.7.5 1.82 3.54 1.7-.5-1.82Z"/></g><path fill="#404653" d="M97.38 160.06a2.75 2.75 0 0 1-1.76-4.91c22.14-17.9 17.63-44.6 17.58-44.87a2.78 2.78 0 0 1 5.48-.97c.22 1.22 5.11 30.2-19.55 50.13-.51.42-1.14.62-1.75.62Z"/><path fill="#343A46" stroke="#404653" stroke-linecap="round" stroke-linejoin="round" stroke-miterlimit="10" stroke-width="1.08" d="M118.96 113.49c6.02 0 10.9-4.85 10.9-10.84 0-5.98-4.88-10.84-10.9-10.84-6.03 0-10.9 4.86-10.9 10.84 0 5.98 4.87 10.84 10.9 10.84Z"/><path fill="#00F673" stroke="#404653" stroke-linecap="round" stroke-linejoin="round" stroke-miterlimit="10" stroke-width="1.08" d="M102.48 158.1c0 3-2.44 5.42-5.45 5.42a5.44 5.44 0 0 1-5.46-5.42c0-3 2.45-5.42 5.46-5.42a5.44 5.44 0 0 1 5.45 5.42Z"/><g stroke="#404653" stroke-linecap="round" stroke-linejoin="round" stroke-miterlimit="10" stroke-width="1.08"><path fill="#343A46" d="M148.17 147.27c9.56 0 17.3-7.18 17.3-16.04 0-8.85-7.74-16.03-17.3-16.03s-17.31 7.18-17.31 16.03c0 8.86 7.74 16.04 17.3 16.04Z"/><path fill="#404653" d="m139.15 124.38 1.61 6.27a6.93 6.93 0 0 0 13.55-1.67l.32-6.32-15.48 1.72Z"/></g><path fill="#404653" d="M173.27 92.85c-2.8 0-4.67-.6-4.83-.66l.45-1.31c.07.02 7.83 2.5 15.72-3.23l.82 1.12a20.48 20.48 0 0 1-12.16 4.08Zm8.7 10.4c-6.38-9.28-13.65-8.57-13.72-8.57l-.16-1.37c.34-.04 8.18-.8 15.03 9.16l-1.15.78Zm-1.62 6.55c-8.26-2.53-13.23-13.46-13.44-13.92l1.28-.57c.05.11 4.92 10.82 12.57 13.16l-.4 1.33Z"/><path stroke="#404653" stroke-miterlimit="10" stroke-width="1.08" d="m184.65 88.58 2.22-1.48m-4.95 14.53 1.49 2.95m-4.09 4.06s1.86.5 3.6.5"/><path fill="#fff" stroke="#404653" stroke-linecap="round" stroke-linejoin="round" stroke-miterlimit="10" stroke-width="1.08" d="m116.68 90.81 2.05 14.31 51.26-5.2-.19-14.87-53.12 5.76Zm2.05 14.31 9.17 23.05 39.47-3.9 2.62-24.35-51.26 5.2Z"/><path fill="#404653" d="m131.1 111.16 3.6 10.56a3.5 3.5 0 0 0 3.75 2.37l15.8-1.72a3.5 3.5 0 0 0 3.08-3.15l.98-11.1a2.47 2.47 0 0 0-2.74-2.67l-22.4 2.5a2.46 2.46 0 0 0-2.07 3.21Z"/><mask id="a" width="29" height="20" x="130" y="105" maskUnits="userSpaceOnUse" style="mask-type:luminance"><path fill="#fff" d="m131.1 111.16 3.6 10.56a3.5 3.5 0 0 0 3.75 2.37l15.8-1.72a3.5 3.5 0 0 0 3.08-3.15l.98-11.1a2.47 2.47 0 0 0-2.74-2.67l-22.4 2.5a2.46 2.46 0 0 0-2.07 3.21Z"/></mask><g mask="url(#a)"><path stroke="#fff" stroke-linecap="round" stroke-linejoin="round" stroke-miterlimit="10" stroke-width="1.08" d="m131.1 116.94 6.53-.57 2.06-5.59 4.88 8.7 2.48-6.48 1.24 2.05 11.82-1.4"/></g><path stroke="#404653" stroke-linecap="round" stroke-linejoin="round" stroke-miterlimit="10" stroke-width="1.08" d="m131.1 111.16 3.6 10.56a3.5 3.5 0 0 0 3.75 2.37l15.8-1.72a3.5 3.5 0 0 0 3.08-3.15l.98-11.1a2.47 2.47 0 0 0-2.74-2.67l-22.4 2.5a2.46 2.46 0 0 0-2.07 3.21Z"/><path fill="#fff" stroke="#404653" stroke-linecap="round" stroke-linejoin="round" stroke-miterlimit="10" stroke-width="1.08" d="M164.04 109.5a2.86 2.86 0 0 0 2.87-2.86 2.86 2.86 0 0 0-2.87-2.85 2.86 2.86 0 0 0-2.87 2.85 2.86 2.86 0 0 0 2.87 2.85Z"/><path fill="#00F673" stroke="#404653" stroke-linecap="round" stroke-linejoin="round" stroke-miterlimit="10" stroke-width="1.08" d="M166.38 115.55c0 1.48-1.2 2.68-2.7 2.68a2.68 2.68 0 1 1 0-5.35c1.5 0 2.7 1.2 2.7 2.67Zm-37.26-5.81a2.87 2.87 0 0 1-5.5 1.65 2.87 2.87 0 0 1 5.5-1.65Z"/><path fill="#fff" stroke="#404653" stroke-linecap="round" stroke-linejoin="round" stroke-miterlimit="10" stroke-width="1.08" d="M131.2 118.42a2.7 2.7 0 0 1-5.15 1.54 2.7 2.7 0 0 1 5.15-1.54Z"/><g stroke="#404653" stroke-linecap="round" stroke-linejoin="round" stroke-miterlimit="10" stroke-width="1.08"><path fill="#fff" d="M137.76 149.95c4.21 0 7.62-3.27 7.62-7.3 0-4.04-3.4-7.31-7.62-7.31-4.21 0-7.62 3.27-7.62 7.3 0 4.04 3.41 7.3 7.62 7.3Z"/><path fill="#404653" d="m126.55 159.04 6.98-15.58a3.01 3.01 0 0 1 5.69 1.87l-4.6 20.48-8.07-6.77Z"/><path fill="#00F673" d="m124.22 135.16 15.25 35.64-18.3 2.5s-10.94-11.06-18.3-32.09l21.35-6.06Z"/><path fill="#fff" d="m124.22 135.16.72-3.39 15.24 36.36-.71 2.67-15.25-35.64Z"/><path fill="#fff" d="m124.94 131.77-20.81 6.24-1.26 3.2 21.35-6.05.72-3.39Z"/></g><g stroke="#404653" stroke-linecap="round" stroke-linejoin="round" stroke-miterlimit="10" stroke-width="1.08"><path fill="#fff" d="M158.07 149.95c4.2 0 7.62-3.27 7.62-7.3 0-4.04-3.41-7.31-7.62-7.31s-7.63 3.27-7.63 7.3c0 4.04 3.42 7.3 7.63 7.3Z"/><path fill="#404653" d="m169.28 159.04-6.98-15.58a3.02 3.02 0 0 0-5.69 1.87l4.6 20.48 8.07-6.77Z"/><path fill="#00F673" d="m171.62 135.16-15.25 35.64 18.3 2.5s10.94-11.06 18.3-32.09l-21.35-6.06Zm-.01 0-.71-3.39-15.25 36.36.72 2.67 15.24-35.64Z"/><path fill="#00F673" d="m170.9 131.77 20.8 6.24 1.26 3.2-21.35-6.05-.72-3.39Z"/><path d="m191.53 144.6-21-6.41m19.38 10.15-21.17-5.7m19.56 9.62-21.35-5.7m19.02 10.52-20.81-6.06m18.6 9.88L163 155.47m18.48 8.93-20.27-4.83m17.64 8.19-18.9-4.45M177 170.5l-18.78-3.09"/></g><path fill="#00F673" stroke="#404653" stroke-linecap="round" stroke-linejoin="round" stroke-miterlimit="10" stroke-width=".54" d="m192.2 100.27-1.12 1.2.81 1.44-1.5-.69-1.12 1.21.2-1.63-1.5-.68 1.61-.33.2-1.63.8 1.44 1.62-.33Zm1.74-16.24-1.12 1.2.8 1.43-1.5-.68-1.11 1.2.19-1.62-1.5-.69 1.62-.32.19-1.63.8 1.43 1.63-.32Zm-18.09 28.43-1.12 1.2.81 1.44-1.5-.69-1.12 1.2.2-1.62-1.51-.69 1.62-.32.2-1.63.8 1.43 1.62-.32Z"/><path fill="#343A46" stroke="#404653" stroke-linecap="round" stroke-linejoin="round" stroke-miterlimit="10" stroke-width="1.08" d="M122.38 85.6c4.6 0 8.32-3.65 8.32-8.17a8.25 8.25 0 0 0-8.32-8.18 8.25 8.25 0 0 0-8.32 8.18 8.25 8.25 0 0 0 8.32 8.18Zm36.29-2.22c4.6 0 8.32-3.67 8.32-8.18a8.25 8.25 0 0 0-8.32-8.18 8.25 8.25 0 0 0-8.33 8.18 8.25 8.25 0 0 0 8.33 8.18Z"/><path fill="#00F673" stroke="#404653" stroke-linecap="round" stroke-linejoin="round" stroke-miterlimit="10" stroke-width="1.08" d="M141.93 102.33c5.78 0 10.47-4.45 10.47-9.94 0-5.5-4.69-9.94-10.47-9.94-5.8 0-10.48 4.45-10.48 9.94 0 5.5 4.69 9.94 10.48 9.94Z"/><path fill="#404653" stroke="#404653" stroke-linecap="round" stroke-linejoin="round" stroke-miterlimit="10" stroke-width="1.08" d="m134.26 87.28 1.44 6.31a6.93 6.93 0 0 0 13.6-1.3l.48-6.31-15.52 1.3Z"/><path fill="#fff" stroke="#404653" stroke-linecap="round" stroke-linejoin="round" stroke-miterlimit="10" stroke-width="1.08" d="m124.72 60.7-3.93 15.61 39.1-3.16-5.8-14.86-29.37 2.41Zm-3.93 15.61 6.92 17.1 30.68-2.97 1.5-17.29-39.1 3.16Z"/><g stroke="#404653" stroke-linecap="round" stroke-linejoin="round" stroke-miterlimit="10" stroke-width="1.08"><path fill="#00F673" d="M138.37 83.29c-.1 2.42-2.24 4.34-4.8 4.53-2.57.2-5.06-1.4-5.6-3.8-.62-2.76 1.48-5.46 4.75-5.67 3.25-.21 5.76 2.17 5.65 4.94Z"/><path fill="#fff" d="M136.41 83.42c.02 1.55-1.31 2.8-2.97 2.93-1.66.12-3.22-.94-3.48-2.47-.3-1.67 1.03-3.23 2.96-3.36 1.92-.13 3.48 1.23 3.5 2.9Z"/></g><g stroke="#404653" stroke-linecap="round" stroke-linejoin="round" stroke-miterlimit="10" stroke-width="1.08"><path fill="#00F673" d="M155.77 81.61c-.1 2.43-2.24 4.34-4.8 4.54-2.57.19-5.06-1.4-5.6-3.8-.63-2.76 1.48-5.47 4.75-5.68 3.25-.2 5.76 2.18 5.65 4.94Z"/><path fill="#fff" d="M153.81 81.75c.01 1.54-1.32 2.8-2.97 2.93-1.66.12-3.22-.94-3.48-2.47-.3-1.67 1.02-3.23 2.95-3.36 1.93-.13 3.49 1.23 3.5 2.9Z"/></g><path fill="#404653" stroke="#404653" stroke-linecap="round" stroke-linejoin="round" stroke-miterlimit="10" stroke-width="1.08" d="M138.56 90.34a1.39 1.39 0 0 1-.14-2.76l7.48-.75a1.39 1.39 0 1 1 .28 2.76l-7.48.74h-.14Z"/><g fill="#00F673" stroke="#404653" stroke-linecap="round" stroke-linejoin="round" stroke-miterlimit="10" stroke-width="1.08"><path d="M128.26 65.57a2.8 2.8 0 0 1-2.82 2.81 2.82 2.82 0 0 1-2.83-2.8 2.83 2.83 0 0 1 2.83-2.82 2.82 2.82 0 0 1 2.82 2.81Z"/><path d="M126.1 63.94a2.4 2.4 0 0 1-2.41 2.4 2.4 2.4 0 0 1-2.42-2.4 2.4 2.4 0 0 1 2.42-2.4 2.4 2.4 0 0 1 2.42 2.4Z"/><path d="M123.23 61.39a1.9 1.9 0 0 1-1.9 1.89 1.9 1.9 0 0 1-1.9-1.9 1.9 1.9 0 0 1 1.9-1.88c1.04 0 1.9.84 1.9 1.89Z"/></g><g fill="#00F673" stroke="#404653" stroke-linecap="round" stroke-linejoin="round" stroke-miterlimit="10" stroke-width="1.08"><path d="M150.37 63.63a2.82 2.82 0 0 0 2.83 2.81 2.82 2.82 0 0 0 2.83-2.8 2.82 2.82 0 0 0-2.83-2.81 2.82 2.82 0 0 0-2.83 2.8Z"/><path d="M152.53 62a2.4 2.4 0 0 0 2.42 2.4 2.4 2.4 0 0 0 2.41-2.4 2.4 2.4 0 0 0-2.41-2.4 2.4 2.4 0 0 0-2.42 2.4Z"/><path d="M155.41 59.45a1.9 1.9 0 0 0 1.9 1.89 1.9 1.9 0 0 0 1.9-1.9 1.9 1.9 0 0 0-1.9-1.88 1.9 1.9 0 0 0-1.9 1.89Z"/></g><path fill="#fff" stroke="#404653" stroke-linecap="round" stroke-linejoin="round" stroke-miterlimit="10" stroke-width="1.08" d="M151.44 161.9c0 1.36-.9 2.46-2.01 2.46-1.11 0-2.02-1.1-2.02-2.45s.9-2.45 2.02-2.45c1.11 0 2.01 1.1 2.01 2.45Z"/><path fill="#fff" stroke="#404653" stroke-miterlimit="10" stroke-width="1.08" d="m155.44 163.96-.16-.01-5.6-.82a1.04 1.04 0 1 1 .3-2.05l5.6.81a1.04 1.04 0 0 1-.15 2.07Z"/><path fill="#fff" stroke="#404653" stroke-linecap="round" stroke-linejoin="round" stroke-miterlimit="10" stroke-width="1.08" d="M77.16 173.37c-.73-1.15-.56-2.55.38-3.14.94-.6 2.29-.15 3.02 1 .73 1.14.56 2.54-.38 3.13-.94.6-2.3.15-3.02-1Z"/><path fill="#fff" stroke="#404653" stroke-miterlimit="10" stroke-width="1.08" d="m72.68 173.76.14-.07 5.16-2.3a1.04 1.04 0 0 1 .86 1.9l-5.17 2.3c-.53.23-1.15 0-1.38-.53a1.04 1.04 0 0 1 .4-1.3Z"/><path fill="#fff" stroke="#404653" stroke-linecap="round" stroke-linejoin="round" stroke-miterlimit="10" stroke-width="1.08" d="M210.9 147.1c-.72-1.14-.55-2.55.39-3.14.94-.6 2.29-.15 3.02 1 .73 1.14.56 2.54-.38 3.13-.94.6-2.3.15-3.02-1Z"/><path fill="#fff" stroke="#404653" stroke-miterlimit="10" stroke-width="1.08" d="m206.43 147.5.14-.08 5.17-2.3a1.04 1.04 0 1 1 .85 1.9l-5.17 2.3c-.53.23-1.14 0-1.38-.53a1.04 1.04 0 0 1 .4-1.3Zm-95.33 26.97c-2.36 0-4.27 1.13-4.27 2.5 0 1.4 1.91 2.52 4.27 2.52 2.35 0 4.26-1.13 4.26-2.51s-1.9-2.5-4.26-2.5Zm0 3.8c-1.22 0-2.2-.57-2.2-1.3 0-.7.98-1.29 2.2-1.29 1.22 0 2.2.58 2.2 1.3 0 .72-.98 1.3-2.2 1.3Z"/><path fill="#fff" stroke="#404653" stroke-linecap="round" stroke-linejoin="round" stroke-miterlimit="10" stroke-width="1.08" d="m149.5 174.87-2.9-1.15-2.92 1.15-.72 2.58 2.01 2.07h3.24l2.01-2.07-.72-2.58Zm-2.09 3.3h-1.64l-1.02-1.05.36-1.31 1.48-.59 1.48.59.37 1.3-1.03 1.06Zm57.31-40.76-2.92-1.14-2.91 1.14-.72 2.59 2.02 2.07h3.23l2.02-2.07-.72-2.59Zm-2.1 3.3h-1.64l-1.02-1.05.36-1.31 1.48-.58 1.48.58.37 1.31-1.03 1.05Zm-33.64 40.05a.67.67 0 0 1-.24-.04c-.1-.04-.6-.25-.96-.82-.32-.5-.6-1.38-.08-2.75a3.28 3.28 0 0 1 2.28-2.07c1.28-.33 2.79 0 3.85.88.3.24.34.68.1.97a.7.7 0 0 1-.98.1 3.08 3.08 0 0 0-2.61-.61 1.9 1.9 0 0 0-1.33 1.21c-.52 1.38.1 1.74.24 1.8a.7.7 0 0 1 .37.9.69.69 0 0 1-.64.43Z"/><path fill="#fff" stroke="#404653" stroke-linecap="round" stroke-linejoin="round" stroke-miterlimit="10" stroke-width="1.08" d="M183.37 183.3c-.21 0-.43-.03-.65-.1l-11.32-3.66a2.07 2.07 0 1 1 1.29-3.94l11.33 3.66a2.07 2.07 0 0 1-.65 4.05Z"/><path stroke="#404653" stroke-linecap="round" stroke-linejoin="round" stroke-miterlimit="10" stroke-width="1.08" d="M171.06 179.44s.44-2.85 4.04-2.94m-1.62 3.57s.45-2.86 4.05-2.95m-1.89 3.75s.45-2.86 4.04-2.94m-1.79 3.57s.45-2.86 4.04-2.95m-1.8 3.75s.45-2.86 4.05-2.95"/><path fill="#fff" stroke="#404653" stroke-linecap="round" stroke-linejoin="round" stroke-miterlimit="10" stroke-width="1.08" d="M183.36 183.26a.67.67 0 0 1-.24-.04 2.1 2.1 0 0 1-.96-.81c-.32-.5-.6-1.39-.07-2.76a3.28 3.28 0 0 1 2.27-2.06c1.28-.34 2.8 0 3.86.87a.7.7 0 0 1-.89 1.07 3.08 3.08 0 0 0-2.6-.6 1.9 1.9 0 0 0-1.34 1.2c-.52 1.38.1 1.74.24 1.8a.7.7 0 0 1-.26 1.33Z"/></svg>