<svg xmlns="http://www.w3.org/2000/svg"  viewBox="0 0 284 216"><path fill="#252B36" d="M67.62 189.09s30.71 13.77 65.82-.75c35.1-14.52 46.5-42.67 64.71-63.81 9.54-11.07 25.15-17.25 37.06-26.55 38.07-29.78 24.34-79.55-10.5-93.2-30.15-11.83-52.4 6.14-95.57 26.16-43.17 20.02-86.86 19.2-109.52 59.09-22.67 39.89 9.81 79.75 48 99.06Z"/><path fill="#00F673" d="M246.08 195.4s-2.06-8.92-.52-16.8c1.55-7.86 5.16-2.61 9.28-7.86 4.13-5.25 2.07-15.21 6.7-19.4 4.65-4.2 11.35-3.68 12.9-11.55 1.55-7.87 2.58-14.16 5.67-13.11 3.1 1.05-2.57 10.49-2.57 16.26 0 5.77 3.09 9.44 1.03 15.21-2.07 5.77-10.83 3.67-10.83 10.5 0 6.81 3.6 13.63.51 18.35-3.1 4.72-11.34 5.77-12.37 8.4-1.03 2.62-3.61 7.34-6.2 7.34-2.57 0-3.6-7.35-3.6-7.35Zm-1.68.09c.52-1.58-.52-15.22-5.16-17.84-4.64-2.62-9.8-1.57-12.37-6.3-2.58-4.71-2.58-6.81-5.16-7.34-2.58-.52-14.95-2.62-13.4 0 1.54 2.63 10.82-1.57 10.82 3.68 0 5.24-1.03 13.63 2.07 15.73 3.1 2.1 11.34 1.58 10.83 6.3-.52 4.72-2.07 6.3.51 7.87 2.58 1.57 9.8 8.39 10.83 3.14l1.03-5.24Z"/><path stroke="#404653" stroke-miterlimit="10" stroke-width="1.23" d="M250.14 207.05s-2.4-7.64 4.2-21.69c6.61-14.05 11.41-24.74 14.42-30.24m-24.03 53.16s-.9-3.67-3.9-13.75-6.6-12.83-11.71-16.19c-5.1-3.36-5.4-8.86-6.3-10.38"/><path fill="#00F673" d="M257.35 202.78s.6-5.5 5.4-7.03c4.8-1.53 9.31-.92 10.21-4.28.9-3.36.9-6.72 3-8.55 2.1-1.83 4.81-2.75 5.11-1.83.3.91-3 1.52-3 4.58 0 3.05 4.5 10.69-2.1 13.74-6.61 3.06-12.02.31-14.42 2.45a88.97 88.97 0 0 0-3.9 3.66l-.3-2.75Z"/><path stroke="#404653" stroke-miterlimit="10" stroke-width="1.23" d="M256.75 208.27s2.1-7.94 7.2-9.77c5.1-1.83 10.81 2.14 13.22-1.53 2.4-3.66.6-7.33.3-9.77"/><path fill="#404653" d="M260.12 207.05H241.5c-.82 0-1.5.69-1.5 1.53 0 .84.68 1.53 1.5 1.53h.16l1.44 3.86c.24.62.81 1.02 1.46 1.02h12.5c.65 0 1.23-.4 1.46-1.02l1.45-3.86h.15c.83 0 1.5-.69 1.5-1.53 0-.84-.67-1.53-1.5-1.53Z"/><path fill="#00F673" d="M192.68 64.22a4.12 4.12 0 0 1-.97-2.92v-3.66h-12.47a3.65 3.65 0 0 1-2.56-.88 2.92 2.92 0 0 1-.96-2.25c0-.65.17-1.31.51-1.99l11.2-19.83a6.48 6.48 0 0 1 6-3.53c1.8 0 3.18.43 4.13 1.3.94.87 1.42 2.37 1.42 4.5v17.16h2.57c.9 0 1.6.24 2.12.71.53.47.79 1.16.79 2.05 0 .87-.24 1.54-.72 2.03-.49.5-1.22.73-2.2.73h-2.59v3.59a4.3 4.3 0 0 1-.95 2.96 3.42 3.42 0 0 1-2.69 1.07c-1.1 0-1.99-.35-2.63-1.04Zm-.97-12.1V35.58l-8.87 16.54h8.88Zm23.59 12.74a10.73 10.73 0 0 1-3.88-2.7 14.33 14.33 0 0 1-2.53-4.12c-.67-1.6-1.15-3.3-1.42-5.09a37.75 37.75 0 0 1-.42-5.78c0-2.04.14-3.94.42-5.7.27-1.76.74-3.44 1.4-5.05a14.1 14.1 0 0 1 2.51-4.1 10.8 10.8 0 0 1 3.89-2.7 13.65 13.65 0 0 1 5.38-1.01c1.97 0 3.74.33 5.3.98a10.8 10.8 0 0 1 3.86 2.66 14.24 14.24 0 0 1 2.54 4.08c.68 1.6 1.16 3.3 1.45 5.07.28 1.77.42 3.7.42 5.77 0 2.06-.13 3.98-.41 5.76a22.14 22.14 0 0 1-1.42 5.09 14.38 14.38 0 0 1-2.53 4.12 10.88 10.88 0 0 1-3.88 2.7 13.23 13.23 0 0 1-5.33 1.01c-1.99 0-3.77-.33-5.34-.99Zm8.38-5.79a5.81 5.81 0 0 0 1.82-2.87c.4-1.26.68-2.6.84-4a58.12 58.12 0 0 0 .11-9.04 24.1 24.1 0 0 0-.5-3.47c-.26-1.15-.6-2.1-1.02-2.83a4.69 4.69 0 0 0-4.28-2.48c-.83 0-1.56.15-2.2.45a4.1 4.1 0 0 0-1.6 1.33 8.8 8.8 0 0 0-1.06 1.99c-.28.74-.5 1.61-.66 2.62a32.3 32.3 0 0 0-.31 3.02 59.8 59.8 0 0 0 0 6.77c.05 1 .16 2.02.31 3.04.16 1.02.38 1.9.66 2.65.29.75.65 1.41 1.07 2 .42.6.95 1.04 1.59 1.35.64.3 1.37.46 2.2.46 1.2 0 2.22-.33 3.03-.99Zm22.59 5.79a10.72 10.72 0 0 1-3.9-2.7 14.31 14.31 0 0 1-2.52-4.12c-.67-1.6-1.15-3.3-1.42-5.09a37.62 37.62 0 0 1-.42-5.78c0-2.04.14-3.94.42-5.7a22.6 22.6 0 0 1 1.4-5.05 14.1 14.1 0 0 1 2.51-4.1 10.79 10.79 0 0 1 3.9-2.7 13.6 13.6 0 0 1 5.37-1.01c1.97 0 3.74.33 5.3.98a10.8 10.8 0 0 1 3.86 2.66 14.22 14.22 0 0 1 2.54 4.08c.68 1.6 1.16 3.3 1.45 5.07.28 1.77.43 3.7.43 5.77 0 2.06-.14 3.98-.42 5.76a22.14 22.14 0 0 1-1.42 5.09 14.38 14.38 0 0 1-2.53 4.12 10.88 10.88 0 0 1-3.88 2.7 13.23 13.23 0 0 1-5.33 1.01c-1.99 0-3.77-.33-5.34-.99Zm8.37-5.79a5.82 5.82 0 0 0 1.82-2.87c.4-1.26.68-2.6.84-4a57.44 57.44 0 0 0 .1-9.04 24.1 24.1 0 0 0-.5-3.47 9.98 9.98 0 0 0-1.01-2.83 4.69 4.69 0 0 0-4.28-2.48c-.83 0-1.57.15-2.2.45a4.1 4.1 0 0 0-1.6 1.33 8.8 8.8 0 0 0-1.06 1.99c-.28.74-.5 1.61-.66 2.62a32.29 32.29 0 0 0-.31 3.02 60.45 60.45 0 0 0 0 6.78c.05 1 .16 2.01.31 3.03.16 1.02.38 1.9.66 2.65a8.7 8.7 0 0 0 1.07 2c.42.6.95 1.04 1.59 1.35.63.3 1.37.46 2.2.46 1.2 0 2.22-.33 3.03-.99Z"/><path stroke="#00F673" stroke-linecap="round" stroke-linejoin="round" stroke-miterlimit="10" stroke-width="1.23" d="M60.2 78.46c10.9 0 19.73-8.98 19.73-20.07S71.09 38.32 60.2 38.32c-10.9 0-19.74 8.98-19.74 20.07S49.3 78.46 60.2 78.46Z"/><path stroke="#00F673" stroke-linecap="round" stroke-linejoin="round" stroke-miterlimit="10" stroke-width="1.23" d="M62.74 74.82c8.92-1.43 15.01-9.95 13.6-19.02a16.37 16.37 0 0 0-18.69-13.84c-8.92 1.43-15.01 9.94-13.6 19.02a16.39 16.39 0 0 0 18.7 13.84Z"/><path stroke="#00F673" stroke-linecap="round" stroke-linejoin="round" stroke-miterlimit="10" stroke-width="1.23" d="M49.77 58.4H60.2v15.3"/><path fill="#404653" stroke="#404653" stroke-linecap="round" stroke-linejoin="round" stroke-miterlimit="10" stroke-width="1.23" d="M151.12 211.63a3.34 3.34 0 0 1 3.31-3.37c1.83 0 3.3 1.51 3.3 3.37a3.34 3.34 0 0 1-3.3 3.37 3.33 3.33 0 0 1-3.3-3.37Z"/><path fill="#fff" stroke="#404653" stroke-linecap="round" stroke-linejoin="round" stroke-miterlimit="10" stroke-width="1.23" d="M152.78 211.63c0-.93.74-1.68 1.65-1.68.91 0 1.66.75 1.66 1.68 0 .93-.75 1.69-1.66 1.69-.91 0-1.65-.76-1.65-1.69Z"/><path fill="#404653" stroke="#404653" stroke-linecap="round" stroke-linejoin="round" stroke-miterlimit="10" stroke-width="1.23" d="M115.68 211.63a3.34 3.34 0 0 1 3.3-3.37 3.34 3.34 0 0 1 3.32 3.37 3.34 3.34 0 0 1-3.31 3.37 3.34 3.34 0 0 1-3.31-3.37Z"/><path fill="#fff" stroke="#404653" stroke-linecap="round" stroke-linejoin="round" stroke-miterlimit="10" stroke-width="1.23" d="M117.34 211.63c0-.93.74-1.68 1.65-1.68.91 0 1.65.75 1.65 1.68 0 .93-.74 1.69-1.65 1.69-.91 0-1.65-.76-1.65-1.69Z"/><path fill="#404653" stroke="#404653" stroke-linecap="round" stroke-linejoin="round" stroke-miterlimit="10" stroke-width="1.23" d="M104.1 211.63a3.34 3.34 0 0 1 3.31-3.37c1.83 0 3.3 1.51 3.3 3.37a3.34 3.34 0 0 1-3.3 3.37 3.33 3.33 0 0 1-3.3-3.37Z"/><path fill="#fff" stroke="#404653" stroke-linecap="round" stroke-linejoin="round" stroke-miterlimit="10" stroke-width="1.23" d="M105.76 211.63c0-.93.74-1.68 1.65-1.68.92 0 1.66.75 1.66 1.68 0 .93-.74 1.69-1.66 1.69-.91 0-1.65-.76-1.65-1.69Z"/><path fill="#404653" stroke="#404653" stroke-linecap="round" stroke-linejoin="round" stroke-miterlimit="10" stroke-width="1.23" d="M124.12 207.78h7v-36.42a.02.02 0 0 0-.02-.02h-6.96a.02.02 0 0 0-.02.02v36.42Z"/><path fill="#404653" stroke="#404653" stroke-linecap="round" stroke-linejoin="round" stroke-miterlimit="10" stroke-width="1.23" d="M122.25 207.78h10.73v-25.73h-10.72v25.73Zm12.53-42.54h8.96c.01 0 .02-.01.02-.03v-19.58h-9v19.58c0 .02.01.03.02.03Z"/><path fill="#00F673" stroke="#404653" stroke-linecap="round" stroke-linejoin="round" stroke-miterlimit="10" stroke-width="1.23" d="M121.54 145.64h35.04a6.2 6.2 0 0 0 6.14-6.4l-.85-34.8a6.2 6.2 0 0 0-6.14-6.1H126.8a6.18 6.18 0 0 0-6.07 5.3l-5.26 34.8a6.22 6.22 0 0 0 6.07 7.2Z"/><path fill="#404653" stroke="#404653" stroke-linecap="round" stroke-linejoin="round" stroke-miterlimit="10" stroke-width="1.23" d="m148.95 181.35 2.61 1.8c.9.61 1.02 1.91.25 2.69l-.19.18a1.7 1.7 0 0 1-2.29.1l-2.4-2.02a1.74 1.74 0 0 1-.14-2.52c.57-.6 1.48-.7 2.16-.23Z"/><path fill="#00F673" stroke="#404653" stroke-linecap="round" stroke-linejoin="round" stroke-miterlimit="10" stroke-width="1.23" d="M99.12 174.39h57c3.03 0 5.49-2.5 5.49-5.6a5.55 5.55 0 0 0-5.5-5.59H99.12c-3.03 0-5.5 2.5-5.5 5.6a5.56 5.56 0 0 0 5.5 5.59Z"/><path fill="#00F673" stroke="#404653" stroke-linecap="round" stroke-linejoin="round" stroke-miterlimit="10" stroke-width="1.23" d="M93.66 168.12a5.68 5.68 0 0 1 5.7-4.92h29.53a5.68 5.68 0 0 1 5.69 4.92 5.56 5.56 0 0 1-5.46 6.27h-30a5.56 5.56 0 0 1-5.46-6.27Z"/><path fill="#404653" stroke="#404653" stroke-linecap="round" stroke-linejoin="round" stroke-miterlimit="10" stroke-width="1.23" d="M103.04 209.82h54.72a3.02 3.02 0 0 0-3-3.05h-48.72c-1.66 0-3 1.36-3 3.05Z"/><path fill="#404653" stroke="#404653" stroke-linecap="round" stroke-linejoin="round" stroke-miterlimit="10" stroke-width="1.23" d="M112.78 209.82h17.8v-3.05h-14.8c-1.66 0-3 1.36-3 3.05Zm-3.82-70-3.95 6.61s-13.8 1.4-21.68 3.21c-7.88 1.8-9.46 10.63-9.85 12.43-.44 2.02-2.89 44.1-2.1 44.3.79.2 6.7.8 6.7.8s9.98-40.89 12.94-41.49c2.96-.6 46.72.4 53.22-3.2 6.5-3.61 8.08-14.04 4.34-21.26-3.75-7.22-39.62-1.4-39.62-1.4Z"/><path fill="#404653" d="M135.76 147.84s-18.33 0-27.2.8c-8.87.8-14.39 7.62-14 13.63.4 6.02 7.57 45.5 7.57 45.5l6.9-.6 3.69-42.3s6.16 4.07 30.17-2.2"/><path stroke="#404653" stroke-linecap="round" stroke-linejoin="round" stroke-miterlimit="10" stroke-width="1.23" d="M135.76 147.84s-18.33 0-27.2.8c-8.87.8-14.39 7.62-14 13.63.4 6.02 7.57 45.5 7.57 45.5l6.9-.6 3.69-42.3s6.16 4.07 30.17-2.2"/><path fill="#fff" stroke="#404653" stroke-linecap="round" stroke-linejoin="round" stroke-miterlimit="10" stroke-width="1.23" d="M178.93 83.47c-.59-.4-2.56 4.81-2.56 4.81s-2.37-.12-3.75 0c-2.16.2-3.94 3.21-3.94 5.22 0 2-9.07 18.04-9.07 18.04s-7.88-13.23-10.64-15.44c-2.76-2.2-13.01-4.2-13.01-4.2a40.2 40.2 0 0 0-12.63 0s-10.25 2-13.01 4.2-10.64 15.44-10.64 15.44S90.6 95.5 90.6 93.5s-1.78-5.02-3.94-5.22c-1.38-.12-3.75 0-3.75 0s-1.97-5.21-2.56-4.81c-.6.4.4 6.82.98 8.22.6 1.4 5.52 2.4 5.52 2.4s6.11 23.67 8.08 26.88c1.98 3.2 4.14 7.22 9.47 4.8 5.32-2.4 12.02-10.22 12.02-10.22l11.25.18v.02h1.56v-.02l13.62-.18s6.7 7.82 12.02 10.23c5.33 2.4 7.5-1.6 9.47-4.81 1.97-3.21 8.08-26.87 8.08-26.87s4.92-1 5.51-2.4c.6-1.41 1.58-7.83 1-8.23Z"/><path fill="#fff" d="M162.8 105.77c-1.74 3.2-3.19 5.77-3.19 5.77s-7.88-13.23-10.64-15.44c-2.76-2.2-13.01-4.21-13.01-4.21a40.2 40.2 0 0 0-12.63 0s-10.25 2-13.01 4.21c-2.76 2.2-10.64 15.44-10.64 15.44s-1.57-2.78-3.4-6.17l-5.43 3.36c1.58 5.53 3.23 10.83 4.1 12.24 1.97 3.2 4.13 7.21 9.46 4.8 5.32-2.4 12.02-10.22 12.02-10.22l11.25.18v.02h1.56v-.02l13.62-.18s6.7 7.82 12.02 10.23c5.33 2.4 7.5-1.6 9.47-4.81.86-1.4 2.51-6.73 4.1-12.28l-5.65-2.92Z"/><path stroke="#404653" stroke-linecap="round" stroke-linejoin="round" stroke-miterlimit="10" stroke-width="1.23" d="M162.8 105.77c-1.74 3.2-3.19 5.77-3.19 5.77s-7.88-13.23-10.64-15.44c-2.76-2.2-13.01-4.21-13.01-4.21a40.2 40.2 0 0 0-12.63 0s-10.25 2-13.01 4.21c-2.76 2.2-10.64 15.44-10.64 15.44s-1.57-2.78-3.4-6.17l-5.43 3.36c1.58 5.53 3.23 10.83 4.1 12.24 1.97 3.2 4.13 7.21 9.46 4.8 5.32-2.4 12.02-10.22 12.02-10.22l11.25.18v.02h1.56v-.02l13.62-.18s6.7 7.82 12.02 10.23c5.33 2.4 7.5-1.6 9.47-4.81.86-1.4 2.51-6.73 4.1-12.28l-5.65-2.92Z"/><path fill="#fff" d="M112.7 105.93s-2.56 5.61-1.97 9.22c.6 3.6.6 4.41.6 4.41s-3.75 10.43-4.34 14.24a8.69 8.69 0 0 0 3.35 8.42c2.16 1.6 31.73 2 36.27.8 4.53-1.2 4.14-5.61 3.94-9.62-.2-4.01-1.78-12.64-1.78-12.64s.6-12.23-1.97-15.23"/><mask id="a" width="45" height="39" x="106" y="105" maskUnits="userSpaceOnUse" style="mask-type:luminance"><path fill="#fff" d="M112.7 105.93s-2.56 5.61-1.97 9.22c.6 3.61.6 4.41.6 4.41s-3.75 10.43-4.34 14.24a8.69 8.69 0 0 0 3.35 8.42c2.16 1.6 31.73 2 36.27.8 4.53-1.2 4.14-5.61 3.94-9.62-.2-4.01-1.78-12.63-1.78-12.63s.6-12.23-1.97-15.24"/></mask><g mask="url(#a)"><path fill="#404653" d="M135.32 113.98c-.86 0-1.76-.35-2.76-1.28-2.69-2.5-4.48-2.93-6.39-1.52l-.89.68c-1.97 1.53-3.83 2.98-6.75 1.15-.67-.42-1.28-.87-1.81-1.26-1.96-1.45-2.82-1.99-4.22-.82-1.05.87-1.88 1.39-2.78 1.27-1.18-.14-2.01-1.26-3.66-3.5l-.1-.15c-.66-.89-1.4-1.37-2.17-1.42-1.34-.1-2.5 1.04-2.5 1.05a.7.7 0 0 1-1.02 0 .73.73 0 0 1 0-1.03c.07-.06 1.62-1.62 3.62-1.47 1.21.08 2.29.76 3.2 2l.12.15c1.27 1.72 2.1 2.86 2.68 2.93.33.04.85-.24 1.7-.96 2.32-1.92 4.1-.61 5.97.77.54.4 1.1.81 1.72 1.2 2.08 1.3 3.23.41 5.14-1.07l.91-.7c3.17-2.34 5.92-.5 8.2 1.63 1.7 1.59 2.77.89 5.03-.84.44-.33.89-.68 1.37-1.02l.23-.16c2.91-2.06 3.23-1.88 7.17.33l1.06.6c1.37.76 2.2 1.23 2.6 1.2.3 0 .67-.42 1.42-1.29.3-.35.67-.77 1.11-1.25 3.2-3.48 4.24-3.25 6.8-2.06l.2.1c.37.16.52.59.36.95a.71.71 0 0 1-.95.37l-.2-.1c-2.13-.99-2.51-1.16-5.17 1.73-.43.47-.78.88-1.08 1.22-2.05 2.38-2.48 2.25-5.78.4l-1.05-.6c-3.5-1.95-3.5-1.95-5.68-.4l-.22.15c-.47.33-.9.67-1.33.99-1.35 1.03-2.66 2.03-4.1 2.03Zm4.1 4.94c.42-.32.86-.66 1.33-.99l.22-.16c2.19-1.54 2.19-1.54 5.67.42l1.06.59c3.3 1.85 3.73 1.98 5.78-.4.3-.34.65-.75 1.08-1.22 2.66-2.9 3.04-2.72 5.17-1.73l.2.1a.7.7 0 0 0 .95-.37c.16-.36 0-.8-.35-.96l-.21-.1c-2.56-1.18-3.6-1.42-6.8 2.07-.44.48-.8.9-1.11 1.25-.75.87-1.12 1.28-1.42 1.3-.4.02-1.24-.45-2.6-1.22l-1.06-.59c-3.94-2.2-4.26-2.39-7.17-.33l-.23.16c-.48.34-.94.69-1.37 1.02-2.26 1.73-3.33 2.43-5.03.84-2.28-2.12-5.03-3.97-8.2-1.63l-.91.7c-1.91 1.48-3.06 2.38-5.15 1.07-.62-.39-1.17-.8-1.71-1.2-1.88-1.38-3.65-2.69-5.96-.77-.86.72-1.36 1-1.7.96-.59-.07-1.43-1.2-2.7-2.93l-.1-.15c-.92-1.24-2-1.92-3.21-2-2-.15-3.55 1.4-3.62 1.47a.73.73 0 0 0 0 1.03.7.7 0 0 0 1.01 0c.01-.01 1.17-1.16 2.5-1.06.79.06 1.51.54 2.17 1.43l.11.15c1.65 2.24 2.47 3.36 3.66 3.5.9.12 1.73-.4 2.78-1.27 1.4-1.17 2.25-.63 4.22.82.53.4 1.14.84 1.8 1.26 2.92 1.83 4.79.38 6.76-1.15l.9-.68c1.9-1.42 3.7-.99 6.38 1.52 1 .93 1.9 1.29 2.76 1.29 1.44 0 2.75-1 4.1-2.04Z"/></g><path stroke="#404653" stroke-linecap="round" stroke-linejoin="round" stroke-miterlimit="10" stroke-width="1.23" d="M112.7 105.93s-2.56 5.61-1.97 9.22c.6 3.6.6 4.41.6 4.41s-3.75 10.43-4.34 14.24a8.69 8.69 0 0 0 3.35 8.42c2.16 1.6 31.73 2 36.27.8 4.53-1.2 4.14-5.61 3.94-9.62-.2-4.01-1.78-12.64-1.78-12.64s.6-12.23-1.97-15.23"/><path fill="#00F673" stroke="#404653" stroke-linecap="round" stroke-linejoin="round" stroke-miterlimit="10" stroke-width="1.23" d="m123.33 91.89-.84.17c-.08.37-.13.75-.13 1.13 0 3.82 4.02 6.92 8.97 6.92 4.95 0 8.97-3.1 8.97-6.92l-.02-.32c-2.4-.6-4.32-.98-4.32-.98-4.6-.62-8.12-.72-12.63 0Z"/><path fill="#fff" stroke="#404653" stroke-linecap="round" stroke-linejoin="round" stroke-miterlimit="10" stroke-width="1.23" d="M125.32 88.08s-.6 4.81 0 6.42c.59 1.6 4.33 4.6 8.08 3.4 3.74-1.2 4.34-4.8 4.34-5.8v-5.62l-12.23.4-.2 1.2Z"/><path fill="#404653" stroke="#404653" stroke-linecap="round" stroke-linejoin="round" stroke-miterlimit="10" stroke-width="1.23" d="M131.62 86.08c7.73 0 14-6.24 14-13.94 0-7.7-6.27-13.94-14-13.94s-14 6.24-14 13.94c0 7.7 6.27 13.94 14 13.94Z"/><path fill="#fff" stroke="#404653" stroke-linecap="round" stroke-linejoin="round" stroke-miterlimit="10" stroke-width="1.23" d="M122.76 76.85s-1.19-2.8-1.98-.2c-.78 2.6 1 5.82 2.17 6.02 1.19.2-.2-5.82-.2-5.82Zm17.04 0s1.18-2.8 1.96-.2c.8 2.6-.98 5.81-2.16 6.02-1.19.2.2-5.82.2-5.82Z"/><path fill="#fff" stroke="#404653" stroke-linecap="round" stroke-linejoin="round" stroke-miterlimit="10" stroke-width="1.23" d="M137.45 67.49a4.75 4.75 0 0 0-3.75-.93c-1.13.19-2.59.37-3.65.27-1.97-.2-3.55-1-5.13.6-1.57 1.6-2.36 9.02-2.36 12.83 0 3.8 2.76 9.22 4.73 10.63 1.97 1.4 7.49 1.2 8.87 0 1.38-1.2 3.55-5.62 3.94-9.23.4-3.6-.4-10.62-1.18-12.43a4.87 4.87 0 0 0-1.47-1.74Z"/><path fill="#404653" d="M128.68 77.45c.4 0 .74-.55.74-1.23 0-.68-.33-1.22-.74-1.22-.4 0-.74.54-.74 1.22 0 .68.34 1.23.74 1.23Zm6.55-1.23c0 .68-.33 1.23-.73 1.23-.4 0-.74-.55-.74-1.23 0-.68.33-1.22.74-1.22.4 0 .73.55.73 1.22Zm-2.73 6.94c0 .67-.34 1.22-.74 1.22-.4 0-.74-.55-.74-1.22 0-.68.33-1.23.74-1.23.4 0 .73.55.73 1.23Z"/><path fill="#fff" d="M130.29 77.72c-1.22 1.97 1.1 3.23 2.67 2.04 1.07-.82 0-2.04 0-2.04"/><path stroke="#404653" stroke-linecap="round" stroke-linejoin="round" stroke-miterlimit="10" stroke-width="1.23" d="M130.29 77.72c-1.22 1.97 1.1 3.23 2.67 2.04 1.07-.82 0-2.04 0-2.04m-6.82-4.22s2-1.9 4.01-.95m3.35.14s1.87-1.23 3.6 1.09"/><path fill="#fff" stroke="#404653" stroke-linecap="round" stroke-linejoin="round" stroke-miterlimit="10" stroke-width="1.23" d="M71.38 206.37s-11.84 2.36-11.84 3.59c0 1.22 15.08 4.7 16.7 4.9 1.6.21 1.84-7.7 1.84-7.7l-6.7-.8Z"/><path fill="#00F673" stroke="#404653" stroke-linecap="round" stroke-linejoin="round" stroke-miterlimit="10" stroke-width="1.23" d="m77.22 213.69-16.9-4.38c-.49.23-.78.45-.78.65 0 1.22 15.08 4.7 16.7 4.9.4.06.73-.42.98-1.17Z"/><path fill="#fff" stroke="#404653" stroke-linecap="round" stroke-linejoin="round" stroke-miterlimit="10" stroke-width="1.23" d="M102.13 207.77s-12.02 5.26-11.21 6.48c.8 1.23 16.5.62 18.1.41 1.61-.2 0-7.49 0-7.49l-6.9.6Z"/><path fill="#00F673" stroke="#404653" stroke-linecap="round" stroke-linejoin="round" stroke-miterlimit="10" stroke-width="1.23" d="M91.31 213.49c-.35.32-.51.59-.4.77.81 1.22 16.5.61 18.11.4.39-.04.59-.5.67-1.17H91.31Z"/><path fill="#fff" stroke="#404653" stroke-linecap="round" stroke-linejoin="round" stroke-miterlimit="10" stroke-width="1.23" d="M53 127.18h45.34v-1.86H52.99v1.86Z"/><path fill="#fff" stroke="#404653" stroke-linecap="round" stroke-linejoin="round" stroke-miterlimit="10" stroke-width="1.23" d="M40.2 127.18h45.35v-1.86H40.21v1.86Zm5.06-5.16h37.82L79 92.64H41.2L45.26 122Z"/><path fill="#404653" stroke="#404653" stroke-linecap="round" stroke-linejoin="round" stroke-miterlimit="10" stroke-width="1.23" d="M43.7 122.02h37.8l-4.07-29.37H39.62L43.7 122Z"/><path fill="#fff" stroke="#404653" stroke-linecap="round" stroke-linejoin="round" stroke-miterlimit="10" stroke-width="1.23" d="m55.29 108.37-3.8 18.82h9.76l3.8-18.82h-9.76Zm6.62 5.58a.34.34 0 0 1-.34.27l-5.53-.06a.35.35 0 0 1-.33-.43l.5-2.11a.35.35 0 0 1 .34-.27l5.52.06c.23 0 .39.21.34.43l-.5 2.11Z"/><path fill="#fff" stroke="#343A46" stroke-linecap="round" stroke-linejoin="round" stroke-miterlimit="10" stroke-width="1.23" d="m129.64 137.9-1.96 75.3c-.02 1-.83 1.8-1.8 1.8-1 0-1.8-.81-1.81-1.82l-.97-75.28h6.54Zm-23.91 0-1.97 75.3c-.02 1-.82 1.8-1.8 1.8-1 0-1.8-.81-1.81-1.82l-.97-75.28h6.55Zm-59.13 0-1.97 75.3c-.02 1-.83 1.8-1.8 1.8-1 0-1.8-.81-1.82-1.82l-.96-75.28h6.54Zm-23.92 0-1.96 75.3c-.03 1-.83 1.8-1.81 1.8-1 0-1.8-.81-1.81-1.82l-.97-75.28h6.55Z"/><path fill="#fff" stroke="#343A46" stroke-linecap="round" stroke-linejoin="round" stroke-miterlimit="10" stroke-width="1.23" d="M13.94 138.68h118.03v-9.01H13.94v9.01Z"/><path fill="#fff" stroke="#343A46" stroke-linecap="round" stroke-linejoin="round" stroke-miterlimit="10" stroke-width="1.23" d="M99 138.68h32.97v-9.01H99v9.01Z"/><path fill="#343A46" stroke="#343A46" stroke-linecap="round" stroke-linejoin="round" stroke-miterlimit="10" stroke-width="1.23" d="M13.94 134.17h118.03v-4.5H13.94v4.5Z"/><path fill="#00F673" stroke="#343A46" stroke-linecap="round" stroke-linejoin="round" stroke-miterlimit="10" stroke-width="1.23" d="M12.11 131.53h121.7v-4.96H12.1v4.96Z"/><path fill="#00F673" stroke="#343A46" stroke-linecap="round" stroke-linejoin="round" stroke-miterlimit="10" stroke-width="1.23" d="M12.11 131.53h84.7v-4.96h-84.7v4.96Z"/><path stroke="#404653" stroke-linecap="round" stroke-linejoin="round" stroke-miterlimit="10" stroke-width="1.23" d="M277.9 215h5.1M1 215h268.63"/></svg>