<svg xmlns="http://www.w3.org/2000/svg"  viewBox="0 0 292 216"><path fill="#252B36" d="M6.68 145.94s4.9 41.36 41.19 59.02c36.29 17.67 71.84.48 104.47-3.66 17.1-2.17 32.94 5.97 49.7 7.67 53.58 5.45 95.63-55.7 88.08-100.68-6.53-38.94-41.27-38.82-88.08-58.43-46.82-19.61-69.98-62.82-124.36-44.38-54.39 18.44-74.87 86.91-71 140.46Z"/><path fill="#fff" stroke="#404653" stroke-linecap="round" stroke-linejoin="round" stroke-miterlimit="10" stroke-width="1.15" d="m228.44 189.6 12.06 19.6a3.75 3.75 0 0 1-3.16 5.72h-55.22 30.58c2.91 0 4.7-3.22 3.17-5.71l-11.67-19.17 24.24-.44Z"/><path fill="#404653" stroke="#404653" stroke-linecap="round" stroke-linejoin="round" stroke-miterlimit="10" stroke-width="1.15" d="m228.44 189.6-24.24.44 4.49 7.37h24.55l-4.8-7.8Z"/><path fill="#fff" stroke="#404653" stroke-linecap="round" stroke-linejoin="round" stroke-miterlimit="10" stroke-width="1.15" d="M163.95 193.97h98.68c1.2 0 2.17-.98 2.17-2.19v-83.35a2.2 2.2 0 0 0-2.18-2.19h-98.67c-1.2 0-2.17.98-2.17 2.2v83.34c0 1.2.97 2.19 2.17 2.19Z"/><path fill="#fff" stroke="#404653" stroke-linecap="round" stroke-linejoin="round" stroke-miterlimit="10" stroke-width="1.15" d="M160.06 193.97h98.67c1.2 0 2.17-.98 2.17-2.19v-83.35c0-1.2-.97-2.19-2.17-2.19h-98.67c-1.2 0-2.17.98-2.17 2.2v83.34c0 1.2.97 2.19 2.17 2.19Z"/><path fill="#404653" stroke="#404653" stroke-linecap="round" stroke-linejoin="round" stroke-miterlimit="10" stroke-width="1.15" d="M161.35 106.25h96.09a3.48 3.48 0 0 1 3.46 3.49v68.52H157.89v-68.52c0-1.93 1.55-3.5 3.46-3.5Z"/><path fill="#252B36" stroke="#252B36" stroke-linecap="round" stroke-linejoin="round" stroke-miterlimit="10" stroke-width="1.15" d="M162.21 173.46h94.36v-63.72h-94.36v63.72Z"/><path fill="#fff" stroke="#404653" stroke-linecap="round" stroke-linejoin="round" stroke-miterlimit="10" stroke-width="1.15" d="M134.38 210.53h-3v1h3v-1Zm3.99 0h-3v1h3v-1Zm4 0h-3v1h3v-1Zm3.99 0h-3v1h3v-1Zm4 0h-3v1h3v-1Zm3.99 0h-3v1h3v-1Zm4 0h-3v1h3v-1Zm3.99 0h-3v1h3v-1Zm4 0h-3v1h3v-1Zm4 0h-3v1h3v-1Zm3.99 0h-3v1h3v-1Zm4 0h-3v1h3v-1Zm3.99 0h-3v1h3v-1Zm4 0h-3v1h3v-1Zm3.99 0h-3v1h3v-1Zm4 0h-3v1h3v-1Zm3.99 0h-3v1h3v-1Zm4 0h-3v1h3v-1Zm4 0h-3v1h3v-1Zm4 0h-3v1h3v-1Zm3.99 0h-3v1h3v-1Zm2.18 1.15h-86.64v3.25h86.64v-3.25Z"/><path fill="#404653" stroke="#404653" stroke-linecap="round" stroke-linejoin="round" stroke-miterlimit="10" stroke-width="1.15" d="M216.47 211.68h-21.13v3.26h21.13v-3.26Z"/><path fill="#00F673" d="m173.48 149.16 13.26-31.61h7.95v31.61h3.45v6.68h-3.45v8.5h-7.16v-8.5h-14.05v-6.68Zm14.05 0v-17.58l-7.35 17.58h7.35Zm13.33-20.39c0-7.48 3.91-11.76 11.07-11.76S223 121.29 223 128.77v24.33c0 7.49-3.91 11.77-11.07 11.77s-11.07-4.28-11.07-11.77v-24.33Zm7.29 24.8c0 3.34 1.46 4.61 3.78 4.61s3.78-1.27 3.78-4.6V128.3c0-3.34-1.46-4.6-3.78-4.6s-3.78 1.26-3.78 4.6v25.27Zm24.07-30.14c5.63 0 6.89-2.74 8.02-5.88h4.9v46.78h-7.3v-35.69h-5.63v-5.21Z"/><mask id="a" width="170" height="184" x="19" y="31" maskUnits="userSpaceOnUse" style="mask-type:luminance"><path fill="#fff" d="M188.24 31.48H20v183.46h168.24V31.48Z"/></mask><g mask="url(#a)"><path fill="#fff" stroke="#404653" stroke-linecap="round" stroke-linejoin="round" stroke-miterlimit="10" stroke-width="1.15" d="M143.02 69.82s2.1 3.95 2.1 10c0 6.06-2.88 11.85-2.1 14.22.79 2.36 1.05 10.71-.56 12.34-.93.93-4.85-.27-4.85-.27s-1.04 3.16-2.09 3.16c-1.04 0-3.91-.53-4.96 1.31-1.04 1.85.53 3.95-.52 5-1.04 1.06-2.35 1.85-2.35 1.85s-2.77 2.54-4.6 2.54c-1.82 0-10.83-6.4-10.83-6.4s-6.88 4.44-9.75 6.55c-2.87 2.1-4.46 9.33-4.46 9.33s-15.48-11.08-12.87-21.34c2.61-10.27 33.3-24.86 43.22-30.65 9.92-5.8 14.62-7.64 14.62-7.64Z"/><path stroke="#404653" stroke-linecap="round" stroke-linejoin="round" stroke-miterlimit="10" stroke-width="2.3" d="M140.67 91.14s.89-4.08-2.77-4.08m-.7-4.21c-.36-.7 3.61-2.97 6.44-.52"/><path fill="#404653" d="M140.23 91.02c-.46.96-1.25 1.53-1.77 1.28s-.57-1.23-.1-2.2c.45-.95 1.24-1.53 1.76-1.28.52.26.57 1.24.11 2.2Z"/><path fill="#fff" stroke="#404653" stroke-linecap="round" stroke-linejoin="round" stroke-miterlimit="10" stroke-width="1.15" d="M113.4 102.02c0 1.16-.92 2.09-2.07 2.09a2.08 2.08 0 0 1-2.07-2.09c0-1.15.93-2.09 2.07-2.09 1.15 0 2.07.94 2.07 2.1Z"/><path stroke="#404653" stroke-linecap="round" stroke-linejoin="round" stroke-miterlimit="10" stroke-width="1.15" d="M111.33 104.11v7.37"/><path fill="#fff" stroke="#404653" stroke-linecap="round" stroke-linejoin="round" stroke-miterlimit="10" stroke-width="1.15" d="M111.21 109.02s-3.17 9.09-2.68 9.83c.49.73 5.73.37 6.1 0 .36-.37-3.42-9.83-3.42-9.83Z"/><path fill="#fff" stroke="#404653" stroke-linecap="round" stroke-miterlimit="10" stroke-width="1.15" d="M125.18 143.12s6.5 4.23 4.83 4.45a8.68 8.68 0 0 1-5.46-1.27 9.37 9.37 0 0 0-5.04-1.27h-4.2s1.68-2.97 3.78-3.39c2.1-.42 6.09 1.48 6.09 1.48Z"/><path fill="#fff" stroke="#404653" stroke-linecap="round" stroke-miterlimit="10" stroke-width="1.15" d="M124.76 139.74s8.81 4.23 8.6 5.29c-.2 1.06-.63 1.27-2.94 1.06-2.3-.21-6.92-2.97-6.92-2.97l-5.25-.84s3.15-4.66 6.5-2.54Z"/><path fill="#fff" stroke="#404653" stroke-linecap="round" stroke-miterlimit="10" stroke-width="1.15" d="M102.72 142.28s8.4-4.45 10.28-5.5c1.9-1.06 5.67-.64 8.4-.64 2.73 0 11.54.21 11.96 1.9.42 1.7-2.51 2.12-5.45 2.12-2.94 0-5.46-.42-7.77 2.12-2.3 2.54-3.57 5.92-3.57 5.92s3.99.85 6.72.85c2.73 0 6.93 1.06 6.5 2.33-.41 1.27-1.46 2.54-4.82 2.11-3.36-.42-7.98.22-11.55.43-3.56.2-9.02-.85-9.02-.85l-1.68-10.8Z"/><path fill="#343A46" stroke="#404653" stroke-linecap="round" stroke-miterlimit="10" stroke-width="1.15" d="M105.8 127.62s2.26 0 .68 5c-1.58 5-2.48 14.53-2.48 14.53l-7.2-24.08 9 4.55Z"/><path fill="#00F673" stroke="#404653" stroke-linecap="round" stroke-linejoin="round" stroke-miterlimit="10" stroke-width="1.15" d="M100.7 124.13s-8.26-9.4-16.6-13.47c-8.35-4.08-23.73 7.66-31.27 19.33-7.54 11.67-24.09 70.56-28.93 81.69-4.85 11.13 13.86 18.18 34.58 20.62 20.73 2.45 37.14-10.85 41.72-19.54 4.58-8.68 6.19-35.82 5.38-53.73-.8-17.91-1.38-28.4-4.88-34.9Z"/><path fill="#00F673" d="M78.84 156.49c1.58 8.6 11.16 53.34 11.67 54.37.54 1.09 4.64 12.5 20.19 10.04 8.61-1.35 13.19-5.15 17.5-9.76 4.3-4.62 18.83-30.13 18.83-30.13s1.62-.27 5.38-2.44c2.45-1.4 6.27-5.12 9.24-4.46 2.42.54 4.94.54 7.41.46 2.03-.06 4.43-.15 5.96-1.7 1.26-1.27-1.38-1.04-2.08-1.1-2.24-.19-4.3-1.05-6.44-1.61-.67-.18-3.2-1.15-3.86-.82 0 0 1.08-.54 1.89-1.08.8-.54 2.12-.46 3.74-.46 1.02 0 2.65.1 4.22-.1.66-.02 7.75-1.06 5.84-3-.6-.59-2.33-.52-3.09-.62a50.08 50.08 0 0 0-11.63-.23l4.87-2.05c1.04-.15 2.13-.19 3.13-.2.6.03 1.27.04 1.95.01 1.2 0 4.12-.42 4.72-1.6.94-1.91-7.15-2.78-8.32-2.78-1.27 0-7.2.75-7.52.75l-1.2.24h-.21s5.65-1.63 8.07-1.63 5.65.81 6.46-1.63c.8-2.44-5.38-1.63-10.77-1.36-5.38.27-9.15 3.53-12.38 6.25-3.23 2.7-9.42 14.38-16.15 20.35-6.72 5.97-20.72 11.4-20.72 11.4s-8.09-46.17-11.59-59.47c-3.5-13.3-12.64-16.74-12.64-16.74"/><path stroke="#404653" stroke-linecap="round" stroke-linejoin="round" stroke-miterlimit="10" stroke-width="1.15" d="M78.84 156.49c1.58 8.6 11.16 53.34 11.67 54.37.54 1.09 4.64 12.5 20.19 10.04 8.61-1.35 13.19-5.15 17.5-9.76 4.3-4.62 18.83-30.13 18.83-30.13s1.62-.27 5.38-2.44c2.45-1.4 6.27-5.12 9.24-4.46 2.42.54 4.94.54 7.41.46 2.03-.06 4.43-.15 5.96-1.7 1.26-1.27-1.38-1.04-2.08-1.1-2.24-.19-4.3-1.05-6.44-1.61-.67-.18-3.2-1.15-3.86-.82 0 0 1.08-.54 1.89-1.08.8-.54 2.12-.46 3.74-.46 1.02 0 2.65.1 4.22-.1.66-.02 7.75-1.06 5.84-3-.6-.59-2.33-.52-3.09-.62a50.08 50.08 0 0 0-11.63-.23l4.87-2.05c1.04-.15 2.13-.19 3.13-.2.6.03 1.27.04 1.95.01 1.2 0 4.12-.42 4.72-1.6.94-1.91-7.15-2.78-8.32-2.78-1.27 0-7.2.75-7.52.75l-1.2.24h-.21s5.65-1.63 8.07-1.63 5.65.81 6.46-1.63c.8-2.44-5.38-1.63-10.77-1.36-5.38.27-9.15 3.53-12.38 6.25-3.23 2.7-9.42 14.38-16.15 20.35-6.72 5.97-20.72 11.4-20.72 11.4s-8.09-46.17-11.59-59.47c-3.5-13.3-12.64-16.74-12.64-16.74"/><path fill="#404653" stroke="#404653" stroke-linecap="round" stroke-linejoin="round" stroke-miterlimit="10" stroke-width="1.15" d="M169.06 174.57c2.03-.06 4.43-.16 5.96-1.7 1.26-1.27-1.38-1.04-2.08-1.1-2.24-.19-4.3-1.05-6.44-1.61-.67-.18-3.2-1.15-3.86-.82 0 0 1.08-.54 1.89-1.08.8-.55 2.12-.46 3.74-.46 1.02 0 2.65.1 4.22-.1.66-.02 7.75-1.06 5.84-3-.6-.59-2.33-.52-3.09-.62a50.15 50.15 0 0 0-11.63-.23l4.87-2.05c1.04-.15 2.13-.19 3.13-.2.6.03 1.27.04 1.95.01 1.2 0 4.12-.42 4.72-1.6.94-1.91-7.15-2.78-8.32-2.78-1.27 0-7.2.75-7.52.75l-1.2.24h-.21s5.65-1.63 8.07-1.63 5.65.81 6.46-1.63c.8-2.44-5.38-1.63-10.77-1.36-5.38.27-9.15 3.53-12.38 6.24-3.23 2.72-9.42 14.39-16.15 20.36-6.72 5.97-20.72 11.4-20.72 11.4s-3.77-20.8-7.28-38.2c-13.28 2.76-22.27 10.41-26.93 15.42 3.4 16.27 8.8 41.27 9.18 42.04.54 1.09 4.64 12.5 20.18 10.04 8.62-1.35 13.2-5.15 17.5-9.76 4.3-4.62 18.84-30.13 18.84-30.13s1.61-.27 5.38-2.44c2.45-1.4 6.27-5.12 9.24-4.46 2.42.54 4.94.54 7.41.46Z"/><path fill="#fff" stroke="#404653" stroke-linecap="round" stroke-linejoin="round" stroke-miterlimit="10" stroke-width="1.15" d="M175.24 164.08a50.1 50.1 0 0 0-11.63-.23l4.87-2.05a22.3 22.3 0 0 1 3.13-.2c.6.03 1.27.04 1.95 0 1.2 0 4.12-.4 4.72-1.6.94-1.9-7.15-2.77-8.32-2.77-1.27 0-7.2.75-7.52.75l-1.2.24h-.22s5.66-1.63 8.08-1.63 5.65.81 6.46-1.63c.8-2.45-5.38-1.63-10.77-1.36-5.38.27-9.15 3.53-12.38 6.24-3.23 2.72-9.42 14.39-16.15 20.36-6.72 5.97-20.72 11.4-20.72 11.4s-3.1-17.1-6.3-33.26a45.15 45.15 0 0 0-26.94 15.13c3.37 15.98 7.86 36.7 8.2 37.4.55 1.08 4.65 12.48 20.2 10.03 8.6-1.35 13.18-5.15 17.49-9.77 4.3-4.6 18.84-30.12 18.84-30.12s1.61-.27 5.38-2.44c2.45-1.4 6.27-5.13 9.24-4.46 2.42.54 4.94.53 7.41.46 2.03-.06 4.43-.16 5.96-1.7 1.26-1.27-1.38-1.04-2.09-1.1-2.23-.19-4.28-1.05-6.43-1.61-.67-.18-3.2-1.15-3.86-.82 0 0 1.08-.54 1.88-1.08.81-.55 2.13-.46 3.75-.46 1.02 0 2.65.1 4.22-.11.65 0 7.75-1.05 5.84-2.98-.6-.6-2.33-.53-3.09-.63Z"/><path fill="#00F673" d="M105.8 127.62s-11.66-3.06-19.33-.2c-7.67 2.84-29.06 107.05-29.06 107.05s-23.02-1.22-29.48-13.84c0 0 34.32-83.86 41.59-97.7 7.26-13.84 19.27-11.55 19.27-11.55l17.01 16.24Z"/><mask id="b" width="79" height="124" x="27" y="111" maskUnits="userSpaceOnUse" style="mask-type:luminance"><path fill="#fff" d="M105.8 127.62s-11.66-3.06-19.33-.2c-7.67 2.84-29.06 107.05-29.06 107.05s-23.02-1.22-29.48-13.84c0 0 34.32-83.86 41.59-97.7 7.26-13.84 19.27-11.55 19.27-11.55l17.01 16.24Z"/></mask><g mask="url(#b)"><path fill="#00F673" d="M105.8 127.62s-11.66-3.06-19.33-.2c-7.67 2.84-29.06 107.05-29.06 107.05s-23.02-1.22-29.48-13.84c0 0 34.32-83.86 41.59-97.7 7.26-13.84 19.27-11.55 19.27-11.55l17.01 16.24Z"/></g><mask id="c" width="79" height="124" x="27" y="111" maskUnits="userSpaceOnUse" style="mask-type:luminance"><path fill="#fff" d="M105.8 127.62s-11.66-3.06-19.33-.2c-7.67 2.84-29.06 107.05-29.06 107.05s-23.02-1.22-29.48-13.84c0 0 34.32-83.86 41.59-97.7 7.26-13.84 19.27-11.55 19.27-11.55l17.01 16.24Z"/></mask><g mask="url(#c)"><path fill="#fff" d="M105.8 127.62s-11.66-3.06-19.33-.2c-7.67 2.84-29.06 107.05-29.06 107.05s-23.02-1.22-29.48-13.84c0 0 34.32-83.86 41.59-97.7 7.26-13.84 19.27-11.55 19.27-11.55l17.01 16.24Z"/></g><path stroke="#404653" stroke-linecap="round" stroke-linejoin="round" stroke-miterlimit="10" stroke-width="1.15" d="M105.8 127.62s-11.66-3.06-19.33-.2c-7.67 2.84-29.06 107.05-29.06 107.05s-23.02-1.22-29.48-13.84c0 0 34.32-83.86 41.59-97.7 7.26-13.84 19.27-11.55 19.27-11.55l17.01 16.24Z"/><path fill="#404653" stroke="#404653" stroke-linecap="round" stroke-linejoin="round" stroke-miterlimit="10" stroke-width="1.15" d="M145.68 69.74s-3.23 11.4-18.84 19c-15.6 7.6-22.06 12.21-26.37 15.74-4.3 3.53-7.27 8.96-17.5 2.71-10.22-6.24-8.6-28.22-5.1-39.35 3.49-11.12 12.37-23.6 32.29-23.06 19.91.54 37.14 13.3 37.95 18.45.8 5.16-2.43 6.51-2.43 6.51Z"/><path fill="#00F673" d="M94.93 64.6c0 2.11-1.86 3.82-4.15 3.82-2.3 0-4.16-1.7-4.16-3.82 0-2.11 1.86-3.82 4.16-3.82 2.29 0 4.15 1.71 4.15 3.82Z"/><path fill="#404653" stroke="#404653" stroke-linecap="round" stroke-linejoin="round" stroke-miterlimit="10" stroke-width="1.15" d="M90.92 75.67s2.5-7.68-3.27-9.73c-5.77-2.06-6.1 2.74-21.6 9.57-15.52 6.83-26.06 9.36-28.98 17.57-2.92 8.21 2.98 12.55 2.98 12.55s-11.69 5.55-13.92 14.11c-2.22 8.57 4.7 17.58 20.84 21.33 16.14 3.76 27.8-3.49 31.44-9.63 3.64-6.14 4.68-14.27 4.68-14.27s4.1 4.15 9.1-6.67c5-10.83-1.27-34.83-1.27-34.83Z"/><g stroke="#fff" stroke-linecap="round" stroke-linejoin="round" stroke-miterlimit="10" stroke-width="1.15" opacity=".25"><path d="M95.36 104.75c2.42-10.3-3.77-36.9-3.77-36.9M69.3 137.96c-10.91 2.4-18.63-10.7-11.06-19.19 2.68-3 6.9-4.5 10.85-3.85 2.25.37 4.56 1.58 5.41 3.72.6 1.48.39 3.2-.18 4.7-1.74 4.62-13.33 10.68-13.33 1.88 0-4 5.91-7.91 7.22-5.1 1.3 2.82.36 4.73-1.8 4.73"/><path d="M71.46 95.73c-2.89 0-4.33 7.28.73 8.01 5.05.73 13.08-2.38 7.22-9.83-2.93-3.72-15.53-5.46-19.14 1.46-3.61 6.91.72 15.65 12.64 17.47 8.08 1.24 18.94-1.2 19.5-11.28.35-6.56.35-27.67.35-27.67"/><path d="M55.21 89.9s-12.63 7.65-8.66 15.3c3.97 7.64 21.3 6.55 21.3 6.55"/><path d="M49.44 108.47s-14.08 1.82-11.92 15.65"/></g></g><path stroke="#404653" stroke-linecap="round" stroke-linejoin="round" stroke-miterlimit="10" stroke-width="1.15" d="M1 215h271.99"/></svg>