<svg xmlns="http://www.w3.org/2000/svg"  viewBox="0 0 240 214"><path fill="#252B36" d="M10.18 114.45s1.32 40.65 35.59 67.74c34.26 27.09 81.74 29.03 120.17 31.6 38.44 2.58 67.96-18.97 72.41-51.54 4.45-32.57-24.92-42.13-40.85-79.21-15.94-37.08-14.52-49.26-48.24-72.07-33.71-22.8-86.46-8.8-114.11 30.27C7.5 80.3 10.18 114.45 10.18 114.45Z"/><path fill="#404653" stroke="#404653" stroke-linecap="round" stroke-linejoin="round" stroke-miterlimit="10" stroke-width="1.17" d="m110.1 110.76-14.63-.95v-.24l-1.8.12-1.8-.12v.24l-14.64.95-10.8 87.94h10.8l16.08-70.11h.72l16.08 70.11h10.8l-10.8-87.94Z"/><g stroke="#404653" stroke-linecap="round" stroke-linejoin="round" stroke-miterlimit="10" stroke-width="1.17"><path fill="#fff" d="m66.43 198.7-2.64 4.04-8.16 3.57s-1.44.7-1.44 2.37v3.1h23.28s.24-2.62 0-5-.24-8.08-.24-8.08h-10.8Z"/><path fill="#404653" d="M54.19 209.16v2.61h23.28s.1-1.15.1-2.61H54.2Z"/></g><g stroke="#404653" stroke-linecap="round" stroke-linejoin="round" stroke-miterlimit="10" stroke-width="1.17"><path fill="#fff" d="m120.86 198.7 2.64 4.04 8.16 3.57s1.44.7 1.44 2.37v3.1h-23.28s-.24-2.62 0-5 .24-8.08.24-8.08h10.8v0Z"/><path fill="#404653" d="M133.1 209.16v2.61h-23.28s-.1-1.15-.1-2.61h23.38Z"/></g><path fill="#00F673" stroke="#404653" stroke-linecap="round" stroke-linejoin="round" stroke-miterlimit="10" stroke-width="1.17" d="M71.03 69.85S53.95 93.65 53.95 95.4s2.72 15.21 7.04 16.48c4.32 1.27 6.72-.95 7.52-5.39.8-4.43-1.92-10.77-1.92-10.77l8-7.13-3.56-18.73Z"/><path fill="#fff" stroke="#404653" stroke-linecap="round" stroke-linejoin="round" stroke-miterlimit="10" stroke-width="1.17" d="M67.7 105.85s4.97-.8 6.25-.47c1.28.31 2.24 3.32 2.24 3.32s.48 4.44-.33 5.39c-.8.95-4.64 2.06-6.24 2.38-1.6.31-4.96-3.33-6.24-5.55-1.28-2.22.96-6.02 4.32-5.07Z"/><path fill="#00F673" stroke="#404653" stroke-linecap="round" stroke-linejoin="round" stroke-miterlimit="10" stroke-width="1.17" d="m74.62 68.77-3.6 1.08 5.67 37.45h33.68l5.12-37.23-4.58-1.73-16.89-3.67-19.4 4.1Z"/><g stroke="#404653" stroke-linecap="round" stroke-linejoin="round" stroke-miterlimit="10" stroke-width="1.17"><path fill="#404653" d="m112.22 81.3-.76 5.39-5.89 1.4-6-2.37.44-4.86 12.21.43Z"/><path fill="#343A46" d="M104.92 85.66c0-.56.46-1.02 1.03-1.02.58 0 1.04.46 1.04 1.02 0 .57-.46 1.03-1.04 1.03-.57 0-1.03-.46-1.03-1.03Z"/></g><path fill="#404653" stroke="#404653" stroke-linecap="round" stroke-linejoin="round" stroke-miterlimit="10" stroke-width="1.17" d="m90.42 71.58 3.16 3.67-4.03 25.47 4.25 6.69 5.01-7.02-4.25-25.03 3.6-3.46-3.81-4.85-3.93 4.53Zm-3.05-6.37-14.5 3.56.44 1.73 14.17-3.89-.1-1.4Zm11.88-.43 14.5 3.56-.44 1.73-14.17-3.89.1-1.4Z"/><path fill="#00F673" d="M113.74 68.34s5.49 1.23 8.84 3.13c3.36 1.9 4.17 6.18 2.25 10.93s-7.84 4.12-10.56 2.85c-2.72-1.27-3.52-6.02-3.05-8.08"/><path stroke="#404653" stroke-linecap="round" stroke-linejoin="round" stroke-miterlimit="10" stroke-width="1.17" d="M113.74 68.34s5.49 1.23 8.84 3.13c3.36 1.9 4.17 6.18 2.25 10.93s-7.84 4.12-10.56 2.85c-2.72-1.27-3.52-6.02-3.05-8.08"/><path fill="#00F673" stroke="#404653" stroke-linecap="round" stroke-linejoin="round" stroke-miterlimit="10" stroke-width="1.17" d="m88.03 63.38-1.64 1.08.44 10.9 7.08-4.97 7.41 5.07.66-10.79-1.97-1.62-11.98.33Z"/><path fill="#404653" stroke="#404653" stroke-linecap="round" stroke-linejoin="round" stroke-miterlimit="10" stroke-width="1.17" d="M102.34 50.41s4.03-.97 4.79-4.95c.76-3.99-6.53-8.83-11.53-9.7-5-.86-12.4 4.31-13.6 7.87-1.2 3.55 3.48 7.1 8.49 7.86 5 .75 11.85-1.08 11.85-1.08Z"/><path fill="#fff" stroke="#404653" stroke-linecap="round" stroke-linejoin="round" stroke-miterlimit="10" stroke-width="1.17" d="M87.33 51.06s-2.17-3.34-2.72-.43c-.54 2.9 1.74 4.2 2.72 4.1.98-.12 0-3.67 0-3.67Zm14.14 0s2.18-3.34 2.72-.43c.55 2.9-1.74 4.2-2.72 4.1-.97-.12 0-3.67 0-3.67Zm-13.67 6.6v7.12l6.11 5.61 6.87-5.82v-6.7l-12.97-.21Z"/><path fill="#fff" stroke="#404653" stroke-linecap="round" stroke-linejoin="round" stroke-miterlimit="10" stroke-width="1.17" d="M86.9 48.9s-.33 6.68.22 8.84c.54 2.15 4.13 6.68 6.96 7.65 2.83.97 6.74-4.85 7.61-6.79.87-1.94.55-10.13.55-10.13s-1.2-2.8-3.6-3.66c-2.39-.86-9.78-2.37-11.74 4.1Z"/><path fill="#404653" d="M91.42 52.45c0 .51-.23.92-.52.92-.3 0-.53-.41-.53-.92 0-.5.24-.92.53-.92.29 0 .52.41.52.92Zm6.68 0c0 .51-.24.92-.53.92-.29 0-.52-.41-.52-.92 0-.5.23-.92.52-.92.3 0 .53.41.53.92Z"/><path fill="#fff" d="M92.56 55.02c-.5 0-.9.32-.9.7 0 .4.4.71.9.71.24 0 .47-.08.63-.2.28.37.8.63 1.39.63.57 0 1.07-.24 1.36-.6a1 1 0 0 0 .56.17c.49 0 .89-.31.89-.7 0-.4-.4-.7-.89-.7"/><path stroke="#404653" stroke-linecap="round" stroke-linejoin="round" stroke-miterlimit="10" stroke-width="1.17" d="M92.56 55.02c-.5 0-.9.32-.9.7 0 .4.4.71.9.71.24 0 .47-.08.63-.2.28.37.8.63 1.39.63.57 0 1.07-.24 1.36-.6a1 1 0 0 0 .56.17c.49 0 .89-.31.89-.7 0-.4-.4-.7-.89-.7m-3.08 4.42h2.27"/><path fill="#404653" stroke="#404653" stroke-linecap="round" stroke-linejoin="round" stroke-miterlimit="10" stroke-width="1.17" d="M86.65 50.53s.08 2.16.8 1.6c.74-.56.98-4.25.33-4.73-.65-.48-1.13 2-1.13 3.13Zm14.04 0s.08 2.16.8 1.6c.73-.56.98-4.25.33-4.73-.65-.48-1.13 2-1.13 3.13Z"/><path fill="#fff" stroke="#404653" stroke-linecap="round" stroke-linejoin="round" stroke-miterlimit="10" stroke-width="1.17" d="M86.65 48.77s.24.2.24.29c1.05.56 3.47 1.6 7.4 1.81 3.36.18 6.25-1 7.96-1.93l-.02-.46c-.1-2.53-1.99-4.2-4.33-4.86a11.29 11.29 0 0 0-6.98.35 6.82 6.82 0 0 0-2.89 2.06c-.24.31-1.78 2.42-1.38 2.74Z"/><path fill="#343A46" stroke="#404653" stroke-linecap="round" stroke-linejoin="round" stroke-miterlimit="10" stroke-width="1.17" d="M86.9 48.9s2.72.76 7.4.54c4.67-.21 7.93-.53 7.93-.53s-3.2 3.2-7.87 3.42c-5.05.23-7.46-3.42-7.46-3.42Z"/><g stroke="#404653" stroke-linecap="round" stroke-linejoin="round" stroke-miterlimit="10" stroke-width="1.17"><path fill="#404653" d="m74.95 81.3.76 5.39 5.89 1.4 6-2.37-.44-4.86-12.21.43Z"/><path fill="#343A46" d="M82.25 85.66c0-.56-.46-1.02-1.04-1.02a1.03 1.03 0 1 0 0 2.05c.58 0 1.04-.46 1.04-1.03Z"/></g><path fill="#343A46" stroke="#404653" stroke-linecap="round" stroke-linejoin="round" stroke-miterlimit="10" stroke-width="1.17" d="M110.75 106.96H76.19v5.39h34.56v-5.4Z"/><path fill="#343A46" stroke="#404653" stroke-linecap="round" stroke-linejoin="round" stroke-miterlimit="10" stroke-width="1.17" d="M82.83 113.93H75.3a1.5 1.5 0 0 1-1.52-1.5v-3.65c0-.83.68-1.5 1.52-1.5h7.52c.84 0 1.52.67 1.52 1.5v3.64c0 .84-.69 1.51-1.52 1.51Zm27.51 0h-7.52a1.5 1.5 0 0 1-1.51-1.5v-3.65c0-.83.67-1.5 1.52-1.5h7.52c.84 0 1.52.67 1.52 1.5v3.64c0 .84-.69 1.51-1.53 1.51Z"/><path fill="#fff" stroke="#404653" stroke-linecap="round" stroke-linejoin="round" stroke-miterlimit="10" stroke-width="1.17" d="M97.79 107.28h-7.52v4.75h7.52v-4.75Z"/><path stroke="#404653" stroke-linecap="round" stroke-linejoin="round" stroke-miterlimit="10" stroke-width="1.17" d="M66.58 95.7s-4.8-.3-6.56-3.32"/><path fill="#00F673" stroke="#404653" stroke-linecap="round" stroke-linejoin="round" stroke-miterlimit="10" stroke-width="1.17" d="M119.95 81.77c4.37 0 7.92-3.7 7.92-8.24 0-4.55-3.55-8.24-7.92-8.24-4.38 0-7.92 3.69-7.92 8.24 0 4.55 3.54 8.24 7.92 8.24Z"/><path fill="#00F673" stroke="#404653" stroke-linecap="round" stroke-linejoin="round" stroke-miterlimit="10" stroke-width="1.17" d="M119.95 74.86c3.42 0 6.2-2.47 6.2-5.5 0-3.04-2.78-5.5-6.2-5.5-3.43 0-6.2 2.46-6.2 5.5 0 3.03 2.77 5.5 6.2 5.5Z"/><g stroke="#404653" stroke-linecap="round" stroke-linejoin="round" stroke-miterlimit="10" stroke-width="1.17"><path fill="#fff" d="M119.95 70.81c3.42 0 6.2-2.46 6.2-5.5s-2.78-5.5-6.2-5.5c-3.43 0-6.2 2.46-6.2 5.5s2.77 5.5 6.2 5.5Z"/><path fill="#fff" d="M109.98 53.44s.1 8.12.53 10.51c.42 2.4 2.1 5.52 4.41 5.52 2.32 0 4.52-.83 4.52-.83s2.73 1.45 5.36 1.04c2.63-.42 2.21-4.06 2.21-5.62 0-1.56-.32-13.32-.32-13.32s.22-1.15-.84-1.36c-1.05-.2-1.57-.2-1.57-.2v-2.5s-.42-.84-1.79-.84-1.47.32-1.47.32v-2.3s-1.14-1.82-2.63-.93c-1.05.63-1.05 1.67-1.05 1.67l-.1 2.18s-2.53-.94-2.74.52c-.2 1.46-.63 10.41-.63 10.41s-.31-2.81-.84-4.16c-.52-1.36-3.05-1.36-3.05-.1Z"/><path d="m117.23 46.78.21 9.58m3.58-10.2.1 10.3m3.16-7.29-.21 7.19m-8.2-.11 9.56.42m-11.56 1.04s0 1.38 1.03 2.03c1.04.64 3.37 2.3 3.63 5"/></g><path fill="#00F673" d="m155 86.62 13.82-32.37h8.29v32.37h3.6v6.84h-3.6v8.69h-7.46v-8.7H155v-6.83Zm14.65 0v-18l-7.67 18h7.67Zm13.88-20.87c0-7.66 4.08-12.04 11.54-12.04 7.47 0 11.54 4.38 11.54 12.04v24.9c0 7.67-4.07 12.05-11.54 12.05-7.46 0-11.53-4.38-11.53-12.05v-24.9Zm7.6 25.38c0 3.43 1.53 4.72 3.94 4.72 2.42 0 3.94-1.3 3.94-4.72V65.27c0-3.42-1.52-4.72-3.94-4.72-2.41 0-3.94 1.3-3.94 4.72v25.86Zm35.04-25.11c0-4.3-1.52-5.47-3.94-5.47s-3.94 1.3-3.94 4.72v3.08h-7.19v-2.6c0-7.66 3.87-12.04 11.34-12.04 7.46 0 11.33 4.38 11.33 12.04v1.23c0 5.13-1.66 8.35-5.32 9.85 3.8 1.65 5.32 5.2 5.32 10.06v3.76c0 7.67-3.87 12.05-11.33 12.05-7.47 0-11.34-4.38-11.34-12.05V86.7h7.2v4.44c0 3.42 1.51 4.72 3.93 4.72s3.94-1.16 3.94-5.4V86.7c0-4.45-1.52-6.1-4.98-6.1h-2.55v-6.84h2.97c2.83 0 4.56-1.23 4.56-5.06v-2.67Z"/><g stroke="#404653" stroke-miterlimit="10" stroke-width="1.17"><path fill="#404653" d="M28.08 211.97h-8.13l10.83-74.8h8.13l-10.83 74.8Z"/><path fill="#fff" d="M44.33 211.97h8.12l-10.83-74.8h-8.13l10.84 74.8Z"/></g><path fill="#404653" stroke="#404653" stroke-miterlimit="10" stroke-width="1.17" d="M143.4 211.97h-8.13l10.83-74.8h8.13l-10.84 74.8Z"/><path fill="#fff" stroke="#404653" stroke-miterlimit="10" stroke-width="1.17" d="M159.64 211.97h8.13l-10.84-74.8h-8.12l10.83 74.8Z"/><g stroke="#343A46"><path fill="#00F673" stroke-miterlimit="10" stroke-width="1.17" d="M165.32 125.45h-155v14.88h155v-14.88Z"/><path fill="#00F673" stroke-miterlimit="10" stroke-width="1.17" d="M169.1 125.45h-155v14.88h155v-14.88Z"/><path fill="#fff" d="m35.82 125.95-6.34 13.88H17.42l6.34-13.88h12.06Zm13.72 13.88 6.34-13.88h12.06l-6.34 13.88H49.54Zm96.36 0 6.34-13.88h12.05l-6.34 13.88H145.9Zm-32.13 0 6.35-13.88h12.05l-6.34 13.88h-12.06Zm-32.11 0L88 125.95h12.06l-6.35 13.88H81.66Z"/><path stroke-miterlimit="10" stroke-width="1.17" d="M168.26 132.05H142.6m25.2 2.49h-4.05m-150.3-.63H39.1m-25.2-2.79h32.4"/></g><g stroke="#404653" stroke-linecap="round" stroke-linejoin="round" stroke-miterlimit="10" stroke-width="1.17"><path fill="#404653" d="M211.4 208.7h-43.96v3.27h43.97v-3.26Z"/><path fill="#00F673" d="M203.98 208.61h-29.13l11.42-61.5h6.3l11.41 61.5Z"/><path fill="#fff" d="M182.03 169.97h14.78l-1.41-7.62h-11.95l-1.42 7.62Z"/></g><path stroke="#404653" stroke-linecap="round" stroke-linejoin="round" stroke-miterlimit="10" stroke-width="1.17" d="M235.06 211.97H239m-238 0h228.56"/></svg>