<svg xmlns="http://www.w3.org/2000/svg"  viewBox="0 0 292 216"><path fill="#252B36" d="M20.35 146.1s4.66 41.36 39.2 59.02c34.55 17.67 68.39.48 99.45-3.66 16.27-2.17 31.36 5.97 47.31 7.68 51 5.44 91.04-55.7 83.86-100.68-6.22-38.94-20.11-41.04-64.68-60.65C180.92 28.2 139.7-12.8 87.93 5.66 36.16 24.09 16.66 92.56 20.35 146.1Z"/><path stroke="#00F673" stroke-linecap="round" stroke-linejoin="round" stroke-miterlimit="10" stroke-width="1.18" d="M158.44 93.64c15.88-2.25 26.96-17.17 24.75-33.32-2.21-16.16-16.88-27.43-32.75-25.18-15.88 2.25-26.97 17.18-24.76 33.33 2.21 16.15 16.88 27.42 32.76 25.17Z"/><path stroke="#00F673" stroke-linecap="round" stroke-linejoin="round" stroke-miterlimit="10" stroke-width="1.18" d="M158.97 88.44c13.05-2.54 21.6-15.36 19.1-28.64-2.49-13.27-15.1-21.97-28.14-19.43-13.05 2.53-21.6 15.36-19.1 28.63 2.49 13.28 15.09 21.98 28.14 19.44Z"/><path stroke="#00F673" stroke-linecap="round" stroke-linejoin="round" stroke-miterlimit="10" stroke-width="1.18" d="M139.1 64.4h15.34v22.53"/><path fill="#00F673" d="M47.7 48.7s0-3.96-5.46-9.5a235.64 235.64 0 0 0-8.95-8.71s-2.73 9.1 2.33 14.65c5.06 5.54 12.07 10.7 12.07 10.7V48.7Zm-7.92 24.73s0-3.96-5.45-9.5a235.7 235.7 0 0 0-8.95-8.71s-2.73 9.1 2.33 14.65c5.06 5.55 12.07 10.7 12.07 10.7v-7.14Z"/><path fill="#00F673" d="M47.35 55.45s.4-3.94 6.4-8.87 9.81-7.7 9.81-7.7 1.76 9.35-3.84 14.32c-5.61 4.97-13.11 9.34-13.11 9.34l.74-7.1ZM37.8 84.66s.8-3.88 7.28-8.14c6.47-4.25 10.55-6.6 10.55-6.6s.79 9.48-5.3 13.82c-6.1 4.35-14 7.89-14 7.89l1.46-6.97Zm1.79 31.84s0-3.96 5.45-9.5c5.45-5.55 8.95-8.72 8.95-8.72s2.73 9.11-2.33 14.66c-5.06 5.54-12.07 10.69-12.07 10.69v-7.13Z"/><path fill="#00F673" d="M39.5 124.27s.55-3.92-4.07-10.2c-4.62-6.27-7.65-9.91-7.65-9.91s-3.97 8.62.27 14.84c4.23 6.22 10.45 12.33 10.45 12.33l1-7.06Zm-5.38 23.03s0-3.95 5.45-9.5c5.45-5.54 8.95-8.7 8.95-8.7s2.73 9.1-2.33 14.65c-5.06 5.54-12.07 10.69-12.07 10.69v-7.13Zm3.64 20.9s-.98-3.84 2.91-10.6c3.9-6.77 6.5-10.74 6.5-10.74s4.9 8.1 1.38 14.78c-3.51 6.66-9.01 13.45-9.01 13.45l-1.78-6.9Z"/><path stroke="#404653" stroke-linecap="round" stroke-linejoin="round" stroke-miterlimit="10" stroke-width="1.18" d="M48.19 47.69c-.32 4.23-.8 8.61-1.5 12.3C44.54 71.3 39.15 78.6 37 88.83c-2.15 10.23 4.04 23.4 2.38 36.54-1.65 13.13-6.68 20.44-5.24 29.2 1.43 8.77 8.97 32.51 8.97 32.51m4.19-129 5.87-4.59m-5.6-.69-2.46-4.45"/><path stroke="#404653" stroke-linecap="round" stroke-linejoin="round" stroke-miterlimit="10" stroke-width="1.18" d="M37.32 88.37s4.92-3.75 9.98-7.5m-7.52-.31s-4.1-8.17-8.74-13.59m8.74 55.16s3.83-7.64 10.52-14.3M38.82 127.7s-2.46-5.98-5.32-10.3c-2.87-4.3-3.28-4.85-3.28-4.85m3.91 42.04s1.96-5.09 4.42-9.11a58.12 58.12 0 0 1 5.74-7.65m-4.75 37.26s-.58-4.74 1.47-8.77c2.05-4.03 4.37-9.31 5.33-11.4"/><path fill="#00F673" d="M12 101.6s-.42-2.48 2.4-6.55c2.83-4.08 4.7-6.46 4.7-6.46s2.67 5.42.09 9.45c-2.58 4.04-6.43 8.04-6.43 8.04L12 101.6Zm7.6 14.64s-.42-2.48 2.4-6.56c2.83-4.08 4.69-6.45 4.69-6.45s2.68 5.41.1 9.45a62.5 62.5 0 0 1-6.43 8.03l-.76-4.47Z"/><path fill="#00F673" d="M12.94 105.8s-.68-2.42-4.97-4.85C3.7 98.52 1 97.2 1 97.2s-.1 6.06 3.94 8.56c4.05 2.5 9.22 4.4 9.22 4.4l-1.22-4.36Zm9.1 17.26s-.92-2.34-5.43-4.3c-4.52-1.95-7.32-2.97-7.32-2.97s.51 6.03 4.8 8.08a60.17 60.17 0 0 0 9.62 3.4l-1.67-4.2Zm2.28 20.17s-.43-2.49-4.44-5.36c-4-2.88-6.54-4.47-6.54-4.47s-.74 6 3.03 8.92a60.67 60.67 0 0 0 8.7 5.38l-.75-4.47Z"/><path fill="#00F673" d="M25.2 148.1s-.76-2.4 1.46-6.85c2.23-4.45 3.74-7.06 3.74-7.06s3.4 4.96 1.42 9.33a62.2 62.2 0 0 1-5.24 8.89l-1.38-4.32Zm6.84 20.02s.29-2.5 4.13-5.6c3.84-3.1 6.28-4.85 6.28-4.85s1.07 5.96-2.52 9.1a61.74 61.74 0 0 1-8.4 5.86l.51-4.5Zm-1.01-6.18s-.42-2.48-4.43-5.35c-4.01-2.88-6.55-4.48-6.55-4.48s-.73 6.01 3.03 8.93a60.67 60.67 0 0 0 8.71 5.37l-.76-4.47Zm-.05 13.5s.2-2.5-2.96-6.32c-3.16-3.82-5.21-6.02-5.21-6.02s-2.21 5.63.7 9.42a61.09 61.09 0 0 0 7.09 7.44l.38-4.52Z"/><path stroke="#404653" stroke-linecap="round" stroke-linejoin="round" stroke-miterlimit="10" stroke-width="1.18" d="M11.58 101.03a73 73 0 0 0 2.25 7.54c2.56 6.86 6.72 10.85 9.16 17.03 2.44 6.17-.03 15.12 2.4 23.17 2.45 8.06 6.38 12.08 6.42 17.74.03 5.65-2.16 21.37-2.16 21.37m-16.4-80.44-4.17-2.22m3.44-1.06 1.06-3.06"/><path stroke="#404653" stroke-linecap="round" stroke-linejoin="round" stroke-miterlimit="10" stroke-width="1.18" d="M22.74 125.34s-3.49-1.81-7.06-3.6m4.68-1.03s1.7-5.57 4.03-9.49m.41 35.56s-3.22-4.37-8.13-7.81m9.32 11.19s.9-4.02 2.24-7.03c1.34-3.02 1.54-3.42 1.54-3.42m1.85 31.09s2.76-3.45 4.48-4.74c1.72-1.3 2.92-2.58 2.92-2.58m-7.21 3.02s-1.78-2.96-3.75-5.22c-1.97-2.25-4.41-4.16-4.41-4.16m6.95 22.84s-.15-3.04-1.86-5.34c-1.71-2.3-3.73-5.35-4.56-6.55"/><path fill="#404653" d="M48.75 214.97H23.93a1.87 1.87 0 0 1-1.85-1.89l-3.57-27.94h35.65l-3.56 27.94c0 1.04-.83 1.88-1.85 1.88Z"/><path fill="#404653" d="M53.85 189.87H18.51a2.81 2.81 0 0 1-2.79-2.84 2.81 2.81 0 0 1 2.8-2.84h35.33a2.81 2.81 0 0 1 2.8 2.84 2.81 2.81 0 0 1-2.8 2.84Z"/><path fill="#fff" stroke="#404653" stroke-linecap="round" stroke-linejoin="round" stroke-miterlimit="10" stroke-width="1.18" d="m234.3 191.74 10.92 17.91a3.43 3.43 0 0 1-2.86 5.24h-50.04 27.71a3.43 3.43 0 0 0 2.87-5.22l-10.58-17.53 21.97-.4Z"/><path fill="#404653" stroke="#404653" stroke-linecap="round" stroke-linejoin="round" stroke-miterlimit="10" stroke-width="1.18" d="m234.3 191.74-21.98.4 4.07 6.74h22.26l-4.36-7.14Z"/><path fill="#fff" stroke="#404653" stroke-linecap="round" stroke-linejoin="round" stroke-miterlimit="10" stroke-width="1.18" d="M175.8 195.73h89.53c1.06 0 1.92-.87 1.92-1.95v-76.31c0-1.08-.86-1.96-1.92-1.96H175.8c-1.06 0-1.92.88-1.92 1.95v76.32c0 1.08.86 1.95 1.92 1.95Z"/><path fill="#fff" stroke="#404653" stroke-linecap="round" stroke-linejoin="round" stroke-miterlimit="10" stroke-width="1.18" d="M172.26 195.73h89.54c1.06 0 1.92-.87 1.92-1.95v-76.31c0-1.08-.86-1.96-1.92-1.96h-89.54c-1.05 0-1.91.88-1.91 1.95v76.32c0 1.08.86 1.95 1.91 1.95Z"/><path fill="#404653" stroke="#404653" stroke-linecap="round" stroke-linejoin="round" stroke-miterlimit="10" stroke-width="1.18" d="M173.49 115.51h87.09a3.17 3.17 0 0 1 3.14 3.2v62.65h-93.37v-62.65c0-1.77 1.4-3.2 3.14-3.2Z"/><path fill="#252B36" stroke="#252B36" stroke-linecap="round" stroke-linejoin="round" stroke-miterlimit="10" stroke-width="1.18" d="M174.27 176.97h85.52v-58.26h-85.52v58.26Z"/><path fill="#fff" stroke="#404653" stroke-linecap="round" stroke-linejoin="round" stroke-miterlimit="10" stroke-width="1.18" d="M149.04 210.88h-2.72v.92h2.72v-.92Zm3.62 0h-2.72v.92h2.72v-.92Zm3.62 0h-2.72v.92h2.72v-.92Zm3.62 0h-2.72v.92h2.72v-.92Zm3.63 0h-2.72v.92h2.72v-.92Zm3.62 0h-2.72v.92h2.72v-.92Zm3.62 0h-2.72v.92h2.72v-.92Zm3.62 0h-2.72v.92h2.72v-.92Zm3.61 0h-2.7v.92h2.7v-.92Zm3.63 0h-2.72v.92h2.72v-.92Zm3.62 0h-2.71v.92h2.72v-.92Zm3.62 0h-2.71v.92h2.71v-.92Zm3.63 0h-2.72v.92h2.72v-.92Zm3.62 0h-2.72v.92h2.72v-.92Zm3.62 0h-2.72v.92h2.72v-.92Zm3.62 0h-2.72v.92h2.72v-.92Zm3.62 0h-2.71v.92h2.71v-.92Zm3.62 0h-2.71v.92h2.71v-.92Zm3.62 0h-2.71v.92h2.71v-.92Zm3.62 0h-2.71v.92h2.72v-.92Zm3.63 0h-2.72v.92h2.72v-.92Zm1.98 1.05h-78.53v2.98h78.53v-2.98Z"/><path fill="#404653" stroke="#404653" stroke-linecap="round" stroke-linejoin="round" stroke-miterlimit="10" stroke-width="1.18" d="M223.44 211.93H204.3v2.98h19.15v-2.98Z"/><path fill="#00F673" d="M191.17 156.29v3.79c0 2.91 1.26 3.96 3.27 3.96 2 0 3.27-1.05 3.27-3.96v-8.98c0-2.91-1.27-4.02-3.27-4.02s-3.27 1.1-3.27 4.02v1.22h-5.95l1.14-23.66h16.62v5.83h-10.95l-.51 9.73c1.14-1.92 2.98-2.97 5.5-2.97 4.64 0 6.99 3.32 6.99 9.33v9.09c0 6.53-3.21 10.26-9.4 10.26s-9.4-3.73-9.4-10.26v-3.38h5.96Zm16.5-17.84c0-6.53 3.38-10.26 9.57-10.26s9.57 3.73 9.57 10.26v21.22c0 6.53-3.38 10.26-9.57 10.26s-9.57-3.73-9.57-10.26v-21.22Zm6.3 21.63c0 2.91 1.27 4.02 3.27 4.02s3.27-1.1 3.27-4.02v-22.04c0-2.91-1.26-4.02-3.27-4.02-2 0-3.27 1.1-3.27 4.02v22.04Zm15.43-3.85 11.45-27.57h6.88v27.57h2.98v5.83h-2.98v7.4h-6.2v-7.4H229.4v-5.83Zm12.14 0V140.9l-6.36 15.33h6.36Z"/><path fill="#fff" stroke="#404653" stroke-linecap="round" stroke-linejoin="round" stroke-miterlimit="10" stroke-width="1.18" d="M109.53 112.46s3.37-5.91 4.6-3.42c1.22 2.49.9 7.78-.93 10.27-1.83 2.49-2.44 3.73-3.36 1.86-.92-1.86-.3-8.7-.3-8.7Zm-40.08 4.67s-3.97-4.98-4.9-1.55c-.91 3.42 3.68 7.78 4.9 8.4 1.23.62 3.06.31 3.06.31l-3.06-7.16Z"/><path fill="#00F673" d="M84.1 138.5s-43 13.25-43 15.75-1.22 51.49-.24 54.24 9.1 5.5 13.52 5.5v1h94.35l-4.67-26.5s26.54-1 27.03-3c.49-2-23.3-41.98-25.51-43.23-2.21-1.25-35.92-5-39.85-5-3.93-.01-12.29-1.76-21.62 1.24Z"/><mask id="a" width="132" height="79" x="40" y="136" maskUnits="userSpaceOnUse" style="mask-type:luminance"><path fill="#fff" d="M84.1 138.5s-43 13.25-43 15.75-1.22 51.49-.24 54.24 9.1 5.5 13.52 5.5v1h94.35l-4.67-26.5s26.54-1 27.03-3c.49-2-23.3-41.98-25.51-43.23-2.21-1.25-35.92-5-39.85-5-3.93-.01-12.29-1.76-21.62 1.24Z"/></mask><g mask="url(#a)"><path fill="#343A46" d="M122.55 214.99c-59.58-22.28-56.91-33.62-56.91-33.62l-19.77 30.71c2.8 1.13 6.16 1.9 8.5 1.9v1h68.18Z" opacity=".3"/></g><mask id="b" width="132" height="79" x="40" y="136" maskUnits="userSpaceOnUse" style="mask-type:luminance"><path fill="#fff" d="M84.1 138.5s-43 13.25-43 15.75-1.22 51.49-.24 54.24 9.1 5.5 13.52 5.5v1h94.35l-4.67-26.5s26.54-1 27.03-3c.49-2-23.3-41.98-25.51-43.23-2.21-1.25-35.92-5-39.85-5-3.93-.01-12.29-1.76-21.62 1.24Z"/></mask><g mask="url(#b)"><path fill="#343A46" d="M107.15 150.51s20.22-1.08 33.52-10.83l-37.25-4.87 3.73 15.7Z" opacity=".3"/></g><path stroke="#404653" stroke-linecap="round" stroke-linejoin="round" stroke-miterlimit="10" stroke-width="1.18" d="M84.1 138.5s-43 13.25-43 15.75-1.22 51.49-.24 54.24 9.1 5.5 13.52 5.5v1h94.35l-4.67-26.5s26.54-1 27.03-3c.49-2-23.3-41.98-25.51-43.23-2.21-1.25-35.92-5-39.85-5-3.93-.01-12.29-1.76-21.62 1.24Zm59.13 37.68-7.05-21.5"/><path stroke="#404653" stroke-linecap="round" stroke-linejoin="round" stroke-miterlimit="10" stroke-width="1.18" d="M49.3 155.16s11.73 6.69 15.5 22.45"/><path fill="#404653" stroke="#404653" stroke-linecap="round" stroke-linejoin="round" stroke-miterlimit="10" stroke-width="1.18" d="M49.21 185s-7.86 5.24-9.58 6.5c-1.72 1.24-2.2 14.49-.49 18.24 1.72 3.75 9.1 5.5 14 3 4.92-2.5 7.13-14.25 5.41-20.25-1.72-6-9.34-7.5-9.34-7.5Zm28.75-44s.74 12 2.95 20 6.4 18.5 6.4 18.5l14-11.25 18.92 4.75s-3.69-19.75-6.4-26.25c-2.7-6.5-8.1-11.75-8.1-11.75s-20.64-2.75-27.77 6Z"/><path fill="#fff" d="M80.67 139s3.44 8.75 7.12 16.25c3.69 7.5 12.53 18 14.75 15.74 2.2-2.25 4.42-19.74 4.42-23.74v-12S100.08 141 94.67 141c-5.4 0-14-2-14-2Z"/><path stroke="#404653" stroke-linecap="round" stroke-linejoin="round" stroke-miterlimit="10" stroke-width="1.18" d="M80.67 139s3.44 8.75 7.12 16.25c3.69 7.5 12.53 18 14.75 15.74 2.2-2.25 4.42-19.74 4.42-23.74v-12S100.08 141 94.67 141c-5.4 0-14-2-14-2Z"/><path fill="#fff" stroke="#404653" stroke-linecap="round" stroke-linejoin="round" stroke-miterlimit="10" stroke-width="1.18" d="M68.54 114.64s5.2 17.43 8.56 22.1c3.37 4.66 12.55 9.33 19.28 9.02 6.73-.31 12.23-7.16 13.46-14 1.22-6.85.3-22.41.3-22.41s-1.22-6.85-6.42-15.87c-5.2-9.03-31.51-1.56-34.27 5.29-2.75 6.85-.91 15.87-.91 15.87Z"/><path stroke="#404653" stroke-linecap="round" stroke-linejoin="round" stroke-miterlimit="10" stroke-width="1.18" d="M89.34 128.33s3.06 4.36 6.73-.3m-16.21-6.54s2.75-2.5 6.42 0m10.71-1.87s1.22-2.49 5.81-2.49"/><path stroke="#404653" stroke-linecap="round" stroke-linejoin="round" stroke-miterlimit="10" stroke-width="2.35" d="M78.33 116.5s1.83-3.1 7.95-3.73m9.15 2.79s2.98-6.3 8.3-4.34"/><path fill="#404653" d="M96.38 135.5c0 .85-.76 1.55-1.69 1.55-.92 0-1.68-.7-1.68-1.56 0-.86.76-1.56 1.68-1.56.93 0 1.69.7 1.69 1.56Zm-9.91-13.08c0 .52-.42.94-.93.94a.93.93 0 0 1-.93-.94c0-.52.42-.94.93-.94s.93.42.93.94Zm16.1-3.52c0 .52-.41.94-.92.94a.94.94 0 0 1-.93-.94c0-.52.41-.94.92-.94.52 0 .93.42.93.94Z"/><path fill="#404653" stroke="#404653" stroke-linecap="round" stroke-linejoin="round" stroke-miterlimit="10" stroke-width="1.18" d="M82.92 76.98H72.2c-6.12 0-14.07 16.5-13.77 24.28.3 7.78 7.04 12.76 8.87 13.7 1.84.93 5.2 2.48 5.2 1.55 0-.94 3.68-8.4 3.68-8.4s-.92 4.35 1.53 4.35c2.44 0 10.1-8.09 10.1-8.09s.3 6.54 2.75 6.54c2.44 0 7.64-9.65 7.64-9.65l5.51 6.22 1.84-3.73s2.14 8.71 3.97 8.71c1.84 0 3.37-4.35 4.28-8.71.92-4.36 2.76-11.52-.3-18.05-3.06-6.54-11.93-12.45-19.27-12.45-7.35 0-11.32 3.73-11.32 3.73Z"/><path stroke="#fff" stroke-linecap="round" stroke-linejoin="round" stroke-miterlimit="10" stroke-width="1.18" d="M79.13 79.47s-7.53.89-11 3.25a12.9 12.9 0 0 0-4.65 5.3l7.54-3.54s-4.93 3.84-5.5 5.6c-.59 1.77-1.17 5.6-1.17 5.6L69 94.22s-1.91 1.64-1.74 3.25c.18 1.6.87 5.3.87 5.3l5.5-5.3 1.46 3.83 4.63-3.83.3 2.94 3.18-4.42 2.6 2.65 1.75-3.24s1.44 1.48 2.02-2.06c.58-3.54.87-5.01.87-5.01l3.2 3.83 1.15 5.01.87-5.3 2.6 2.35.88-4.42 3.18 1.77 1.16-4.13 6.96 2.36s-2.03-7.37-3.77-9.43c-1.74-2.06-10.14-2.95-10.14-2.95l-.87-1.47S85.8 78 84.64 78.59a13.28 13.28 0 0 0-2.61 2.06"/><path fill="#fff" stroke="#404653" stroke-linecap="round" stroke-linejoin="round" stroke-miterlimit="10" stroke-width="1.18" d="M61 132.75s-1.71-1.75-1.71-4.5 2.94-8.75 3.68-8.75c.74 0 2.21 1.5 2.21 1.5s-1.23 6-1.72 8.25-2.45 3.5-2.45 3.5Z"/><path fill="#fff" stroke="#404653" stroke-linecap="round" stroke-linejoin="round" stroke-miterlimit="10" stroke-width="1.18" d="M62.73 135.25s-2.46-3-2.46-4.25 3.93-10 4.92-10c.98 0 3.93 1.25 4.67 1.75.73.5.49 3 .49 4.75s-4.43 9.5-4.43 9.5l-3.19-1.75Z"/><path fill="#fff" d="M67.89 122.25s-6.14 11.25-5.16 13c.98 1.75 10.81 12.5 10.81 12.5s-28.01 42.49-30.71 46.74c-2.7 4.25-3.2 10.5-1.97 14 1.23 3.5 8.6 6.75 13.76 6.5s9.1-6.75 10.57-12.75c1.47-6 14.74-50 15.97-53.5 1.23-3.5 2.95-6.24 1.23-8-1.72-1.74-8.36-8.24-8.36-8.24s1.97-1.75 1.72-3.75-4.42-6-7.86-6.5Z"/><path stroke="#404653" stroke-linecap="round" stroke-linejoin="round" stroke-miterlimit="10" stroke-width="1.18" d="M67.89 122.25s-6.14 11.25-5.16 13c.98 1.75 10.81 12.5 10.81 12.5s-28.01 42.49-30.71 46.74c-2.7 4.25-3.2 10.5-1.97 14 1.23 3.5 8.6 6.75 13.76 6.5s9.1-6.75 10.57-12.75c1.47-6 14.74-50 15.97-53.5 1.23-3.5 2.95-6.24 1.23-8-1.72-1.74-8.36-8.24-8.36-8.24s1.97-1.75 1.72-3.75-4.42-6-7.86-6.5Z"/><path stroke="#404653" stroke-linecap="round" stroke-linejoin="round" stroke-miterlimit="10" stroke-width="1.18" d="m71.58 127.75-1.23 3 3.68 1.75.16.2"/><path fill="#404653" stroke="#404653" stroke-linecap="round" stroke-linejoin="round" stroke-miterlimit="10" stroke-width="1.18" d="M144.8 174s2.2-3.76 4.9-4.75c2.71-1 13.28-2 17.45-.5 4.18 1.5 6.64 7 7.37 10 .74 3 .5 7.24-1.96 9.5-2.46 2.24-5.65 1.74-9.1.74-3.43-1-10.31-5-14-7.25-3.68-2.25-4.42-6.25-4.67-7.75Z"/><path fill="#fff" d="M110.4 169.75s-19.42 16.24-22.12 17.74c-2.7 1.5-1.47 4.25-.49 5.25s7.37 7 10.32 9 7.13-1.5 8.1-2c1-.5-.24-2.75-.24-2.75s7.62-4.25 8.85-8.25c1.23-4 1.47-9.5 1.47-9.5s30.96 12.75 38.33 15.5c7.38 2.75 12.04 3 15.48-.5 3.44-3.5 3.69-10.75 1.97-14.5s-12.53-7.25-17.44-7.25c-4.92 0-39.81-4.24-42.02-3.5l-2.21.75Z"/><path stroke="#404653" stroke-linecap="round" stroke-linejoin="round" stroke-miterlimit="10" stroke-width="1.18" d="M110.4 169.75s-19.42 16.24-22.12 17.74c-2.7 1.5-1.47 4.25-.49 5.25s7.37 7 10.32 9 7.13-1.5 8.1-2c1-.5-.24-2.75-.24-2.75s7.62-4.25 8.85-8.25c1.23-4 1.47-9.5 1.47-9.5s30.96 12.75 38.33 15.5c7.38 2.75 12.04 3 15.48-.5 3.44-3.5 3.69-10.75 1.97-14.5s-12.53-7.25-17.44-7.25c-4.92 0-39.81-4.24-42.02-3.5l-2.21.75ZM105.97 197l-3.2 1.49"/><path fill="#404653" stroke="#404653" stroke-linecap="round" stroke-linejoin="round" stroke-miterlimit="10" stroke-width="1.18" d="m115.07 175 1.23 4.24 3.44 1.75-1.97-8.25-2.7 2.25Z"/><path fill="#fff" stroke="#404653" stroke-linecap="round" stroke-linejoin="round" stroke-miterlimit="10" stroke-width="1.18" d="M120.47 171.37c0 2.55-2.59 4.62-5.77 4.62-3.2 0-5.78-2.07-5.78-4.62 0-2.55 2.59-4.63 5.78-4.63 3.19 0 5.77 2.08 5.77 4.63Z"/><path stroke="#404653" stroke-linecap="round" stroke-linejoin="round" stroke-miterlimit="10" stroke-width="1.18" d="M9.47 214.97h265.2"/></svg>