<svg xmlns="http://www.w3.org/2000/svg"  viewBox="0 0 240 215"><path fill="#252B36" d="M2.99 122.58s-.25 36.3 29.48 61.22c29.73 24.93 72.18 27.7 106.52 30.85 34.33 3.15 61.53-15.42 66.66-44.38 5.14-28.96-20.83-38.14-33.8-71.57-12.96-33.42-11.26-44.27-40.65-65.36-29.4-21.09-77.12-9.76-103.27 24.48C1.79 92.06 2.99 122.58 2.99 122.58Z"/><path fill="#343A46" d="M202.42 124.08a8.42 8.42 0 0 1-3.7-11.38 8.58 8.58 0 0 1 11.5-3.67 8.42 8.42 0 0 1 3.7 11.39 8.58 8.58 0 0 1-11.5 3.66Z"/><path fill="#00F673" d="m210.62 112.02 4.14 5.75c.17-1.13.1-2.26-.2-3.35l-3.94-2.4Zm-8.69-2.71 9.84 13.75a8.44 8.44 0 0 0 2.01-2.42l-8.25-12.5c-1.27.12-2.5.52-3.6 1.17ZM206 125l-4.27-6.06 2.22 5.74c.68.2 1.37.3 2.05.32Zm3.47-.6-9.77-13.19c-.1.12-.18.25-.27.37l7.05 13.43a8.66 8.66 0 0 0 3-.6Z"/><path fill="#343A46" d="M131.02 203.51a11.57 11.57 0 0 1-15.27-5.63 11.37 11.37 0 0 1 5.68-15.12 11.57 11.57 0 0 1 15.28 5.63c2.65 5.73.1 12.5-5.69 15.13Z"/><mask id="a"  x="114" y="181" maskUnits="userSpaceOnUse" style="mask-type:luminance"><path fill="#fff" d="M131.02 203.51a11.57 11.57 0 0 1-15.27-5.63 11.37 11.37 0 0 1 5.68-15.13 11.57 11.57 0 0 1 15.28 5.63c2.65 5.74.1 12.51-5.69 15.13Z"/></mask><g fill="#00F673" mask="url(#a)"><path d="m136.62 198.07-7.86-12.22 8.93 8.5.05-.72-10.58-11.87c-.9-.07-1.8-.04-2.71.1l2.12 3.34-3.51-3.04h-.01l2.78 5.02-5.65-3.76-.41.27 10.48 11.52-8.32-6.27 2.96 4.62-4.31-2.95 11.29 12.48c1.4-.78 2.6-1.82 3.52-3.03l-2.3-3.8 2.86 3c.25-.38.47-.78.67-1.2Zm-6.99 5.97-9.02-10.3 4.01 6.13-9.88-7.67c-.16 1.89.16 3.84 1 5.68a11.5 11.5 0 0 0 8.98 6.57l-3.55-3.13 5.52 3.22c.98-.04 1.97-.2 2.94-.5Zm.89-21.49 5.06 5.81-1.03-2.22 1.64 1.25a11.44 11.44 0 0 0-5.67-4.84Zm-11.75 8.99-2.73-3.74a11.6 11.6 0 0 0-1.17 3.38l3.9.36Z"/></g><path fill="#343A46" d="M143.35 185.54c-.84-1.81-4.55-2.07-9.49-.96.31.27.6.57.9.87 3.68-.83 6.31-.76 6.86.41.96 2.08-5.03 6.83-13.38 10.61-8.34 3.79-15.89 5.17-16.85 3.09-.5-1.07.86-2.86 3.43-4.85-.06-.4-.1-.81-.1-1.22-3.59 2.77-5.5 5.46-4.7 7.16 1.32 2.88 9.86 1.83 19.07-2.34 9.2-4.17 15.6-9.89 14.26-12.77Z"/><path fill="#00F673" d="M57.98 79.12a13.46 13.46 0 0 0-10.06-16.23 13.6 13.6 0 0 0-16.38 9.97A13.46 13.46 0 0 0 41.6 89.1a13.6 13.6 0 0 0 16.37-9.97Z"/><path fill="#343A46" d="M47.96 66.03a10.4 10.4 0 0 1 3.12-1.95c-1.1-.57-2.27-1-3.51-1.26-1.2.8-2.42 1.72-3.59 2.77-4.86 4.38-3.53 3.94-10.6 6.57-.7.25-1.31.56-1.88.89a13.38 13.38 0 0 0 .63 7.9c2.52-.77 5.88-2 7.43-3.54 2.66-2.62 3.1-6.56 8.4-11.38ZM34.88 85.22a13.63 13.63 0 0 0 3.56 2.68c2.53-1.74 3.7-3.6 7.31-5.23 3.17-1.43 8.4-1.74 11.66-1.78.6-1.52.94-3.17.94-4.9l-.03-.69c-2.26.17-6.64.73-11.24 2.55-5.14 2.04-7.64 5.64-12.2 7.37ZM48.4 71.28c2.4 1.2 6.1.57 9-.24a13.42 13.42 0 0 0-2.3-3.77c-3.82.72-10.02 2.36-6.7 4.01Z"/><path fill="#00F673" d="M82.33 144.12c0 9.58-7.1 17.92-22.7 17.92-7.56 0-15.51-2.09-20.81-5.8l4.99-9.57c4.13 3.09 9.82 4.87 15.51 4.87 6.32 0 10.22-2.63 10.22-7.03 0-4.25-2.8-7.03-12.71-7.03H42.87l2.8-30.42h33.3v10.03H56.2l-.85 10.27h4.44c16.14 0 22.54 7.19 22.54 16.76Zm5.14-10.04c0-17.84 9.98-27.95 23.4-27.95 13.48 0 23.39 10.12 23.39 27.95 0 17.84-9.9 27.96-23.4 27.96-13.4 0-23.39-10.12-23.39-27.96Zm34.08 0c0-12.28-4.37-17.37-10.69-17.37-6.23 0-10.6 5.1-10.6 17.37 0 12.28 4.37 17.38 10.6 17.38 6.32 0 10.69-5.1 10.69-17.38Zm58.4 10.5c0 9.12-7.1 17.46-22.61 17.46-7.64 0-15.52-2.09-20.82-5.8l4.91-9.57c4.13 3.09 9.9 4.87 15.6 4.87 6.31 0 10.21-2.55 10.21-6.95 0-4.1-3.04-6.65-10.21-6.65h-5.77v-8.26l11.23-12.59h-23.24v-10.03h38.2v8.1l-12.31 13.9c9.82 1.55 14.81 7.57 14.81 15.53Z"/><path fill="#fff" stroke="#404653" stroke-linecap="round" stroke-linejoin="round" stroke-miterlimit="10" stroke-width="1.19" d="M151.23 25.58c-.57-.9-.3-2.08.6-2.65l3.16-1.96c.9-.57 2.1-.3 2.67.6.58.9.3 2.08-.6 2.65l-3.16 1.97c-.9.56-2.1.3-2.67-.6Z"/><path fill="#fff" d="M149.52 39.09s-2.3-3.38-5.49-5.41a81.16 81.16 0 0 0-8.65-4.44l-1.8-9.94s2.98-2.8 4.6-5.4c1.63-2.6 1.1-4.34.08-6.14-1.02-1.8-2.48-.63-2.7.2-.21.81-.29 2.61-.29 2.61s-.97-6.6-1.53-8.11c-.56-1.51-2.7-.06-2.51.44 0 0-.65-1.88-1.98-1.9-1.34-.03-1.7 2.22-1.7 2.22s-1.72-.78-2.68.2c-.96.98-.5 3.44-.5 3.44s-1.52.56-1.76 2.7c-.23 2.14-.04 5.9.58 6.93.61 1.03.8 1.53.8 1.53-.75 8.95-.73 8.36-.95 11.93-.16 2.52 1.5 8.36 3.91 10.79 2.41 2.43 10.94 6.72 10.94 6.72s8.89-2.28 11.63-8.37Z"/><path stroke="#404653" stroke-linecap="round" stroke-linejoin="round" stroke-miterlimit="10" stroke-width="1.19" d="M149.52 39.09s-2.3-3.38-5.49-5.41a81.16 81.16 0 0 0-8.65-4.44l-1.8-9.94s2.98-2.8 4.6-5.4c1.63-2.6 1.1-4.34.08-6.14-1.02-1.8-2.48-.63-2.7.2-.21.81-.29 2.61-.29 2.61s-.97-6.6-1.53-8.11c-.56-1.51-2.7-.06-2.51.44 0 0-.65-1.88-1.98-1.9-1.34-.03-1.7 2.22-1.7 2.22s-1.72-.78-2.68.2c-.96.98-.5 3.44-.5 3.44s-1.52.56-1.76 2.7c-.23 2.14-.04 5.9.58 6.93.61 1.03.8 1.53.8 1.53-.75 8.95-.73 8.36-.95 11.93-.16 2.52 1.5 8.36 3.91 10.79 2.41 2.43 10.94 6.72 10.94 6.72s8.89-2.28 11.63-8.37Z"/><path fill="#fff" stroke="#404653" stroke-linecap="round" stroke-linejoin="round" stroke-miterlimit="10" stroke-width="1.19" d="m134.68 25.38-1.1-6.08s2.98-2.8 4.6-5.4c1.63-2.6 1.1-4.34.08-6.14-1.02-1.8-2.48-.63-2.7.2-.21.81-.29 2.61-.29 2.61s-.97-6.6-1.53-8.11c-.56-1.51-2.7-.06-2.51.44 0 0-.65-1.88-1.98-1.9-1.34-.03-1.7 2.22-1.7 2.22s-1.72-.78-2.68.2c-.96.98-.5 3.44-.5 3.44s-1.52.56-1.76 2.7c-.23 2.14-.04 5.9.58 6.93.61 1.03.8 1.53.8 1.53l-.63 7.46 11.32-.1Zm-8.88 13.85c.21.34.44.67.67.96 2.35-1.95 7.64-6.61 10-10.63l-1.1-.32s-4.91 6.36-9.57 9.99Z"/><path stroke="#404653" stroke-linecap="round" stroke-linejoin="round" stroke-miterlimit="10" stroke-width="1.19" d="M135.27 10.57s-5.26-.2-5.81 4.2m1.77-11.87.18 5.54m-3.87-5.22.36 5.01m-3.53-1.37.57 3.13m7.52-1.81s-5.94.97-8.23 2.91"/><path fill="#00F673" d="M131.08 42.92c1.94-1.64 1.78-4.97-.34-7.43-2.06-2.38-5.2-3.08-7.16-1.64.66 2.53 1.87 5.37 3.38 6.89a21.6 21.6 0 0 0 3.52 2.59c.21-.12.41-.25.6-.4Z"/><path stroke="#404653" stroke-linecap="round" stroke-linejoin="round" stroke-miterlimit="10" stroke-width="1.19" d="M131.08 42.92c1.94-1.64 1.78-4.97-.34-7.43-2.06-2.38-5.2-3.08-7.16-1.64.66 2.53 1.87 5.37 3.38 6.89a21.6 21.6 0 0 0 3.52 2.59c.21-.12.41-.25.6-.4Z"/><path fill="#fff" d="M127.28 49.37s-2.49.26-3.27.92c-.78.66-6.76 5.72-7.73 8.72-.96 3 2.72 11.98 6.74 15.46 4.02 3.48 9.03 7.12 13.3 6.37 4.26-.76 9.16-7.26 9.66-9.03.5-1.77-16.17-22.07-16.17-22.07s-1.19-1.18-2.53-.37Z"/><path stroke="#404653" stroke-linecap="round" stroke-linejoin="round" stroke-miterlimit="10" stroke-width="1.19" d="M127.28 49.37s-2.49.26-3.27.92c-.78.66-6.76 5.72-7.73 8.72-.96 3 2.72 11.98 6.74 15.46 4.02 3.48 9.03 7.12 13.3 6.37 4.26-.76 9.16-7.26 9.66-9.03.5-1.77-16.17-22.07-16.17-22.07s-1.19-1.18-2.53-.37Z"/><path fill="#fff" d="M148.53 37.34s-2.64-.88-6.56.77c-3.93 1.65-13.76 7.38-15.2 12.35-.95 3.27 9.47 18.53 15.96 21.04 1.75.68 3.34 1.41 6.92-1.48 3.58-2.88 11.08-10.9 13.05-14.44 1.96-3.54-1.1-6.17-2.14-7.73-1.05-1.56-9.27-11.67-12.03-10.5Z"/><path stroke="#404653" stroke-linecap="round" stroke-linejoin="round" stroke-miterlimit="10" stroke-width="1.19" d="M148.53 37.34s-2.64-.88-6.56.77c-3.93 1.65-13.76 7.38-15.2 12.35-.95 3.27 9.47 18.53 15.96 21.04 1.75.68 3.34 1.41 6.92-1.48 3.58-2.88 11.08-10.9 13.05-14.44 1.96-3.54-1.1-6.17-2.14-7.73-1.05-1.56-9.27-11.67-12.03-10.5Z"/><g stroke="#404653" stroke-linecap="round" stroke-linejoin="round" stroke-miterlimit="10" stroke-width="1.19"><path fill="#fff" d="m139.07 61.43-6.75-9.17a3.22 3.22 0 0 1 .72-4.54l7.12-5.14a3.3 3.3 0 0 1 4.58.71l6.75 9.17a3.22 3.22 0 0 1-.72 4.53l-7.12 5.15a3.3 3.3 0 0 1-4.58-.71Zm98.03 45.42c-8.32-21.51-29.13-21.26-47.5-21.03-6.33.08-12.3.15-17.82-.54-18.57-2.33-23.88-21.24-23.95-21.48a1.32 1.32 0 0 0-2.56.67c.05.2 5.78 20.86 26.18 23.41 5.7.72 12.04.64 18.19.56 18.34-.22 37.32-.46 44.98 19.35a27.03 27.03 0 0 1-4.98 27.27 22.2 22.2 0 0 1-22.18 7.22c-7.92-1.8-15.74-4.28-23.31-6.68-12.53-3.97-25.48-8.07-39.23-9.21-23.57-1.96-39.96 9.4-58.94 22.57a581.5 581.5 0 0 1-11.9 8.1l-2.35 1.56c-11.73 7.76-23.87 15.78-37.6 17.23-10.67 1.13-21.53-3.82-27.02-12.32a20.62 20.62 0 0 1-2.95-15.85 17.52 17.52 0 0 1 8.38-11.21c7.1-4.2 19.67-5.59 30.37-4.44l.19-2.62c-11.24-1.18-24.35.34-31.92 4.8a20.37 20.37 0 0 0-9.6 12.87 23.23 23.23 0 0 0 3.3 17.87c5.5 8.53 15.48 13.68 26.06 13.7 1.15 0 2.31-.06 3.47-.18 14.38-1.52 27.35-10.1 38.8-17.67l2.34-1.55c4.17-2.74 8.13-5.49 11.96-8.14 18.55-12.87 34.56-23.99 57.19-22.1 13.45 1.11 26.26 5.17 38.64 9.1 7.62 2.41 15.5 4.91 23.53 6.73a24.8 24.8 0 0 0 24.78-8.06 29.67 29.67 0 0 0 5.45-29.93Z"/><path fill="#00F673" d="M144.64 46.68c0 1-.8 1.8-1.8 1.8s-1.81-.8-1.81-1.8c0-.98.8-1.79 1.8-1.79s1.81.8 1.81 1.8Zm-4.9 4.09c0 1-.81 1.8-1.81 1.8a1.8 1.8 0 1 1 0-3.59c1 0 1.8.8 1.8 1.8Z"/></g><path fill="#fff" d="M171.58 46.83a14.52 14.52 0 0 0-1.31-20.62 14.84 14.84 0 0 0-20.81 1.3 14.52 14.52 0 0 0 1.3 20.61 14.84 14.84 0 0 0 20.82-1.29Z"/><path stroke="#404653" stroke-linecap="round" stroke-linejoin="round" stroke-miterlimit="10" stroke-width="1.19" d="M171.58 46.83a14.52 14.52 0 0 0-1.31-20.62 14.84 14.84 0 0 0-20.81 1.3 14.52 14.52 0 0 0 1.3 20.61 14.84 14.84 0 0 0 20.82-1.29Zm2.04.44 4.3-3.63"/><path fill="#404653" d="M179.05 44.1c.48-.41.54-1.12.13-1.6a1.14 1.14 0 0 0-1.6-.12c-.48.4-.54 1.12-.13 1.59.41.47 1.13.53 1.6.12Z"/><path fill="#fff" stroke="#404653" stroke-linecap="round" stroke-linejoin="round" stroke-miterlimit="10" stroke-width="1.19" d="M168.35 51.68c-.7-.8-.6-2.02.22-2.7l2.83-2.4c.81-.7 2.04-.6 2.73.2.7.81.6 2.03-.21 2.71l-2.83 2.4c-.82.7-2.04.6-2.74-.2Z"/><path fill="#fff" d="M163.74 54.09s-5.73-1.53-7.98 2.73c-2.26 4.26.29 14.86.29 14.86s-4.2 6.74-5.26 7.47c-1.06.73-4.05.41-7 1.9-2.95 1.5-1.97 3.02-1.2 3.53.8.51 3.2-1.02 3.92-.96.73.05.63 1.31-2.15 4.17-2.79 2.87-4.08 2.95-3.27 4.28s2.21.98 2.21.98-.36 1.15.78 1.7c1.15.53 1.64.12 1.64.12s-.12 1.44.95 1.88c1.06.45 2.55.02 2.55.02s1 1.16 2.03.97c1.02-.2 3.34-3 5.18-5.4 1.83-2.38 8.9-10.89 11.69-16.1 2.78-5.22 1.46-10.48.9-13.7-.58-3.2-3.14-7.75-5.28-8.45Z"/><path stroke="#404653" stroke-linecap="round" stroke-linejoin="round" stroke-miterlimit="10" stroke-width="1.19" d="M163.74 54.09s-5.73-1.53-7.98 2.73c-2.26 4.26.29 14.86.29 14.86s-4.2 6.74-5.26 7.47c-1.06.73-4.05.41-7 1.9-2.95 1.5-1.97 3.02-1.2 3.53.8.51 3.2-1.02 3.92-.96.73.05.63 1.31-2.15 4.17-2.79 2.87-4.08 2.95-3.27 4.28s2.21.98 2.21.98-.36 1.15.78 1.7c1.15.53 1.64.12 1.64.12s-.12 1.44.95 1.88c1.06.45 2.55.02 2.55.02s1 1.16 2.03.97c1.02-.2 3.34-3 5.18-5.4 1.83-2.38 8.9-10.89 11.69-16.1 2.78-5.22 1.46-10.48.9-13.7-.58-3.2-3.14-7.75-5.28-8.45Z"/><g stroke="#404653" stroke-linecap="round" stroke-linejoin="round" stroke-miterlimit="10" stroke-width="1.19"><path d="M151.25 97.74c1.02-.19 3.34-3 5.18-5.39 1.03-1.35 3.75-4.67 6.42-8.23-1.8-6.09-7.08-7.88-9.43-8.38-1.06 1.58-2.15 3.09-2.63 3.41-1.06.74-4.05.41-7 1.9-2.95 1.5-1.97 3.02-1.2 3.53.8.52 3.2-1.02 3.92-.96.73.05.63 1.31-2.15 4.18-2.79 2.86-4.08 2.94-3.27 4.27.81 1.33 2.21.98 2.21.98s-.36 1.15.78 1.7c1.15.54 1.64.12 1.64.12s-.12 1.44.95 1.88c1.06.45 2.55.02 2.55.02s1 1.16 2.03.97Z"/><path d="M143.3 93.05s3.23-1.56 5.56-4.36m-3.14 6.18s3.31-1.46 5.83-4.44m-2.33 6.34s3.2-2.38 4.73-4.34"/></g><path fill="#fff" stroke="#404653" stroke-linecap="round" stroke-linejoin="round" stroke-miterlimit="10" stroke-width="1.19" d="M169.27 73.35c.12-.42.21-.84.29-1.26-4.67-3.08-10.55-2.07-13.68-1.17l.17.76-.49.78c7.5-1.8 11.63-.48 13.71.89Z"/><path fill="#00F673" stroke="#404653" stroke-linecap="round" stroke-linejoin="round" stroke-miterlimit="10" stroke-width="1.19" d="M166.02 76.17c.43.49.92.89 1.46 1.2.23-.4.45-.77.64-1.13a15.68 15.68 0 0 0 1.62-8.98 5.33 5.33 0 0 0-3.72 8.9Z"/><path fill="#fff" d="M113.29 56.07s2.31 6.6 5.29 7.1c2.97.5 7.12-4.52 7.96-8.25.84-3.74-2.12-6.77-6.39-10.54-4.27-3.77-10.4-5.97-15.57-3.1-5.16 2.85-12.84 11.04-12.84 11.04s-4.79-4.17-7.33-2.02c-2.55 2.16.77 8.75 3.11 11.47 2.35 2.71 6.6 6.66 10.7 5.71 4.1-.95 7.35-8.57 10-10.81 2.64-2.24 4.48-1.28 5.07-.6Z"/><mask id="b" width="44" height="29" x="83" y="39" maskUnits="userSpaceOnUse" style="mask-type:luminance"><path fill="#fff" d="M113.29 56.06s2.31 6.6 5.29 7.11c2.97.5 7.12-4.52 7.96-8.25.84-3.74-2.12-6.77-6.39-10.54-4.27-3.77-10.4-5.97-15.57-3.1-5.16 2.85-12.84 11.04-12.84 11.04s-4.79-4.18-7.33-2.02c-2.55 2.16.77 8.75 3.11 11.46 2.35 2.72 6.6 6.67 10.7 5.72 4.1-.95 7.35-8.57 10-10.81 2.64-2.24 4.48-1.29 5.07-.6Z"/></mask><g mask="url(#b)"><path fill="#00F673" d="M119.92 57.66c-4.53-2.15-3.26-7.53-7.79-8.96-4.52-1.44-4.16 1.61-7.78 7.35-3.62 5.73-10.32 5.38-14.85 3.94a45.09 45.09 0 0 1-4.22-1.59c.7 1.33 1.52 2.53 2.24 3.37 2.35 2.71 6.6 6.66 10.7 5.71 4.1-.95 7.35-8.57 10-10.81 2.64-2.24 4.48-1.28 5.07-.6 0 0 2.31 6.6 5.29 7.1 2.97.5 7.11-4.51 7.96-8.25a5.6 5.6 0 0 0 .1-1.87l-.2-.05s-2 6.81-6.52 4.66Z"/></g><mask id="c" width="44" height="29" x="83" y="39" maskUnits="userSpaceOnUse" style="mask-type:luminance"><path fill="#fff" d="M113.29 56.06s2.31 6.6 5.29 7.11c2.97.5 7.12-4.52 7.96-8.25.84-3.74-2.12-6.77-6.39-10.54-4.27-3.77-10.4-5.97-15.57-3.1-5.16 2.85-12.84 11.04-12.84 11.04s-4.79-4.18-7.33-2.02c-2.55 2.16.77 8.75 3.11 11.46 2.35 2.72 6.6 6.67 10.7 5.72 4.1-.95 7.35-8.57 10-10.81 2.64-2.24 4.48-1.29 5.07-.6Z"/></mask><g mask="url(#c)"><path fill="#fff" d="M119.92 57.66c-4.53-2.15-3.26-7.53-7.79-8.96-4.52-1.44-4.16 1.61-7.78 7.35-3.62 5.73-10.32 5.38-14.85 3.94a45.09 45.09 0 0 1-4.22-1.59c.7 1.33 1.52 2.53 2.24 3.37 2.35 2.71 6.6 6.66 10.7 5.71 4.1-.95 7.35-8.57 10-10.81 2.64-2.24 4.48-1.28 5.07-.6 0 0 2.31 6.6 5.29 7.1 2.97.5 7.11-4.51 7.96-8.25a5.6 5.6 0 0 0 .1-1.87l-.2-.05s-2 6.81-6.52 4.66Z"/></g><path stroke="#404653" stroke-linecap="round" stroke-linejoin="round" stroke-miterlimit="10" stroke-width="1.19" d="M113.29 56.07s2.31 6.6 5.29 7.1c2.97.5 7.12-4.52 7.96-8.25.84-3.74-2.12-6.77-6.39-10.54-4.27-3.77-10.4-5.97-15.57-3.1-5.16 2.85-12.84 11.04-12.84 11.04s-4.79-4.17-7.33-2.02c-2.55 2.16.77 8.75 3.11 11.47 2.35 2.71 6.6 6.66 10.7 5.71 4.1-.95 7.35-8.57 10-10.81 2.64-2.24 4.48-1.28 5.07-.6Z"/><path stroke="#404653" stroke-linecap="round" stroke-linejoin="round" stroke-miterlimit="10" stroke-width="1.19" d="M98.69 45.65c-3.7 3.2-6.95 6.67-6.95 6.67s-4.79-4.17-7.33-2.02c-2.55 2.16.77 8.75 3.11 11.47 2.35 2.71 6.6 6.66 10.7 5.71 3.7-.85 6.7-7.13 9.2-10a49 49 0 0 1-8.73-11.83Zm12.31-5.6a11.8 11.8 0 0 0-1.37-.08c.67 2.28 1.92 7.86.91 15.4a3.4 3.4 0 0 1 1.37-.05c.33-3.9.56-10.38-.91-15.27Z"/><path fill="#00F673" stroke="#404653" stroke-linecap="round" stroke-linejoin="round" stroke-miterlimit="10" stroke-width="1.19" d="M114.15 48.62a4.93 4.93 0 0 1-6.9-.53 4.82 4.82 0 0 1 .53-6.84 4.93 4.93 0 0 1 6.9.53 4.82 4.82 0 0 1-.53 6.84Z"/><path stroke="#404653" stroke-linecap="round" stroke-linejoin="round" stroke-miterlimit="10" stroke-width="1.19" d="M98.22 67.48a6.1 6.1 0 0 0 2.6-1.48c-2.63.44-7.47.3-11.87-4.94-4.29-5.1-4.36-9.06-3.94-11.14a3 3 0 0 0-.6.38c-2.55 2.16.77 8.75 3.11 11.47 2.35 2.71 6.6 6.66 10.7 5.71Z"/><path fill="#fff" d="M126.68 79.5s6.78 1.97 8.92-.14c2.14-2.1 2.45-8.5-2.16-11.21-3.33-1.96-6.8-2.23-12.38-.98-5.58 1.26-10.94 4.93-11.6 10.75-.64 5.82 1.62 16.77 1.62 16.77s-6.2 1.43-5.91 4.74c.29 3.3 7.64 4.46 11.23 4.14 3.6-.3 9.31-1.44 10.91-5.3 1.6-3.85-2.78-10.9-3.08-14.33-.3-3.44 1.55-4.37 2.45-4.45Z"/><mask id="d" width="33" height="38" x="105" y="66" maskUnits="userSpaceOnUse" style="mask-type:luminance"><path fill="#fff" d="M126.68 79.5s6.78 1.97 8.92-.14c2.14-2.1 2.45-8.5-2.16-11.21-3.33-1.96-6.8-2.23-12.38-.98-5.58 1.26-10.94 4.93-11.6 10.75-.64 5.82 1.62 16.77 1.62 16.77s-6.2 1.43-5.91 4.74c.29 3.3 7.64 4.46 11.23 4.14 3.6-.3 9.31-1.44 10.91-5.3 1.6-3.85-2.78-10.9-3.08-14.33-.3-3.44 1.55-4.37 2.45-4.45Z"/></mask><g mask="url(#d)"><path fill="#00F673" d="M126.68 79.5s6.77 1.97 8.91-.14c1.4-1.37 2-4.55 1-7.36h-.02s.54 2.87-3.44 3.59c-3.98.72-10.5-.72-13.4 2.87-2.9 3.58 1.27 10.93 1.63 15.77.36 4.84-.72 6.46-5.61 7-4.8.52-9.25-2.92-10.26-.82 1.5 2.55 7.7 3.45 10.9 3.17 3.6-.32 9.32-1.45 10.92-5.3 1.6-3.86-2.78-10.91-3.08-14.34-.3-3.44 1.55-4.37 2.45-4.44Z"/></g><mask id="e" width="33" height="38" x="105" y="66" maskUnits="userSpaceOnUse" style="mask-type:luminance"><path fill="#fff" d="M126.68 79.5s6.78 1.97 8.92-.14c2.14-2.1 2.45-8.5-2.16-11.21-3.33-1.96-6.8-2.23-12.38-.98-5.58 1.26-10.94 4.93-11.6 10.75-.64 5.82 1.62 16.77 1.62 16.77s-6.2 1.43-5.91 4.74c.29 3.3 7.64 4.46 11.23 4.14 3.6-.3 9.31-1.44 10.91-5.3 1.6-3.85-2.78-10.9-3.08-14.33-.3-3.44 1.55-4.37 2.45-4.45Z"/></mask><g mask="url(#e)"><path fill="#fff" d="M126.68 79.5s6.77 1.97 8.91-.14c1.4-1.37 2-4.55 1-7.36h-.02s.54 2.87-3.44 3.59c-3.98.72-10.5-.72-13.4 2.87-2.9 3.58 1.27 10.93 1.63 15.77.36 4.84-.72 6.46-5.61 7-4.8.52-9.25-2.92-10.26-.82 1.5 2.55 7.7 3.45 10.9 3.17 3.6-.32 9.32-1.45 10.92-5.3 1.6-3.86-2.78-10.91-3.08-14.34-.3-3.44 1.55-4.37 2.45-4.44Z"/></g><path stroke="#404653" stroke-linecap="round" stroke-linejoin="round" stroke-miterlimit="10" stroke-width="1.19" d="M126.68 79.5s6.78 1.97 8.92-.14c2.14-2.1 2.45-8.5-2.16-11.21-3.33-1.96-6.8-2.23-12.38-.98-5.58 1.26-10.94 4.93-11.6 10.75-.64 5.82 1.62 16.77 1.62 16.77s-6.2 1.43-5.91 4.74c.29 3.3 7.64 4.46 11.23 4.14 3.6-.3 9.31-1.44 10.91-5.3 1.6-3.85-2.78-10.9-3.08-14.33-.3-3.44 1.55-4.37 2.45-4.45Z"/><path stroke="#404653" stroke-linecap="round" stroke-linejoin="round" stroke-miterlimit="10" stroke-width="1.19" d="M109.64 85.21c.49 4.84 1.44 9.48 1.44 9.48s-6.2 1.43-5.91 4.74c.29 3.3 7.64 4.46 11.23 4.14 3.6-.3 9.31-1.44 10.91-5.3 1.44-3.47-1.97-9.54-2.88-13.22a49.98 49.98 0 0 1-14.8.16Zm2.55-13.17c-.3.33-.6.68-.86 1.05a38.9 38.9 0 0 1 13.2 8.22c.19-.5.45-.86.74-1.13-3.01-2.54-8.2-6.49-13.08-8.14Z"/><path fill="#00F673" stroke="#404653" stroke-linecap="round" stroke-linejoin="round" stroke-miterlimit="10" stroke-width="1.19" d="M121.06 74.47a4.86 4.86 0 0 1-4.45 5.26 4.88 4.88 0 0 1-5.3-4.4 4.86 4.86 0 0 1 4.45-5.26 4.88 4.88 0 0 1 5.3 4.4Z"/><path stroke="#404653" stroke-linecap="round" stroke-linejoin="round" stroke-miterlimit="10" stroke-width="1.19" d="M127.31 98.27a6 6 0 0 0 .3-2.95c-1.18 2.37-4.1 6.19-10.96 6.7-6.68.5-9.98-1.75-11.44-3.3-.05.22-.07.46-.04.7.29 3.31 7.64 4.47 11.23 4.15 3.6-.3 9.31-1.45 10.91-5.3Z"/><path fill="#404653" stroke="#404653" stroke-linecap="round" stroke-linejoin="round" stroke-miterlimit="10" stroke-width="1.19" d="M165.5 31.02c-1.53-1.98-2.86-4-4-6.01-3.42-.46-7.01.48-9.84 2.87a12.37 12.37 0 0 0-1.38 17.56A12.66 12.66 0 0 0 168 46.81a12.35 12.35 0 0 0 4.36-8.45 50.14 50.14 0 0 1-6.87-7.34Z"/><path fill="#fff" d="M166.71 42.33c-1.58 1.34-4.04 1.07-5.48-.6-1.45-1.68-1.34-4.13.25-5.47 1.58-1.34 4.04-1.07 5.48.6 1.45 1.68 1.34 4.13-.25 5.47Zm-4.13-9.23a1.2 1.2 0 0 1-1.7-.14c-.42-.5-.37-1.25.14-1.67a1.2 1.2 0 0 1 1.69.13c.43.5.37 1.25-.13 1.68Z"/><path fill="#404653" d="m43.7 128.16-3.57-.35-.5 5.11 3.56.35.51-5.1Z"/></svg>