<svg xmlns="http://www.w3.org/2000/svg"  viewBox="0 0 186 214"><path fill="#252B36" d="M164 59.28c-4.95-5.93-10.14-11.73-14.88-17.86C135.25 23.47 117 6.2 93.97 1.37c-23.32-4.9-51.08 3.42-65.15 23.4-9.35 13.27-13.01 29.77-13.34 45.8-.15 7.34 1.1 14.75-.07 22.04-1.3 8.02-5.77 15.05-9.7 22-5.17 9.2-7.41 19.32-4.26 29.68 7.11 23.42 39.24 34.3 61.31 30.38 12.04-2.14 23.06-8 34.72-11.7 9.61-3.04 19.5-3.93 29.28-1.01 22.26 6.64 45.06-4.8 54.5-25.86 11.38-25.4.73-54.25-15.58-74.75-.55-.7-1.11-1.39-1.68-2.07ZM90.02 214c46.12 0 83.51-7.26 83.51-16.22 0-8.95-37.39-16.21-83.51-16.21-46.12 0-83.51 7.26-83.51 16.21C6.5 206.74 43.9 214 90.02 214Z"/><path fill="#343A46" stroke="#343A46" stroke-miterlimit="10" d="M63.57 146.3h62.76c1.5 0 2.73-1.22 2.73-2.74v-5.09a2.74 2.74 0 0 0-2.73-2.74H63.57a2.74 2.74 0 0 0-2.73 2.74v5.1a2.74 2.74 0 0 0 2.73 2.74Z"/><path fill="#00F673" d="M67.86 136.83h-4.29v8.7h4.3v-8.7Zm5.34 0h-4.28v8.7h4.29v-8.7Zm5.35 0h-4.29v8.7h4.29v-8.7Zm5.34 0H79.6v8.7h4.29v-8.7Zm5.35 0h-4.3v8.7h4.3v-8.7Zm5.34 0h-4.29v8.7h4.29v-8.7Zm5.34 0h-4.28v8.7h4.28v-8.7Zm5.35 0h-4.29v8.7h4.3v-8.7Z"/><path fill="#00F673" stroke="#252B36" stroke-linecap="round" stroke-linejoin="round" stroke-miterlimit="10" stroke-width="1.08" d="m104.33 56.5 5.62-2.57-1.19-6.78-6.2-.48a27.3 27.3 0 0 0-3.1-5.9l3.2-5.43-4.85-4.87-5.44 3.25A27 27 0 0 0 82 29.46l-1.58-6.24h-6.85L72 29.5a26.96 26.96 0 0 0-6.16 1.97l-4.9-4.26-5.61 3.94 2.31 6.1a27.43 27.43 0 0 0-3.93 5.12l-6.45-.66-2.34 6.46 5.33 3.64a27.63 27.63 0 0 0-.3 6.5l-5.62 3.16 1.77 6.65 6.36-.09a26.97 26.97 0 0 0 3.49 5.58l-2.75 5.74 5.25 4.42 5.09-3.66a27 27 0 0 0 6.12 2.6l1.02 6.16 6.83.6 2.05-5.83c2.29-.2 4.49-.7 6.57-1.43l4.3 4.4 5.94-3.45-1.63-5.93a27.45 27.45 0 0 0 4.56-4.99l6.02 1.12 2.9-6.24-4.73-3.92c.55-2.14.84-4.39.85-6.7Zm-10.13-.12c0 9.5-7.66 17.19-17.1 17.19-9.45 0-17.1-7.7-17.1-17.19 0-9.49 7.65-17.18 17.1-17.18 9.44 0 17.1 7.7 17.1 17.18Z"/><path stroke="#404653" stroke-linecap="round" stroke-linejoin="round" stroke-miterlimit="10" stroke-width="3.25" d="M38.24 63.04c.32 2.03.79 4 1.4 5.92"/><path stroke="#404653" stroke-linecap="round" stroke-linejoin="round" stroke-width="3.25" d="M107.29 30.92a39.38 39.38 0 0 0-30-13.84c-21.83 0-39.54 17.79-39.54 39.73 0 .37 0 .73.02 1.09"/><path fill="#404653" d="m109.94 27.31 1.05 8.7-8.02-3.44 6.97-5.26Z"/><path fill="#00F673" stroke="#252B36" stroke-linecap="round" stroke-linejoin="round" stroke-miterlimit="10" stroke-width="1.08" d="m150.82 87.45 4.8-1.44-1.24-7.05-5.03.3a22.73 22.73 0 0 0-2.58-4.9l3.16-4.01-5.04-5.06-4.02 3.2a22.47 22.47 0 0 0-8.64-3.54l-.6-5.2h-7.12l-.6 5.23c-1.8.34-3.51.9-5.13 1.64l-3.49-3.96-5.83 4.11 2.5 4.66a22.83 22.83 0 0 0-3.27 4.26l-5.12-1.23-2.44 6.73 4.69 2.36a23 23 0 0 0-.26 5.4l-4.86 1.94 1.85 6.91 5.1-.76a22.87 22.87 0 0 0 2.9 4.65l-2.82 4.3 5.46 4.6 3.68-3.5c1.59.92 3.3 1.65 5.1 2.16l.14 5.07 7.1.62 1-4.92a22.5 22.5 0 0 0 5.46-1.18l2.96 4.01 6.17-3.58-1.97-4.57a22.87 22.87 0 0 0 3.8-4.16l4.7 1.58 3.02-6.49-4.24-2.61c.46-1.78.7-3.65.71-5.57Zm-8.43-.1c0 7.9-6.37 14.3-14.23 14.3s-14.23-6.4-14.23-14.3 6.37-14.3 14.23-14.3 14.23 6.4 14.23 14.3Z"/><path stroke="#404653" stroke-linecap="round" stroke-linejoin="round" stroke-width="3.25" d="M157.64 73.7a33.14 33.14 0 0 1 .9 26.63A32.86 32.86 0 0 1 107 113.56"/><path fill="#404653" d="m154.42 77.07-.02-8.76 7.56 4.35-7.54 4.4Z"/><g stroke="#404653" stroke-linecap="round" stroke-linejoin="round" stroke-miterlimit="10" stroke-width="1.08"><path fill="#fff" d="M111.23 191.34c.03-.34.05-.68.05-1.03 0-8.22-7.7-14.88-17.18-14.88-9.5 0-17.19 6.66-17.19 14.88 0 .35.02.7.05 1.03h34.27Z"/><path fill="#404653" d="M111.23 192.76c.03-.34.05-.69.05-1.04 0-8.21-7.7-14.88-17.18-14.88-9.5 0-17.19 6.67-17.19 14.88 0 .35.02.7.05 1.04h34.27Z"/></g><g stroke="#404653" stroke-linecap="round" stroke-linejoin="round" stroke-miterlimit="10" stroke-width="1.08"><path fill="#fff" d="M57.18 96.77 69 115.54l12.98-7.32.8 6.37s-12.52 9.86-14.26 10.66c-1.74.8-4.9.32-5.7-.64-.8-.95-7.44-24.66-7.44-24.66s-1.15-4.45 1.8-3.18Z"/><path fill="#00F673" d="M81.35 107.27 72.32 113l4.8 9.39 7.55-8.28-.79-8.75-2.53 1.9Z"/></g><path fill="#404653" stroke="#404653" stroke-linecap="round" stroke-linejoin="round" stroke-miterlimit="10" stroke-width="1.08" d="m44.1 140.7 22.05 22.26s-5.55 5.26-9.5 9.71c-3.96 4.46-10.46 10.19-10.46 10.19l2.22 2.7s25.65-19.41 26.92-20.69c1.27-1.27 1.27-3.82.95-7.16-.32-3.34-9.66-29.6-9.66-29.6L44.1 140.7Z"/><g stroke="#404653" stroke-linecap="round" stroke-linejoin="round" stroke-miterlimit="10" stroke-width="1.08"><path fill="#00F673" d="m55.89 169.63 5.33 9.37-10.83 5.7s-.66 2 0 3.84c.67 1.85 2.33 3.69 2.5 4.7.17 1 .33 1.5-1.83 1.5-2.17 0-4.5-1.84-5.67-3.18-1.16-1.34-1.33-5.02-2.33-6.53-1-1.5-2.66-3.68-1.33-5.7 1.33-2 4-2.34 4-2.34l10.16-7.36Z"/><path fill="#404653" d="M52.51 194.58c-2.36-.68-4.51-2.56-6-4.6-1.66-2.3-1.24-6.26-2.9-7.72-1.02-.9-1.1-2.66-1.01-3.89-.32.27-.62.59-.87.97-1.33 2 .33 4.18 1.33 5.69 1 1.5 1.17 5.19 2.33 6.53 1.17 1.34 3.5 3.18 5.67 3.18.7 0 1.16-.06 1.45-.16Z"/></g><path fill="#404653" d="M42.29 138.09s4.27 7.9 7.6 12.52c4.43 6.15 12.45 15.54 12.45 15.54l-1.26 29.75 3.96.48s7.12-29.28 7.28-31.66c.16-2.4-10.3-24.83-10.3-24.83"/><path stroke="#404653" stroke-linecap="round" stroke-linejoin="round" stroke-miterlimit="10" stroke-width="1.08" d="M42.29 138.09s4.27 7.9 7.6 12.52c4.43 6.15 12.45 15.54 12.45 15.54l-1.26 29.75 3.96.48s7.12-29.28 7.28-31.66c.16-2.4-10.3-24.83-10.3-24.83"/><path stroke="#fff" stroke-linecap="round" stroke-linejoin="round" stroke-miterlimit="10" stroke-width="1.08" d="M72.25 166.03c-.04-8.97-3.9-15.87-7.92-23.61l1.85-4.25m-1.38 39.51c-.13 1.11-.2 1.89-.2 1.89m-14.77-36.34c3.13 4.94 10.72 16.83 12.39 18.3 2.1 1.85 5.8 2.12 5.01 3.44-.79 1.33-3.43 2.92-2.37 3.19 1.05.26 2.1.53 1.32 2.12-.4.8-.8 3.12-1.1 5.24m-16.6-34.43.73 1.15"/><g stroke="#404653" stroke-linecap="round" stroke-linejoin="round" stroke-miterlimit="10" stroke-width="1.08"><path fill="#00F673" d="m60.52 180.24 10.38.88-2.82 14.68s1.06 2.65 4.05 3.53c2.99.89 4.22 1.42 4.22 2.83 0 1.42-1.23 1.77-6.16 2.3-4.92.53-10.03-1.41-10.03-1.41s-2.28-.36-2.46-1.95c-.18-1.59 2.29-6 2.29-6l.53-14.86Z"/><path fill="#404653" d="M70.2 204.46c4.68-.5 6.02-.85 6.14-2.1-2.46.53-5.6.94-8.66.54a31.23 31.23 0 0 1-9.84-2.93c-.11.44-.17.84-.14 1.13.18 1.6 2.46 1.95 2.46 1.95s5.1 1.94 10.03 1.41Z"/></g><path fill="#fff" d="M42.16 100.63s-12.02 6.16-14.78 9.18c-2.77 3.02-.6 5.8.48 8.94 1.08 3.14 15.16 21.1 16.24 21.95 1.08.84 6.6-1.81 14.06-5.07 7.45-3.26 9.25-4.6 9.25-6.4 0-1.81-9.63-31.13-10.23-32.46-.6-1.33-11.9 2.05-15.02 3.86Z"/><mask id="a" width="42" height="45" x="26" y="96" maskUnits="userSpaceOnUse" style="mask-type:luminance"><path fill="#fff" d="M42.16 100.63s-12.02 6.16-14.78 9.18c-2.77 3.02-.6 5.8.48 8.94 1.08 3.14 15.16 21.1 16.24 21.95 1.08.84 6.6-1.81 14.06-5.07 7.45-3.26 9.25-4.6 9.25-6.4 0-1.81-9.63-31.13-10.23-32.46-.6-1.33-11.9 2.05-15.02 3.86Z"/></mask><g mask="url(#a)"><path fill="#00F673" d="m38.85 124.63 8.06.32-10.8-2.1s-7.57-3.4-7.57-7.45c0-4.05 4.68-5.5 4.68-5.5l11.43-3.08.8-7.13a49 49 0 0 0-1.42.05c-.76.32-1.4.63-1.87.9 0 0-12.02 6.15-14.78 9.17-2.77 3.02-.6 5.8.48 8.94 1.08 3.14 15.16 21.1 16.24 21.95 1.08.85 6.6-1.81 14.06-5.07l.24-.1c-2.15.43-9.01 2.12-11.17.26-2.25-1.94-6.93-6.8-6.93-6.8l17.4.17-18.85-4.53Z"/></g><path stroke="#404653" stroke-linecap="round" stroke-linejoin="round" stroke-miterlimit="10" stroke-width="1.08" d="M42.16 100.63s-12.02 6.16-14.78 9.18c-2.77 3.02-.6 5.8.48 8.94 1.08 3.14 15.16 21.1 16.24 21.95 1.08.84 6.6-1.81 14.06-5.07 7.45-3.26 9.25-4.6 9.25-6.4 0-1.81-9.63-31.13-10.23-32.46-.6-1.33-11.9 2.05-15.02 3.86Z"/><path fill="#404653" stroke="#404653" stroke-linecap="round" stroke-linejoin="round" stroke-miterlimit="10" stroke-width="1.08" d="M38.8 102.42a19.2 19.2 0 0 0 5.52 5.46c3.85 2.41 6.37 1.93 7.7-.48 1.07-1.98-.66-7.83-1.33-9.9-3.3.9-6.96 2.22-8.53 3.13 0 0-1.4.72-3.36 1.79Z"/><path fill="#fff" d="M49.73 96.05s-.96 1.08-.72 2.29c.24 1.2 1.44 5.92 1.32 7.49-.12 1.57-1.56 1.8-4.57.6-3-1.2-4.92-4.7-5.4-5.55-.48-.85-2.4-5.92-2.4-5.92l1.32-.85s1.32 2.06 4.56 2.06c3.25 0 5.53-1.7 5.89-.97.36.73 0 .85 0 .85Z"/><path stroke="#404653" stroke-linecap="round" stroke-linejoin="round" stroke-miterlimit="10" stroke-width="1.08" d="M49.73 96.05s-.96 1.08-.72 2.29c.24 1.2 1.44 5.92 1.32 7.49-.12 1.57-1.56 1.8-4.57.6-3-1.2-4.92-4.7-5.4-5.55-.48-.85-2.4-5.92-2.4-5.92l1.32-.85s1.32 2.06 4.56 2.06c3.25 0 5.53-1.7 5.89-.97.36.73 0 .85 0 .85Z"/><path fill="#404653" stroke="#404653" stroke-linecap="round" stroke-linejoin="round" stroke-miterlimit="10" stroke-width="1.08" d="m33.03 90.97 2.52 3.26 3.25-1.32-2.4-4.47-3.37 2.53Z"/><path fill="#fff" d="M37.35 92.3s-3.6-4.83-3.48-6.28c.12-1.45 7.63-6.93 9.68-6.57 2.04.36 5.26 6.51 5.26 6.51l1.8 1.82-.6 1.69s3.09 4.28 2.73 4.89c-.37.6-3.13 2.29-6.5 3.01-3.36.73-6.6-1.45-6.6-1.45s-2.29.97-3.25.37-2.28-2.78-2.04-3.26c.24-.49 3-.73 3-.73Z"/><path stroke="#404653" stroke-linecap="round" stroke-linejoin="round" stroke-miterlimit="10" stroke-width="1.08" d="M37.35 92.3s-3.6-4.83-3.48-6.28c.12-1.45 7.63-6.93 9.68-6.57 2.04.36 5.26 6.51 5.26 6.51l1.8 1.82-.6 1.69s3.09 4.28 2.73 4.89c-.37.6-3.13 2.29-6.5 3.01-3.36.73-6.6-1.45-6.6-1.45s-2.29.97-3.25.37-2.28-2.78-2.04-3.26c.24-.49 3-.73 3-.73Z"/><path fill="#404653" stroke="#404653" stroke-linecap="round" stroke-linejoin="round" stroke-miterlimit="10" stroke-width="1.08" d="m78.69 93.27 13.34 88.02 1.68-.24-12.86-87.9s-.84-.36-2.16.12Z"/><g fill="#00F673" stroke="#404653" stroke-linecap="round" stroke-linejoin="round" stroke-miterlimit="10" stroke-width="1.08"><path d="M79.05 104.13s-2.65-.6-2.65.97c0 1.57-.24 4.23.72 4.83.96.6 2.17.36 2.29-1.09.12-1.45 0-5.07-.36-4.7Zm1.55 6.57s-.1 1.9.26 2.1c.36.18 5.22-.2 5.4-.58.17-.37.09-1.9-.27-1.98-.36-.1-4.95 0-5.4.47Z"/><path d="M79.17 108.24s-.12 2.42.34 2.66c.46.24 6.64-.25 6.87-.73.23-.48.12-2.41-.34-2.53-.46-.12-6.3 0-6.87.6Z"/><path d="M78.92 105.58s-.12 2.42.36 2.66c.48.24 6.97-.24 7.21-.72.24-.49.12-2.42-.36-2.54-.48-.12-6.6 0-7.2.6Z"/><path d="M78.56 102.93s-.12 2.41.36 2.65c.49.25 6.97-.24 7.21-.72.25-.48.13-2.42-.36-2.54-.48-.12-6.6 0-7.2.6Z"/></g><path fill="#fff" d="M26.24 114.11c.17 3.65 3.3 6.24 5.25 7.5.9.58 1.93.88 3 .86l34.95-.46v-7.73l-37.73-5.31s-3 .11-3.8 2.38"/><mask id="b" width="44" height="15" x="26" y="108" maskUnits="userSpaceOnUse" style="mask-type:luminance"><path fill="#fff" d="M26.24 114.11c.17 3.65 3.3 6.24 5.25 7.5.9.58 1.93.88 3 .86l34.95-.46v-7.73l-37.73-5.31s-3 .11-3.8 2.38"/></mask><g mask="url(#b)"><path fill="#00F673" d="M31.7 108.97s-3 .11-3.8 2.38l-1.66 2.76c.17 3.65 3.3 6.24 5.25 7.5.9.58 1.93.88 3 .86l34.95-.46v-5.87l-1.9-2.13-.8-.1-1.79 6.18s-20.94-.48-27.22-1.62c-6.28-1.13-8.22-2.42-8.38-5.34a4.52 4.52 0 0 1 2.36-4.16Z"/></g><path stroke="#404653" stroke-linecap="round" stroke-linejoin="round" stroke-miterlimit="10" stroke-width="1.08" d="M26.06 112.54c.16 4.33 3.31 7.4 5.27 8.91.9.69 1.94 1.04 3 1.02l35.1-.55v-9.18l-37.69-6.2s-1.75 1.17-3.94 2.87"/><path fill="#00F673" stroke="#404653" stroke-linecap="round" stroke-linejoin="round" stroke-miterlimit="10" stroke-width="1.08" d="m66.91 113.32-.24 11.35 11.54-2.42s5.89.48 7.2.36c1.33-.12 2.41-2.05 2.41-3.02v-2.17s.96-.72.84-1.69c-.12-.96-2.04-1.57-2.04-1.57s-5.53-1.2-7.1-.84c-1.55.36-12.6 0-12.6 0Z"/><g stroke="#404653" stroke-linecap="round" stroke-linejoin="round" stroke-miterlimit="10" stroke-width="1.08"><path fill="#00F673" d="m31.46 92.42 20.19-9.3s.84-.6-.48-.72c-1.32-.12-3.97.36-3.97.36s-4.26-6.09-5.1-6.33c-.84-.24-1.32 0-1.44.49l-.12.48s-6.92 1.98-9.56 5.48c-2.64 3.5.48 9.54.48 9.54Z"/><path d="m40.81 78.05.9 1.8s-2.29 1.1-2.29 2.3c0 1.2 1.8 3.99 1.8 3.99m-7.07-4.3s-1.1 1.2-1.1 2.7c0 1.5 1.6 4.4 1.6 4.4m-2.99 1.69 11.64-5.4"/></g><g stroke="#404653" stroke-linecap="round" stroke-linejoin="round" stroke-miterlimit="10" stroke-width="1.08"><path fill="#fff" d="M111.23 194c.03-.35.05-.7.05-1.04 0-8.22-7.7-14.88-17.18-14.88-9.5 0-17.19 6.66-17.19 14.88 0 .35.02.7.05 1.03h34.27Z"/><path fill="#fff" d="M111.23 195.4c.03-.33.05-.68.05-1.03 0-8.21-7.7-14.87-17.18-14.87-9.5 0-17.19 6.66-17.19 14.88 0 .34.02.69.05 1.03h34.27Z"/><path fill="#00F673" d="M94.1 179.5c-5.85 0-11.01 2.53-14.12 6.4l4.03 3.19a12.26 12.26 0 0 1 19.17 0l5.24-2.94c-3.08-4.01-8.34-6.66-14.32-6.66Z"/><path fill="#404653" d="M98.79 194.97a5.23 5.23 0 1 0-10.41.44h10.39l.02-.44Z"/></g></svg>